<svg width="115" height="51" viewBox="0 0 115 51" fill="none" xmlns="http://www.w3.org/2000/svg">
<g clip-path="url(#clip0)">
<path d="M24.8864 49.3618L15.9484 33.8077H10.8267V49.3618H0V2.02862H18.9333C21.072 1.98817 23.1963 2.38666 25.1749 3.19949C27.1536 4.01232 28.9446 5.22221 30.4372 6.75443C31.9707 8.24578 33.1822 10.0356 33.997 12.0134C34.8119 13.9911 35.2127 16.1149 35.1749 18.2536C35.185 21.105 34.3475 23.895 32.7685 26.2693C31.2034 28.6986 29.0218 30.6691 26.4464 31.9798L36.5081 49.3658L24.8864 49.3618ZM10.8267 12.1749V24.3158H18.9349C19.6619 24.3202 20.3812 24.1652 21.042 23.8618C21.7028 23.5585 22.2891 23.1141 22.7598 22.5598C23.8204 21.3708 24.3859 19.821 24.3403 18.2283C24.3856 16.6371 23.82 15.089 22.7598 13.9016C22.289 13.3482 21.7028 12.9045 21.0423 12.6017C20.3818 12.2988 19.663 12.1443 18.9364 12.1488L10.8267 12.1749Z" fill="white"/>
<path d="M48.4234 10.7832C47.8625 11.3521 47.1941 11.8039 46.4571 12.1122C45.7201 12.4205 44.9291 12.5793 44.1302 12.5793C43.3313 12.5793 42.5404 12.4205 41.8034 12.1122C41.0664 11.8039 40.398 11.3521 39.8371 10.7832C39.261 10.2277 38.8047 9.56028 38.496 8.82193C38.1874 8.08357 38.033 7.2899 38.0424 6.48969C38.0331 5.68962 38.1876 4.8961 38.4962 4.15789C38.8048 3.41968 39.2611 2.75237 39.8371 2.19695C40.398 1.62806 41.0664 1.17633 41.8034 0.867992C42.5404 0.559659 43.3313 0.400879 44.1302 0.400879C44.9291 0.400879 45.7201 0.559659 46.4571 0.867992C47.1941 1.17633 47.8625 1.62806 48.4234 2.19695C48.9993 2.75237 49.4556 3.41968 49.7643 4.15789C50.0729 4.8961 50.2273 5.68962 50.2181 6.48969C50.2273 7.28977 50.0729 8.08329 49.7643 8.8215C49.4556 9.55971 48.9993 10.227 48.4234 10.7824V10.7832ZM39.0571 49.3539V15.5541H49.2026V49.3618L39.0571 49.3539Z" fill="white"/>
<path d="M62.6691 36.5168C63.8429 39.6694 66.5485 41.2457 70.786 41.2457C71.9881 41.3088 73.1897 41.1123 74.3092 40.6695C75.4286 40.2267 76.4395 39.5481 77.2733 38.6797L85.3901 43.3423C82.0547 47.9896 77.1532 50.3133 70.6856 50.3133C65.012 50.3133 60.47 48.6363 57.0598 45.2824C55.3775 43.6167 54.056 41.6226 53.1775 39.4242C52.299 37.2258 51.8822 34.8702 51.9531 32.5038C51.8852 30.1494 52.2962 27.8058 53.1609 25.6149C54.0257 23.4241 55.3263 21.4316 56.9839 19.7583C60.3378 16.3538 64.6532 14.6516 69.9301 14.6516C72.22 14.5935 74.4965 15.0182 76.6114 15.8981C78.7263 16.7779 80.6323 18.0932 82.2053 19.7583C83.8282 21.4507 85.0978 23.4494 85.9399 25.6377C86.7821 27.826 87.1801 30.1601 87.1105 32.5038C87.1198 33.8673 86.9821 35.2279 86.6996 36.5618L62.6691 36.5168ZM62.4676 28.9705H77.0085C76.0191 25.3879 73.6322 23.599 69.8479 23.6038C65.935 23.6038 63.4754 25.3843 62.4692 28.9452L62.4676 28.9705Z" fill="white"/>
<path d="M90.1211 49.3626V0H100.267V49.3626H90.1211Z" fill="white"/>
<path d="M113.206 10.7832C112.645 11.3521 111.976 11.8039 111.239 12.1122C110.502 12.4205 109.711 12.5793 108.912 12.5793C108.114 12.5793 107.323 12.4205 106.586 12.1122C105.849 11.8039 105.18 11.3521 104.619 10.7832C104.043 10.2278 103.587 9.5605 103.278 8.82229C102.97 8.08408 102.815 7.29056 102.825 6.49048C102.815 5.69033 102.969 4.8967 103.278 4.15835C103.586 3.42 104.043 2.75253 104.619 2.19695C105.179 1.62806 105.848 1.17633 106.585 0.867992C107.322 0.559659 108.113 0.400879 108.912 0.400879C109.711 0.400879 110.502 0.559659 111.239 0.867992C111.976 1.17633 112.644 1.62806 113.205 2.19695C113.781 2.75237 114.237 3.41968 114.546 4.15789C114.854 4.8961 115.009 5.68962 115 6.48969C115.009 7.28977 114.854 8.08329 114.546 8.8215C114.237 9.55971 113.781 10.227 113.205 10.7824L113.206 10.7832ZM103.839 49.3539V15.5541H113.985V49.3618L103.839 49.3539Z" fill="white"/>
</g>
<defs>
<clipPath id="clip0">
<rect width="115" height="50.3101" fill="white"/>
</clipPath>
</defs>
</svg>
