<?xml version="1.0" encoding="utf-8"?>
<!-- Generator: Adobe Illustrator 20.0.0, SVG Export Plug-In . SVG Version: 6.00 Build 0)  -->
<svg version="1.1" id="Layer_1" xmlns="http://www.w3.org/2000/svg" xmlns:xlink="http://www.w3.org/1999/xlink" x="0px" y="0px"
	 viewBox="0 0 27.6 28.1" style="enable-background:new 0 0 27.6 28.1;" xml:space="preserve">
<style type="text/css">
	.st0{fill:#1E323F;}
	.st1{fill:#A1FFFE;}
	.st2{fill:#9FFF82;}
	.st3{fill:#3A0922;}
	.st4{fill:#EFDE43;}
	.st5{fill:#F7EA92;}
	.st6{fill:#FFFFC8;}
	.st7{fill:#780A46;}
	.st8{fill:#500532;}
</style>
<g>
	<rect x="-1404.1" y="-736.7" class="st0" width="640" height="480"/>
</g>
<g>
	<g>
		<g>
			<rect x="-1374.7" y="-670.5" class="st1" width="27.4" height="6"/>
		</g>
		<g>
			<rect x="-1374.7" y="-659.5" class="st1" width="27.4" height="6"/>
		</g>
		<g>
			<rect x="-1374.7" y="-648.5" class="st1" width="27.4" height="6"/>
		</g>
	</g>
</g>
<g>
	<g>
		<g>
			<rect x="-1539.5" y="-670.5" class="st2" width="28" height="6"/>
		</g>
		<g>
			<rect x="-1539.5" y="-659.5" class="st2" width="28" height="6"/>
		</g>
		<g>
			<rect x="-1539.5" y="-648.5" class="st2" width="28" height="6"/>
		</g>
	</g>
</g>
<g>
	<text transform="matrix(1 0 0 1 -1375.7258 -691.3572)" class="st1" style="font-family:'Kreon-Bold'; font-size:22px;">bOTÕES</text>
</g>
<g>
	<text transform="matrix(1 0 0 1 -1092.7258 -691.3572)" style="fill:#0FDB66; font-family:'Kreon-Bold'; font-size:22px;">bOTÕES</text>
</g>
<g>
	<rect x="-702.1" y="-736.7" class="st3" width="640" height="480"/>
</g>
<g>
	<g>
		<g>
			<rect x="-672.7" y="-670.5" class="st1" width="27.4" height="6"/>
		</g>
		<g>
			<rect x="-672.7" y="-659.5" class="st1" width="27.4" height="6"/>
		</g>
		<g>
			<rect x="-672.7" y="-648.5" class="st1" width="27.4" height="6"/>
		</g>
	</g>
</g>
<g>
	<text transform="matrix(1 0 0 1 -673.7258 -691.3572)" class="st1" style="font-family:'Kreon-Bold'; font-size:22px;">bOTÕES</text>
</g>
<g>
	<text transform="matrix(1 0 0 1 -390.7258 -691.3572)" class="st4" style="font-family:'Kreon-Bold'; font-size:22px;">bOTÕES</text>
</g>
<g>
	<g>
		<path class="st4" d="M-461.7-442.2l-11.1,0.5l18.4,14.9l9.3,1v12.4c-7.3,6.3-26.4,9.1-34.9-2.1c-1.6-2-2.9-4.2-4.1-6.4
			c-3.1-5.8-6.1-11.7-9.1-17.5c-0.7-1.3-1.4-1.8-3.1-1.1v20.3l4.8,1.6v9.6h-41.4v-13.6l9.7-1l-0.1-43.5l-8.8-0.6V-482h72.1v38
			C-460-443-460.7-442.2-461.7-442.2z M-483.8-465.4c-4.2,0-8.2,0-12.2,0c0,5.2,0,10.4,0,15.7c4.2-0.3,8.2-0.7,12.2-1
			C-483.8-455.7-483.8-460.4-483.8-465.4z"/>
		<g>
			<path class="st4" d="M-439.2-474.6v-2.4l11.1-10h3c0,0,10.7,9.7,10.7,9.9c0,0.2,0,2.5,0,2.5l-10.5,10.1h-3.1L-439.2-474.6z"/>
			<path class="st4" d="M-438.4-418c0,4.7,2.2,8,6.2,9c7.7,1.9,15.3,1.4,22.6-1.9c0.5-0.2,1.2-0.8,1.2-1.3c0.1-3.4,0.1-6.8,0.1-10.5
				l-6.3-0.4v-36c-10.7,0-21.5,0-32,0c0,4.1,0,8,0,12l8.2,0.8V-418z"/>
		</g>
		<g>
			<path class="st4" d="M-308.4-474.6v-2.4l11.1-10h3c0,0,10.7,9.7,10.7,9.9c0,0.2,0,2.5,0,2.5l-10.5,10.2h-3.1L-308.4-474.6z"/>
			<path class="st4" d="M-307.7-418c0,4.7,2.2,8,6.2,9c7.7,1.9,15.3,1.4,22.6-1.9c0.5-0.2,1.2-0.8,1.2-1.3c0.1-3.4,0.1-6.8,0.1-10.5
				l-6.3-0.4v-36c-10.7,0-21.5,0-32,0c0,4.1,0,8,0,12l8.2,0.8V-418z"/>
		</g>
		<path class="st4" d="M-345.8-417.9c0,4.7,2.2,8,6.2,9c7.7,1.9,15.3,1.4,22.6-1.9c0.5-0.2,1.2-0.8,1.2-1.3
			c0.1-3.4,0.1-6.8,0.1-10.5l-6.3-0.4v-61.2c-10.7,0-21.5,0-32,0c0,4.1,0,8,0,12l8.2,0.8V-417.9z"/>
		<path class="st4" d="M-353.5-426.6c0,4.5,0,8.6-0.1,12.6c0,0.5-0.8,1.1-1.3,1.5c-3.9,2.6-8.4,3.8-13.1,4.2
			c-6.5,0.7-13.1,0.7-19.3-1.6c-10.4-3.8-15.8-11.5-16.5-22.4c-0.8-12.7,5.3-23.6,18.2-27.1c7.1-1.9,14.2-2,21.1,0.8
			c6.9,2.8,10.5,8.2,11.3,15.4c0,0,0.7,5.8-0.6,11.8c0,0-20.5,0-21,0c0,0-3.5,0.2-5.3-1.5c-0.4-0.4-0.9-0.1-0.9-0.1
			c0.1,2.8,1.7,4.9,3.8,6.1c4.4,2.5,9.2,2.5,14,1.9c2.3-0.4,4.1-1,5.9-1.7L-353.5-426.6z M-373.4-445.4c-3.4-1.1-6.8,0.8-6.8,4.6
			c0,0.6,0,1.5,0,1.5h9.4C-370.8-439.4-370.3-444.4-373.4-445.4z"/>
	</g>
</g>
<g>
	<rect x="-702.1" y="-148.7" class="st3" width="640" height="480"/>
</g>
<g>
	<rect class="st5" width="27.6" height="6"/>
	<rect y="11.1" class="st5" width="27.6" height="6"/>
	<rect y="22.1" class="st5" width="27.6" height="6"/>
</g>
<g>
	
		<rect x="-209.4" y="25.1" transform="matrix(0.7071 -0.7071 0.7071 0.7071 -77.1975 -130.116)" class="st5" width="27.6" height="6"/>
	
		<rect x="-209.4" y="25.1" transform="matrix(-0.7071 -0.7071 0.7071 -0.7071 -353.9063 -90.3375)" class="st5" width="27.6" height="6"/>
</g>
<g>
	<text transform="matrix(1 0 0 1 -673.7258 -103.3572)" class="st1" style="font-family:'Kreon-Bold'; font-size:22px;">bOTÕES</text>
</g>
<g>
	<text transform="matrix(1 0 0 1 -390.7258 -103.3572)" class="st4" style="font-family:'Kreon-Bold'; font-size:22px;">bOTÕES</text>
</g>
<g>
	<g>
		<path class="st4" d="M-58.1-276.5l-11.1,0.5l18.4,14.9l9.3,1v12.4c-7.3,6.3-26.4,9.1-34.9-2.1c-1.6-2-2.9-4.2-4.1-6.4
			c-3.1-5.8-6.1-11.7-9.1-17.5c-0.7-1.3-1.4-1.8-3.1-1.1v20.3l4.8,1.6v9.6h-41.4v-13.6l9.7-1l-0.1-43.5l-8.8-0.6v-14.3h72.1v38
			C-56.4-277.3-57.1-276.5-58.1-276.5z M-80.2-299.7c-4.2,0-8.2,0-12.2,0c0,5.2,0,10.4,0,15.7c4.2-0.3,8.2-0.7,12.2-1
			C-80.2-290-80.2-294.7-80.2-299.7z"/>
		<g>
			<path class="st4" d="M-35.6-308.9v-2.4l11.1-10h3c0,0,10.7,9.7,10.7,9.9c0,0.2,0,2.5,0,2.5l-10.5,10.1h-3.1L-35.6-308.9z"/>
			<path class="st4" d="M-34.8-252.3c0,4.7,2.2,8,6.2,9c7.7,1.9,15.3,1.4,22.6-1.9c0.5-0.2,1.2-0.8,1.2-1.3
				c0.1-3.4,0.1-6.8,0.1-10.5l-6.3-0.4v-36c-10.7,0-21.5,0-32,0c0,4.1,0,8,0,12l8.2,0.8L-34.8-252.3z"/>
		</g>
		<g>
			<path class="st4" d="M95.2-308.9v-2.4l11.1-10h3c0,0,10.7,9.7,10.7,9.9c0,0.2,0,2.5,0,2.5l-10.5,10.2h-3.1L95.2-308.9z"/>
			<path class="st4" d="M95.9-252.3c0,4.7,2.2,8,6.2,9c7.7,1.9,15.3,1.4,22.6-1.9c0.5-0.2,1.2-0.8,1.2-1.3c0.1-3.4,0.1-6.8,0.1-10.5
				l-6.3-0.4v-36c-10.7,0-21.5,0-32,0c0,4.1,0,8,0,12l8.2,0.8V-252.3z"/>
		</g>
		<path class="st4" d="M57.8-252.2c0,4.7,2.2,8,6.2,9c7.7,1.9,15.3,1.4,22.6-1.9c0.5-0.2,1.2-0.8,1.2-1.3c0.1-3.4,0.1-6.8,0.1-10.5
			l-6.3-0.4v-61.2c-10.7,0-21.5,0-32,0c0,4.1,0,8,0,12l8.2,0.8V-252.2z"/>
		<path class="st4" d="M50.1-260.9c0,4.5,0,8.6-0.1,12.6c0,0.5-0.8,1.1-1.3,1.5c-3.9,2.6-8.4,3.8-13.1,4.2
			c-6.5,0.7-13.1,0.7-19.3-1.6C5.9-248,0.5-255.7-0.2-266.6C-1-279.3,5.1-290.2,18-293.7c7.1-1.9,14.2-2,21.1,0.8
			c6.9,2.8,10.5,8.2,11.3,15.4c0,0,0.7,5.8-0.6,11.8c0,0-20.5,0-21,0c0,0-3.5,0.2-5.3-1.5c-0.4-0.4-0.9-0.1-0.9-0.1
			c0.1,2.8,1.7,4.9,3.8,6.1c4.4,2.5,9.2,2.5,14,1.9c2.3-0.4,4.1-1,5.9-1.7L50.1-260.9z M30.2-279.7c-3.4-1.1-6.8,0.8-6.8,4.6
			c0,0.6,0,1.5,0,1.5h9.4C32.8-273.7,33.3-278.7,30.2-279.7z"/>
	</g>
</g>
<rect x="201.4" y="-905.9" class="st6" width="1220.8" height="944.7"/>
<g>
	<g>
		<path class="st7" d="M623.4-477.6l-36.9,1.7l61.3,49.6l31,3.3l0.1,41.4c-24.2,20.8-87.8,30.2-116.1-7.1
			c-5.3-6.6-9.7-13.9-13.7-21.3c-10.4-19.3-20.3-38.8-30.2-58.4c-2.2-4.3-4.7-6-10.2-3.8l0.1,67.5l15.9,5.2l0.1,31.9l-138.3,0.3
			l-0.1-45.2l32.3-3.4l-0.3-144.9l-29.4-2.1l-0.1-47.7h240l0.3,126.9C629.1-480.4,626.6-477.8,623.4-477.6z M549.7-555
			c-14,0-27.2,0.1-40.7,0.1c0,17.5,0.1,34.5,0.1,52.3c13.9-1.1,27.2-2.2,40.7-3.2C549.8-522.6,549.8-538.4,549.7-555z"/>
		<g>
			<path class="st7" d="M698.4-585.6v-8.1l36.9-33.3h9.9c0,0,35.7,32.3,35.7,32.8s0,8.2,0,8.2l-35,33.9h-10.4L698.4-585.6z"/>
			<path class="st7" d="M700.8-397.2c0.1,15.5,7.3,26.6,20.8,29.9c25.7,6.3,51,4.7,75.4-6.3c1.7-0.8,4.1-2.7,4.1-4.2
				c0.3-11.3,0.2-22.7,0.2-35l-21.1-1.2l0-119.8c-35.5,0-71.6,0-106.5,0c0,13.6,0,26.6,0,39.9l27.2,2.6L700.8-397.2z"/>
		</g>
		<g>
			<path class="st7" d="M1133.8-585.6v-8.1l36.9-33.3h9.9c0,0,35.7,32.3,35.7,32.8s0,8.2,0,8.2l-35,33.9h-10.4L1133.8-585.6z"/>
			<path class="st7" d="M1136.2-397.2c0.1,15.5,7.3,26.6,20.8,29.9c25.7,6.3,51,4.7,75.4-6.3c1.7-0.8,4.1-2.7,4.1-4.2
				c0.3-11.3,0.2-22.7,0.2-35l-21.1-1.2l0-119.8c-35.5,0-71.6,0-106.5,0c0,13.6,0,26.6,0,39.9l27.2,2.6L1136.2-397.2z"/>
		</g>
		<path class="st7" d="M1009.3-396.9c0.1,15.5,7.3,26.6,20.8,29.9c25.7,6.3,51,4.7,75.4-6.3c1.7-0.8,4.1-2.7,4.1-4.2
			c0.3-11.3,0.2-22.7,0.2-35l-21.1-1.2l0-203.8c-35.5,0-71.6,0-106.5,0c0,13.6,0,26.6,0,39.9l27.2,2.6L1009.3-396.9z"/>
		<path class="st7" d="M983.5-426c0,15,0.2,28.5-0.2,42.1c0,1.7-2.5,3.8-4.4,5c-13.1,8.8-28.1,12.5-43.5,14.1
			c-21.7,2.3-43.5,2.2-64.4-5.4c-34.8-12.8-52.5-38.3-54.8-74.4c-2.7-42.2,17.7-78.7,60.7-90.3c23.5-6.4,47.3-6.7,70.3,2.7
			c22.9,9.4,35,27.4,37.5,51.2c0,0,2.2,19.2-2.1,39.2c0,0-68.1,0-69.8,0c0,0-11.8,0.5-17.5-4.9c-1.3-1.3-3.1-0.2-3.1-0.2
			c0.3,9.2,5.6,16.3,12.6,20.3c14.6,8.4,30.5,8.2,46.5,6.3c7.7-1.2,13.7-3.4,19.6-5.6L983.5-426z M917.5-488.6
			c-11.2-3.7-22.8,2.7-22.8,15.2c0,2.1,0,5.1,0,5.1H926C926-468.4,927.6-485,917.5-488.6z"/>
	</g>
	<g>
		<path class="st7" d="M832.8-281.3v-1.7l8-7.2h2.1c0,0,7.7,7,7.7,7.1c0,0.1,0,1.8,0,1.8l-7.5,7.3h-2.2L832.8-281.3z"/>
	</g>
	<g>
		<path class="st8" d="M529.7-269.2v-42.4l-4.8-0.5v-6h15.2c8.8,0,15.7,2.3,20.9,7c5.3,4.8,8,11.6,8,20.5c0,8.9-2.6,15.8-7.7,20.8
			c-5.1,4.9-12,7.4-20.9,7.4h-14.8l-0.8-5.7L529.7-269.2z M538.3-269.2c14.8,0,22.2-7.1,22.2-21.4c0-6.5-1.9-11.5-5.8-15.2
			c-3.8-3.5-8.8-5.3-15.1-5.3l-1.9,0.1v41.8L538.3-269.2z"/>
		<path class="st8" d="M604.8-290.8c0,1.7-0.3,3.3-0.8,4.9c-0.6,1.6-1.7,3-3.3,4.3c-3.7,2.9-9.6,4.4-17.9,4.5c0.9,4.2,3,7,6.5,8.4
			c1.2,0.5,2.6,0.7,4,0.7c1.5,0,2.7-0.1,3.7-0.4c1-0.2,1.9-0.5,2.7-0.8c1.5-0.7,2.5-1.3,3.1-1.9l1.8,5.6c-0.6,0.6-1.6,1.2-3,1.8
			c-5.4,2.2-10.6,2.4-15.8,0.6c-4.7-1.7-7.9-4.9-9.7-9.8c-0.9-2.4-1.4-5.3-1.4-8.5c0-3.3,0.5-6.1,1.5-8.6c1-2.5,2.3-4.6,3.9-6.2
			c3.2-3.4,7.3-5.2,12.1-5.2c3.5,0,6.5,0.9,9,2.8C603.5-296.7,604.8-294.1,604.8-290.8z M597.1-290.2c0-1.5-0.4-2.7-1.2-3.7
			c-0.8-1-2-1.5-3.5-1.5c-1.5,0-2.8,0.2-3.9,0.7c-1,0.5-2,1.2-2.9,2.2c-1.9,2.2-3,5.3-3.3,9.4c3.9,0,6.9-0.3,8.8-0.9
			c1.9-0.6,3.4-1.4,4.4-2.4C596.6-287.4,597.1-288.7,597.1-290.2z"/>
		<path class="st8" d="M624.3-301.5c1.7,0,3.3,0.2,4.8,0.7c1.5,0.5,2.7,1.1,3.8,1.9c2,1.4,3.6,3.2,4.8,5.4l-8.2,3.1l-1.9-4.1
			c-1.1-0.5-2.2-0.8-3.5-0.8c-1.2,0-2.4,0.4-3.4,1.1c-1,0.7-1.5,1.8-1.5,3.2c0,1.4,0.7,2.5,2,3.4c1.3,0.9,3.2,1.8,5.6,2.8
			c2.4,1,4.2,1.9,5.4,2.7c1.3,0.9,2.2,1.8,2.9,2.7c1.3,1.8,2,3.7,2,5.9s-0.4,4-1.2,5.4c-0.8,1.4-1.9,2.6-3.1,3.5
			c-2.5,1.7-5.6,2.6-9.2,2.6c-3,0-5.9-0.8-8.8-2.5c-2.6-1.6-4.4-3.6-5.2-6l8.3-3.1l1.9,4.7c1.2,0.5,2.4,0.8,3.4,0.8
			c1,0,1.9-0.1,2.5-0.2s1.2-0.4,1.8-0.7c1.2-0.8,1.9-2,1.9-3.5c0-2-1.2-3.5-3.7-4.6c-2.4-1-4.5-2-6.3-2.9c-1.7-0.9-3.2-1.8-4.4-2.7
			c-2.4-2-3.6-4.7-3.6-8.1c0-3.3,1.3-5.9,4-7.9C617.9-300.6,620.9-301.5,624.3-301.5z"/>
		<path class="st8" d="M655.1-267.9l4.8,1.3v4.4h-16.1l-0.9-4.4l5-1.1v-27.4l-4.4,0.3l-0.8-4.8l9.9-1.8l2.6,2.6V-267.9z M645.3-316
			c0-1.4,0.5-2.6,1.5-3.5s2.1-1.5,3.5-1.5c1.4,0,2.6,0.5,3.5,1.5c1,1,1.5,2.2,1.5,3.5c0,1.3-0.5,2.5-1.5,3.5c-1,1-2.2,1.5-3.5,1.5
			c-1.4,0-2.6-0.5-3.5-1.5C645.7-313.4,645.3-314.6,645.3-316z"/>
		<path class="st8" d="M670.9-274.8c-4.1-2.7-6.2-6.7-6.2-11.9c0-4.3,1.5-7.8,4.4-10.6c2.8-2.8,6.3-4.2,10.4-4.2
			c4.1,0,7.6,1.2,10.5,3.5l8-4l1.7,0.2l0.8,6.7l-7.3,0.9c1.3,2.4,1.9,4.8,1.9,7.3c0,2.5-0.4,4.6-1.3,6.4c-0.9,1.8-2.1,3.3-3.5,4.4
			c-2.8,2.4-6.3,3.5-10.5,3.5c-1.3,0-2.5-0.1-3.5-0.3l-2,3.1l0.3,1.4c0.5,0.1,1.7,0.3,3.5,0.5c1.8,0.2,3.8,0.6,6.1,1.2
			c2.3,0.5,4.3,1.2,5.9,2.1c1.6,0.8,2.9,1.7,3.9,2.7c1.6,1.8,2.4,4,2.4,6.7c0,2.7-0.5,4.9-1.5,6.8c-1,1.8-2.2,3.4-3.8,4.6
			c-3.2,2.4-7,3.6-11.6,3.6c-4.8,0-8.8-1-11.8-3.1c-3.3-2.2-4.9-5.2-4.9-9c0-5.1,2.2-8.7,6.7-10.9c-1.3-1.1-1.9-2.8-1.9-5.1
			S668.8-272.7,670.9-274.8z M690.4-253.5c0-1.7-0.7-2.9-2.2-3.5c-1.5-0.7-3.5-1.3-6.2-1.9c-2.7-0.6-4.7-1.1-6.2-1.5
			c-3.8,1.6-5.7,3.9-5.7,7.1c0,1.8,1,3.3,3,4.4c1.8,1.1,4.2,1.6,7.1,1.6c2.8,0,5.2-0.6,7.2-1.9C689.4-250.3,690.4-251.8,690.4-253.5
			z M679.6-295.4c-2.2,0.1-4,0.9-5.3,2.5c-1.3,1.6-2,3.3-2,5.3c0,2,0.2,3.5,0.6,4.6c0.4,1.1,1,1.9,1.7,2.6c1.3,1.3,3.1,2,5.3,2
			c2.2,0,4-0.7,5.4-2.2c1.5-1.5,2.2-3.5,2.2-6.3s-0.8-4.8-2.3-6.3c-1.5-1.5-3.3-2.2-5.4-2.2H679.6z"/>
		<path class="st8" d="M715.5-298.5c2.6-2,5.8-3,9.7-3c5.6,0,9.3,2,11,6.1c0.6,1.4,0.9,3.1,0.9,5.2v22.2l4.8,1.4v4.4h-16l-1-4.4
			l4.9-1.1V-289c0-2.4-0.6-4.1-1.7-5c-1.1-0.9-2.5-1.3-4.2-1.3c-1.7,0-3.3,0.3-4.8,1c-1.6,0.7-2.7,1.4-3.4,2.1v24.2l4.7,1.3v4.4h-16
			l-1-4.4l5.1-1.1v-27.4l-4.4,0.3l-0.8-4.8c0.7-0.1,1.5-0.3,2.4-0.4c0.9-0.2,1.8-0.4,2.7-0.5c0.9-0.2,1.8-0.3,2.7-0.4
			c0.9-0.1,1.6-0.3,2.1-0.4L715.5-298.5z"/>
		<path class="st8" d="M776.2-290.8c0,1.7-0.3,3.3-0.8,4.9c-0.6,1.6-1.7,3-3.3,4.3c-3.7,2.9-9.6,4.4-17.9,4.5c0.9,4.2,3,7,6.5,8.4
			c1.2,0.5,2.6,0.7,4,0.7c1.5,0,2.7-0.1,3.7-0.4c1-0.2,1.9-0.5,2.7-0.8c1.5-0.7,2.5-1.3,3.1-1.9l1.8,5.6c-0.6,0.6-1.6,1.2-3,1.8
			c-5.4,2.2-10.6,2.4-15.8,0.6c-4.7-1.7-7.9-4.9-9.7-9.8c-0.9-2.4-1.4-5.3-1.4-8.5c0-3.3,0.5-6.1,1.5-8.6c1-2.5,2.3-4.6,3.9-6.2
			c3.2-3.4,7.3-5.2,12.1-5.2c3.5,0,6.5,0.9,9,2.8C775-296.7,776.2-294.1,776.2-290.8z M768.5-290.2c0-1.5-0.4-2.7-1.2-3.7
			c-0.8-1-2-1.5-3.5-1.5c-1.5,0-2.8,0.2-3.9,0.7c-1,0.5-2,1.2-2.9,2.2c-1.9,2.2-3,5.3-3.3,9.4c3.9,0,6.9-0.3,8.8-0.9
			c1.9-0.6,3.4-1.4,4.4-2.4C768-287.4,768.5-288.7,768.5-290.2z"/>
		<path class="st8" d="M793.5-297.7c2.2-2.5,4.9-3.7,8.4-3.7c2.4,0,4.4,0.6,6,1.8c1.6,1.2,2.9,2.6,3.7,4.4l-8,4l-2.5-3.9
			c-1.8,0-3.5,0.8-4.9,2.3c-1.5,1.6-2.3,3.6-2.3,6.2v17.4c0,0.2,0.5,0.4,1.4,0.6l9.1,1.9v4.4h-21.8l-1-4.4l5-1.1V-295h-4.4l-0.7-4.8
			c3-0.5,6.2-1,9.5-1.7L793.5-297.7z"/>
		<path class="st8" d="M906.8-269.2l0.1-11.9l-9.2-1.1l1.5-5.7h15.7v24.5c-3.9,1-8.1,1.5-12.7,1.5c-4.6,0-8.6-0.6-12.1-1.9
			c-3.5-1.2-6.6-3-9.2-5.4c-5.6-5-8.4-11.7-8.4-20.2c0-8.6,2.6-15.5,7.8-20.7c5.2-5.2,12-7.8,20.2-7.8c4,0,8.2,0.6,12.6,1.7
			l1.2,14.6h-5.9l-2.9-9c-1.6-0.3-3.6-0.4-6-0.4s-4.7,0.5-7.1,1.6c-2.4,1.1-4.4,2.6-6,4.4c-3.7,4.1-5.5,9.2-5.5,15.3
			c0,6.3,1.9,11.3,5.8,15.1c3.9,3.8,9.2,5.7,15.7,5.7C904.3-268.9,905.8-269,906.8-269.2z"/>
		<path class="st8" d="M933.8-297.7c2.2-2.5,4.9-3.7,8.4-3.7c2.4,0,4.4,0.6,6,1.8c1.6,1.2,2.9,2.6,3.7,4.4l-8,4l-2.5-3.9
			c-1.8,0-3.5,0.8-4.9,2.3c-1.5,1.6-2.3,3.6-2.3,6.2v17.4c0,0.2,0.5,0.4,1.4,0.6l9.1,1.9v4.4h-21.8l-1-4.4l5-1.1V-295h-4.4l-0.7-4.8
			c3-0.5,6.2-1,9.5-1.7L933.8-297.7z"/>
		<path class="st8" d="M976.2-265.6c-2.4,2.5-5.4,3.7-9,3.7c-3.7,0-6.6-1-8.8-3.1c-2.2-2-3.3-4.5-3.3-7.3c0-2.8,0.6-5.1,1.7-6.8
			c1.2-1.7,2.7-3,4.6-4c3.3-1.7,8.1-2.6,14.4-2.7v-5.7c0-1.1-0.5-2.1-1.5-2.9c-1-0.9-2.5-1.3-4.6-1.3c-2,0-3.5,0.4-4.4,1.3l-1.6,5.2
			l-8.5-2.5c1.2-4.5,4.3-7.5,9.1-9c1.7-0.5,3.7-0.8,5.8-0.8c4.2,0,7.4,1,9.6,3.1c2.2,2.1,3.3,4.8,3.3,8.2v20.6
			c0,1.1,0.4,1.7,1.1,1.7c0.4,0,0.9-0.2,1.7-0.6l1.8,4.3c-1.7,1.4-3.5,2.1-5.6,2.1C978.9-262,977-263.2,976.2-265.6z M964.7-268.9
			c0.6,0.4,1.2,0.7,1.9,0.8c0.6,0.1,1.4,0.2,2.2,0.2s1.6-0.2,2.5-0.5c0.8-0.3,1.5-0.8,2.1-1.3c1.1-0.9,1.9-1.9,2.3-3.2v-6.9
			c-3.5,0-6.2,0.3-7.8,0.8c-1.7,0.6-3,1.3-3.9,2.2c-0.9,0.9-1.4,2-1.4,3.3c0,1.3,0.2,2.3,0.6,3C963.6-269.8,964.1-269.3,964.7-268.9
			z M972-320.5l2.6-0.6l4.8,6.5L966-305l-3.3-3.5L972-320.5z"/>
		<path class="st8" d="M990.5-300.7l0.6-0.8h6v-7.3c0-4.1,1.1-7.2,3.3-9.4c1.9-1.9,4.5-2.9,7.7-2.9c3.7,0,7.1,1.1,10.3,3.4
			c0.6,0.4,1,0.7,1.2,0.9l-5.7,6.7l-5.2-4.8c-0.3-0.1-0.7-0.2-1.1-0.2c-2.2,0-3.2,1.8-3.2,5.3v8.3h9.1c0.3,0,0.4,0.2,0.4,0.5v5.6
			h-9.5v27.4l9.2,1.4v4.4h-20.2l-1-4.4l4.6-1v-27.8h-5.5L990.5-300.7z"/>
		<path class="st8" d="M1031.2-267.9l4.8,1.3v4.4h-16.1l-0.9-4.4l5-1.1v-27.4l-4.4,0.3l-0.8-4.8l9.9-1.8l2.6,2.6V-267.9z
			 M1021.3-316c0-1.4,0.5-2.6,1.5-3.5s2.1-1.5,3.5-1.5c1.4,0,2.6,0.5,3.5,1.5c1,1,1.5,2.2,1.5,3.5c0,1.3-0.5,2.5-1.5,3.5
			c-1,1-2.2,1.5-3.5,1.5c-1.4,0-2.6-0.5-3.5-1.5C1021.8-313.4,1021.3-314.6,1021.3-316z"/>
		<path class="st8" d="M1069.5-265.7c-3.2,2.5-7.1,3.7-11.8,3.7c-4.8,0-8.8-1.6-11.9-4.7c-3.5-3.4-5.3-8.3-5.3-14.4
			c0-7,1.9-12.4,5.6-16c3-2.9,6.9-4.4,11.7-4.4c3.5,0,6.5,0.9,9.1,2.7c2.1,1.5,3.5,3,4.2,4.6l-8,3.8l-2.6-4.7
			c-1.1-0.3-2-0.4-2.7-0.4c-6.5,0-9.8,4.7-9.8,14.2c0,4,1,7.2,2.9,9.6c2,2.4,4.6,3.6,7.8,3.6c1.5,0,3.1-0.3,4.8-0.8
			c1.7-0.6,3-1.4,4.1-2.5L1069.5-265.7z"/>
		<path class="st8" d="M1074.9-282.1c0-3.1,0.5-5.9,1.4-8.3c0.9-2.4,2.2-4.5,3.8-6.1c3.1-3.3,7.1-5,11.9-5c4.9,0,9,1.8,12.3,5.3
			c3.2,3.5,4.8,8.3,4.8,14.3c0,6.2-1.7,11.2-5.2,14.8c-3.2,3.4-7.1,5.2-11.9,5.2c-5,0-9.1-1.8-12.3-5.5
			C1076.5-271.1,1074.9-275.9,1074.9-282.1z M1082.5-281.2c0,4.3,0.9,7.6,2.6,9.8c1.7,2.2,4,3.3,6.8,3.3c2.8,0,5.1-1.1,6.9-3.3
			c1.8-2.2,2.7-5.5,2.7-10c0-4.5-0.8-7.9-2.5-10.4c-1.7-2.5-4-3.7-6.9-3.7c-3.1,0-5.4,1.3-7.1,4
			C1083.3-289,1082.5-285.5,1082.5-281.2z"/>
	</g>
</g>
<g>
	<g>
		<g>
			<path class="st4" d="M-438,128.8l-9.3,0.4l15.4,12.5l7.8,0.8l0,10.4c-6.1,5.2-22,7.6-29.2-1.8c-1.3-1.6-2.4-3.5-3.4-5.4
				c-2.6-4.9-5.1-9.8-7.6-14.7c-0.5-1.1-1.2-1.5-2.6-0.9l0,17l4,1.3l0,8l-34.8,0.1l0-11.4l8.1-0.8l-0.1-36.4l-7.4-0.5l0-12h60.3
				l0.1,31.9C-436.5,128.1-437.2,128.8-438,128.8z M-456.5,109.4c-3.5,0-6.8,0-10.2,0c0,4.4,0,8.7,0,13.1c3.5-0.3,6.8-0.5,10.2-0.8
				C-456.5,117.5-456.5,113.5-456.5,109.4z"/>
			<g>
				<path class="st4" d="M-419.1,101.7v-2l9.3-8.4h2.5c0,0,9,8.1,9,8.3s0,2.1,0,2.1l-8.8,8.5h-2.6L-419.1,101.7z"/>
				<path class="st4" d="M-418.5,149c0,3.9,1.8,6.7,5.2,7.5c6.5,1.6,12.8,1.2,18.9-1.6c0.4-0.2,1-0.7,1-1.1c0.1-2.8,0-5.7,0-8.8
					l-5.3-0.3l0-30.1c-8.9,0-18,0-26.8,0c0,3.4,0,6.7,0,10l6.8,0.7L-418.5,149z"/>
			</g>
			<g>
				<path class="st4" d="M-309.7,101.7v-2l9.3-8.4h2.5c0,0,9,8.1,9,8.3s0,2.1,0,2.1l-8.8,8.5h-2.6L-309.7,101.7z"/>
				<path class="st4" d="M-309.1,149c0,3.9,1.8,6.7,5.2,7.5c6.5,1.6,12.8,1.2,18.9-1.6c0.4-0.2,1-0.7,1-1.1c0.1-2.8,0-5.7,0-8.8
					l-5.3-0.3l0-30.1c-8.9,0-18,0-26.8,0c0,3.4,0,6.7,0,10l6.8,0.7L-309.1,149z"/>
			</g>
			<path class="st4" d="M-341,149.1c0,3.9,1.8,6.7,5.2,7.5c6.5,1.6,12.8,1.2,18.9-1.6c0.4-0.2,1-0.7,1-1.1c0.1-2.8,0-5.7,0-8.8
				l-5.3-0.3l0-51.2c-8.9,0-18,0-26.8,0c0,3.4,0,6.7,0,10l6.8,0.7L-341,149.1z"/>
			<path class="st4" d="M-347.5,141.8c0,3.8,0,7.2-0.1,10.6c0,0.4-0.6,0.9-1.1,1.3c-3.3,2.2-7.1,3.1-10.9,3.6
				c-5.5,0.6-10.9,0.6-16.2-1.4c-8.7-3.2-13.2-9.6-13.8-18.7c-0.7-10.6,4.5-19.8,15.2-22.7c5.9-1.6,11.9-1.7,17.7,0.7
				c5.8,2.4,8.8,6.9,9.4,12.9c0,0,0.5,4.8-0.5,9.9c0,0-17.1,0-17.5,0c0,0-3,0.1-4.4-1.2c-0.3-0.3-0.8-0.1-0.8-0.1
				c0.1,2.3,1.4,4.1,3.2,5.1c3.7,2.1,7.7,2.1,11.7,1.6c1.9-0.3,3.4-0.8,4.9-1.4L-347.5,141.8z M-364.1,126.1
				c-2.8-0.9-5.7,0.7-5.7,3.8c0,0.5,0,1.3,0,1.3h7.9C-362,131.1-361.6,127-364.1,126.1z"/>
		</g>
	</g>
	<g>
		<path class="st4" d="M-385.4,178.1v-0.4l2-1.8h0.5c0,0,1.9,1.8,1.9,1.8c0,0,0,0.4,0,0.4l-1.9,1.8h-0.6L-385.4,178.1z"/>
	</g>
	<g>
		<path class="st5" d="M-461.5,181.2v-10.7l-1.2-0.1v-1.5h3.8c2.2,0,4,0.6,5.2,1.8c1.3,1.2,2,2.9,2,5.1s-0.6,4-1.9,5.2
			c-1.3,1.2-3,1.9-5.2,1.9h-3.7l-0.2-1.4L-461.5,181.2z M-459.4,181.2c3.7,0,5.6-1.8,5.6-5.4c0-1.6-0.5-2.9-1.5-3.8
			c-0.9-0.9-2.2-1.3-3.8-1.3l-0.5,0v10.5L-459.4,181.2z"/>
		<path class="st5" d="M-442.7,175.7c0,0.4-0.1,0.8-0.2,1.2c-0.1,0.4-0.4,0.8-0.8,1.1c-0.9,0.7-2.4,1.1-4.5,1.1
			c0.2,1.1,0.8,1.8,1.6,2.1c0.3,0.1,0.6,0.2,1,0.2c0.4,0,0.7,0,0.9-0.1c0.3-0.1,0.5-0.1,0.7-0.2c0.4-0.2,0.6-0.3,0.8-0.5l0.4,1.4
			c-0.1,0.1-0.4,0.3-0.7,0.4c-1.4,0.6-2.7,0.6-4,0.1c-1.2-0.4-2-1.2-2.4-2.5c-0.2-0.6-0.3-1.3-0.3-2.1c0-0.8,0.1-1.5,0.4-2.2
			c0.2-0.6,0.6-1.2,1-1.6c0.8-0.9,1.8-1.3,3-1.3c0.9,0,1.6,0.2,2.2,0.7C-443,174.3-442.7,174.9-442.7,175.7z M-444.6,175.9
			c0-0.4-0.1-0.7-0.3-0.9c-0.2-0.2-0.5-0.4-0.9-0.4c-0.4,0-0.7,0.1-1,0.2c-0.3,0.1-0.5,0.3-0.7,0.5c-0.5,0.6-0.7,1.3-0.8,2.4
			c1,0,1.7-0.1,2.2-0.2c0.5-0.2,0.9-0.4,1.1-0.6C-444.7,176.6-444.6,176.3-444.6,175.9z"/>
		<path class="st5" d="M-437.8,173.1c0.4,0,0.8,0.1,1.2,0.2c0.4,0.1,0.7,0.3,1,0.5c0.5,0.4,0.9,0.8,1.2,1.4l-2.1,0.8l-0.5-1
			c-0.3-0.1-0.6-0.2-0.9-0.2c-0.3,0-0.6,0.1-0.9,0.3c-0.3,0.2-0.4,0.4-0.4,0.8c0,0.4,0.2,0.6,0.5,0.9c0.3,0.2,0.8,0.5,1.4,0.7
			c0.6,0.2,1,0.5,1.4,0.7c0.3,0.2,0.6,0.4,0.7,0.7c0.3,0.4,0.5,0.9,0.5,1.5s-0.1,1-0.3,1.3c-0.2,0.4-0.5,0.6-0.8,0.9
			c-0.6,0.4-1.4,0.6-2.3,0.6c-0.8,0-1.5-0.2-2.2-0.6c-0.7-0.4-1.1-0.9-1.3-1.5l2.1-0.8l0.5,1.2c0.3,0.1,0.6,0.2,0.9,0.2
			c0.3,0,0.5,0,0.6-0.1c0.2,0,0.3-0.1,0.4-0.2c0.3-0.2,0.5-0.5,0.5-0.9c0-0.5-0.3-0.9-0.9-1.1c-0.6-0.3-1.1-0.5-1.6-0.7
			c-0.4-0.2-0.8-0.4-1.1-0.7c-0.6-0.5-0.9-1.2-0.9-2c0-0.8,0.3-1.5,1-2C-439.4,173.3-438.6,173.1-437.8,173.1z"/>
		<path class="st5" d="M-430,181.5l1.2,0.3v1.1h-4.1l-0.2-1.1l1.3-0.3v-6.9l-1.1,0.1l-0.2-1.2l2.5-0.4l0.6,0.6V181.5z M-432.5,169.4
			c0-0.4,0.1-0.6,0.4-0.9c0.2-0.2,0.5-0.4,0.9-0.4c0.4,0,0.6,0.1,0.9,0.4c0.2,0.3,0.4,0.6,0.4,0.9c0,0.3-0.1,0.6-0.4,0.9
			c-0.2,0.2-0.5,0.4-0.9,0.4c-0.4,0-0.6-0.1-0.9-0.4C-432.4,170.1-432.5,169.8-432.5,169.4z"/>
		<path class="st5" d="M-426.1,179.8c-1-0.7-1.6-1.7-1.6-3c0-1.1,0.4-2,1.1-2.7c0.7-0.7,1.6-1.1,2.6-1.1c1,0,1.9,0.3,2.6,0.9l2-1
			l0.4,0.1l0.2,1.7l-1.8,0.2c0.3,0.6,0.5,1.2,0.5,1.8c0,0.6-0.1,1.2-0.3,1.6c-0.2,0.4-0.5,0.8-0.9,1.1c-0.7,0.6-1.6,0.9-2.6,0.9
			c-0.3,0-0.6,0-0.9-0.1l-0.5,0.8l0.1,0.3c0.1,0,0.4,0.1,0.9,0.1c0.4,0.1,1,0.2,1.5,0.3c0.6,0.1,1.1,0.3,1.5,0.5
			c0.4,0.2,0.7,0.4,1,0.7c0.4,0.4,0.6,1,0.6,1.7c0,0.7-0.1,1.2-0.4,1.7c-0.2,0.5-0.6,0.8-1,1.2c-0.8,0.6-1.8,0.9-2.9,0.9
			c-1.2,0-2.2-0.3-3-0.8c-0.8-0.6-1.2-1.3-1.2-2.2c0-1.3,0.6-2.2,1.7-2.7c-0.3-0.3-0.5-0.7-0.5-1.3S-426.6,180.3-426.1,179.8z
			 M-421.2,185.1c0-0.4-0.2-0.7-0.6-0.9c-0.4-0.2-0.9-0.3-1.6-0.5c-0.7-0.1-1.2-0.3-1.5-0.4c-1,0.4-1.4,1-1.4,1.8
			c0,0.4,0.2,0.8,0.7,1.1c0.5,0.3,1.1,0.4,1.8,0.4c0.7,0,1.3-0.2,1.8-0.5C-421.4,185.9-421.2,185.6-421.2,185.1z M-423.9,174.6
			c-0.6,0-1,0.2-1.3,0.6c-0.3,0.4-0.5,0.8-0.5,1.3c0,0.5,0.1,0.9,0.2,1.1c0.1,0.3,0.2,0.5,0.4,0.6c0.3,0.3,0.8,0.5,1.3,0.5
			c0.5,0,1-0.2,1.4-0.5c0.4-0.4,0.5-0.9,0.5-1.6c0-0.7-0.2-1.2-0.6-1.6C-422.8,174.8-423.3,174.6-423.9,174.6L-423.9,174.6z"/>
		<path class="st5" d="M-414.9,173.8c0.6-0.5,1.5-0.7,2.4-0.7c1.4,0,2.3,0.5,2.8,1.5c0.1,0.4,0.2,0.8,0.2,1.3v5.6l1.2,0.3v1.1h-4
			l-0.2-1.1l1.2-0.3v-5.3c0-0.6-0.1-1-0.4-1.2c-0.3-0.2-0.6-0.3-1.1-0.3c-0.4,0-0.8,0.1-1.2,0.3c-0.4,0.2-0.7,0.4-0.9,0.5v6.1
			l1.2,0.3v1.1h-4l-0.2-1.1l1.3-0.3v-6.9l-1.1,0.1l-0.2-1.2c0.2,0,0.4-0.1,0.6-0.1c0.2,0,0.5-0.1,0.7-0.1c0.2,0,0.5-0.1,0.7-0.1
			c0.2,0,0.4-0.1,0.5-0.1L-414.9,173.8z"/>
		<path class="st5" d="M-399.6,175.7c0,0.4-0.1,0.8-0.2,1.2c-0.1,0.4-0.4,0.8-0.8,1.1c-0.9,0.7-2.4,1.1-4.5,1.1
			c0.2,1.1,0.8,1.8,1.6,2.1c0.3,0.1,0.6,0.2,1,0.2c0.4,0,0.7,0,0.9-0.1c0.3-0.1,0.5-0.1,0.7-0.2c0.4-0.2,0.6-0.3,0.8-0.5l0.4,1.4
			c-0.1,0.1-0.4,0.3-0.7,0.4c-1.4,0.6-2.7,0.6-4,0.1c-1.2-0.4-2-1.2-2.4-2.5c-0.2-0.6-0.3-1.3-0.3-2.1c0-0.8,0.1-1.5,0.4-2.2
			c0.2-0.6,0.6-1.2,1-1.6c0.8-0.9,1.8-1.3,3-1.3c0.9,0,1.6,0.2,2.2,0.7C-399.9,174.3-399.6,174.9-399.6,175.7z M-401.5,175.9
			c0-0.4-0.1-0.7-0.3-0.9c-0.2-0.2-0.5-0.4-0.9-0.4c-0.4,0-0.7,0.1-1,0.2c-0.3,0.1-0.5,0.3-0.7,0.5c-0.5,0.6-0.7,1.3-0.8,2.4
			c1,0,1.7-0.1,2.2-0.2c0.5-0.2,0.9-0.4,1.1-0.6C-401.6,176.6-401.5,176.3-401.5,175.9z"/>
		<path class="st5" d="M-395.3,174c0.5-0.6,1.2-0.9,2.1-0.9c0.6,0,1.1,0.1,1.5,0.4c0.4,0.3,0.7,0.7,0.9,1.1l-2,1l-0.6-1
			c-0.5,0-0.9,0.2-1.2,0.6c-0.4,0.4-0.6,0.9-0.6,1.6v4.4c0,0.1,0.1,0.1,0.3,0.1l2.3,0.5v1.1h-5.5l-0.2-1.1l1.3-0.3v-6.8h-1.1
			l-0.2-1.2c0.8-0.1,1.6-0.3,2.4-0.4L-395.3,174z"/>
		<path class="st5" d="M-366.8,181.2l0-3l-2.3-0.3l0.4-1.4h4v6.2c-1,0.2-2,0.4-3.2,0.4c-1.1,0-2.2-0.2-3-0.5
			c-0.9-0.3-1.7-0.8-2.3-1.4c-1.4-1.3-2.1-3-2.1-5.1c0-2.2,0.7-3.9,2-5.2c1.3-1.3,3-2,5.1-2c1,0,2.1,0.1,3.2,0.4l0.3,3.7h-1.5
			l-0.7-2.2c-0.4-0.1-0.9-0.1-1.5-0.1c-0.6,0-1.2,0.1-1.8,0.4c-0.6,0.3-1.1,0.6-1.5,1.1c-0.9,1-1.4,2.3-1.4,3.8
			c0,1.6,0.5,2.8,1.5,3.8c1,1,2.3,1.4,4,1.4C-367.4,181.3-367,181.2-366.8,181.2z"/>
		<path class="st5" d="M-360,174c0.5-0.6,1.2-0.9,2.1-0.9c0.6,0,1.1,0.1,1.5,0.4c0.4,0.3,0.7,0.7,0.9,1.1l-2,1l-0.6-1
			c-0.5,0-0.9,0.2-1.2,0.6c-0.4,0.4-0.6,0.9-0.6,1.6v4.4c0,0.1,0.1,0.1,0.3,0.1l2.3,0.5v1.1h-5.5l-0.2-1.1l1.3-0.3v-6.8h-1.1
			l-0.2-1.2c0.8-0.1,1.6-0.3,2.4-0.4L-360,174z"/>
		<path class="st5" d="M-349.4,182.1c-0.6,0.6-1.4,0.9-2.3,0.9c-0.9,0-1.7-0.3-2.2-0.8c-0.6-0.5-0.8-1.1-0.8-1.8
			c0-0.7,0.1-1.3,0.4-1.7c0.3-0.4,0.7-0.7,1.1-1c0.8-0.4,2-0.6,3.6-0.7v-1.4c0-0.3-0.1-0.5-0.4-0.7c-0.3-0.2-0.6-0.3-1.2-0.3
			c-0.5,0-0.9,0.1-1.1,0.3l-0.4,1.3l-2.1-0.6c0.3-1.1,1.1-1.9,2.3-2.3c0.4-0.1,0.9-0.2,1.5-0.2c1.1,0,1.9,0.3,2.4,0.8
			c0.6,0.5,0.8,1.2,0.8,2.1v5.2c0,0.3,0.1,0.4,0.3,0.4c0.1,0,0.2,0,0.4-0.1l0.4,1.1c-0.4,0.4-0.9,0.5-1.4,0.5
			C-348.7,183-349.2,182.7-349.4,182.1z M-352.2,181.3c0.1,0.1,0.3,0.2,0.5,0.2c0.2,0,0.3,0.1,0.5,0.1c0.2,0,0.4,0,0.6-0.1
			c0.2-0.1,0.4-0.2,0.5-0.3c0.3-0.2,0.5-0.5,0.6-0.8v-1.7c-0.9,0-1.5,0.1-2,0.2c-0.4,0.1-0.7,0.3-1,0.5c-0.2,0.2-0.3,0.5-0.3,0.8
			c0,0.3,0.1,0.6,0.2,0.7C-352.5,181-352.4,181.2-352.2,181.3z M-350.4,168.3l0.6-0.2l1.2,1.6l-3.4,2.5l-0.8-0.9L-350.4,168.3z"/>
		<path class="st5" d="M-345.7,173.3l0.1-0.2h1.5v-1.8c0-1,0.3-1.8,0.8-2.4c0.5-0.5,1.1-0.7,1.9-0.7c0.9,0,1.8,0.3,2.6,0.9
			c0.2,0.1,0.3,0.2,0.3,0.2l-1.4,1.7l-1.3-1.2c-0.1,0-0.2,0-0.3,0c-0.5,0-0.8,0.4-0.8,1.3v2.1h2.3c0.1,0,0.1,0,0.1,0.1v1.4h-2.4v6.9
			l2.3,0.3v1.1h-5.1l-0.2-1.1l1.2-0.2v-7h-1.4L-345.7,173.3z"/>
		<path class="st5" d="M-335.5,181.5l1.2,0.3v1.1h-4.1l-0.2-1.1l1.3-0.3v-6.9l-1.1,0.1l-0.2-1.2l2.5-0.4l0.6,0.6V181.5z M-338,169.4
			c0-0.4,0.1-0.6,0.4-0.9c0.2-0.2,0.5-0.4,0.9-0.4c0.4,0,0.6,0.1,0.9,0.4c0.2,0.3,0.4,0.6,0.4,0.9c0,0.3-0.1,0.6-0.4,0.9
			c-0.2,0.2-0.5,0.4-0.9,0.4c-0.4,0-0.6-0.1-0.9-0.4C-337.9,170.1-338,169.8-338,169.4z"/>
		<path class="st5" d="M-325.9,182.1c-0.8,0.6-1.8,0.9-3,0.9c-1.2,0-2.2-0.4-3-1.2c-0.9-0.9-1.3-2.1-1.3-3.6c0-1.8,0.5-3.1,1.4-4
			c0.8-0.7,1.7-1.1,2.9-1.1c0.9,0,1.6,0.2,2.3,0.7c0.5,0.4,0.9,0.7,1.1,1.2l-2,1l-0.6-1.2c-0.3-0.1-0.5-0.1-0.7-0.1
			c-1.6,0-2.5,1.2-2.5,3.6c0,1,0.2,1.8,0.7,2.4c0.5,0.6,1.1,0.9,2,0.9c0.4,0,0.8-0.1,1.2-0.2c0.4-0.1,0.8-0.3,1-0.6L-325.9,182.1z"
			/>
		<path class="st5" d="M-324.6,178c0-0.8,0.1-1.5,0.3-2.1c0.2-0.6,0.5-1.1,1-1.5c0.8-0.8,1.8-1.3,3-1.3c1.2,0,2.3,0.4,3.1,1.3
			c0.8,0.9,1.2,2.1,1.2,3.6c0,1.6-0.4,2.8-1.3,3.7c-0.8,0.9-1.8,1.3-3,1.3c-1.3,0-2.3-0.5-3.1-1.4
			C-324.2,180.7-324.6,179.5-324.6,178z M-322.6,178.2c0,1.1,0.2,1.9,0.6,2.5c0.4,0.6,1,0.8,1.7,0.8c0.7,0,1.3-0.3,1.7-0.8
			c0.4-0.5,0.7-1.4,0.7-2.5c0-1.1-0.2-2-0.6-2.6c-0.4-0.6-1-0.9-1.7-0.9c-0.8,0-1.4,0.3-1.8,1C-322.4,176.2-322.6,177.1-322.6,178.2
			z"/>
	</g>
</g>
<g>
	<g>
		<g>
			<path class="st4" d="M62.6,139.6L55,140l12.6,10.2l6.4,0.7l0,8.5c-5,4.3-18.1,6.2-23.9-1.5c-1.1-1.3-2-2.9-2.8-4.4
				c-2.1-4-4.2-8-6.2-12c-0.4-0.9-1-1.2-2.1-0.8l0,13.9l3.3,1.1l0,6.6l-28.5,0.1l0-9.3l6.7-0.7l-0.1-29.8l-6.1-0.4l0-9.8h49.4
				l0.1,26.1C63.7,139,63.2,139.6,62.6,139.6z M47.4,123.7c-2.9,0-5.6,0-8.4,0c0,3.6,0,7.1,0,10.8c2.9-0.2,5.6-0.4,8.4-0.7
				C47.4,130.4,47.4,127.1,47.4,123.7z"/>
			<g>
				<path class="st4" d="M78,117.4v-1.7l7.6-6.8h2c0,0,7.3,6.6,7.3,6.8s0,1.7,0,1.7l-7.2,7h-2.1L78,117.4z"/>
				<path class="st4" d="M78.5,156.2c0,3.2,1.5,5.5,4.3,6.2c5.3,1.3,10.5,1,15.5-1.3c0.4-0.2,0.8-0.6,0.9-0.9c0.1-2.3,0-4.7,0-7.2
					l-4.3-0.3l0-24.7c-7.3,0-14.7,0-21.9,0c0,2.8,0,5.5,0,8.2l5.6,0.5L78.5,156.2z"/>
			</g>
			<g>
				<path class="st4" d="M167.6,117.4v-1.7l7.6-6.8h2c0,0,7.3,6.6,7.3,6.8s0,1.7,0,1.7l-7.2,7h-2.1L167.6,117.4z"/>
				<path class="st4" d="M168.1,156.2c0,3.2,1.5,5.5,4.3,6.2c5.3,1.3,10.5,1,15.5-1.3c0.4-0.2,0.8-0.6,0.9-0.9c0.1-2.3,0-4.7,0-7.2
					l-4.3-0.3l0-24.7c-7.3,0-14.7,0-21.9,0c0,2.8,0,5.5,0,8.2l5.6,0.5L168.1,156.2z"/>
			</g>
			<path class="st4" d="M142,156.2c0,3.2,1.5,5.5,4.3,6.2c5.3,1.3,10.5,1,15.5-1.3c0.4-0.2,0.8-0.6,0.9-0.9c0.1-2.3,0-4.7,0-7.2
				l-4.3-0.3l0-41.9c-7.3,0-14.7,0-21.9,0c0,2.8,0,5.5,0,8.2l5.6,0.5L142,156.2z"/>
			<path class="st4" d="M136.7,150.2c0,3.1,0,5.9,0,8.7c0,0.4-0.5,0.8-0.9,1c-2.7,1.8-5.8,2.6-9,2.9c-4.5,0.5-9,0.5-13.2-1.1
				c-7.2-2.6-10.8-7.9-11.3-15.3c-0.5-8.7,3.7-16.2,12.5-18.6c4.8-1.3,9.7-1.4,14.5,0.6c4.7,1.9,7.2,5.6,7.7,10.5
				c0,0,0.5,3.9-0.4,8.1c0,0-14,0-14.4,0c0,0-2.4,0.1-3.6-1c-0.3-0.3-0.6,0-0.6,0c0.1,1.9,1.2,3.3,2.6,4.2c3,1.7,6.3,1.7,9.6,1.3
				c1.6-0.2,2.8-0.7,4-1.2L136.7,150.2z M123.1,137.4c-2.3-0.8-4.7,0.6-4.7,3.1c0,0.4,0,1,0,1h6.4
				C124.8,141.5,125.2,138.1,123.1,137.4z"/>
		</g>
	</g>
	<g>
		<path class="st4" d="M105.7,180v-0.4l1.6-1.5h0.4c0,0,1.6,1.4,1.6,1.5s0,0.4,0,0.4l-1.6,1.5h-0.5L105.7,180z"/>
	</g>
	<g>
		<path class="st5" d="M43.3,182.5v-8.7l-1-0.1v-1.2h3.1c1.8,0,3.2,0.5,4.3,1.4c1.1,1,1.6,2.4,1.6,4.2s-0.5,3.3-1.6,4.3
			c-1,1-2.5,1.5-4.3,1.5h-3.1l-0.2-1.2L43.3,182.5z M45.1,182.5c3,0,4.6-1.5,4.6-4.4c0-1.3-0.4-2.4-1.2-3.1
			c-0.8-0.7-1.8-1.1-3.1-1.1l-0.4,0v8.6L45.1,182.5z"/>
		<path class="st5" d="M58.7,178c0,0.3-0.1,0.7-0.2,1c-0.1,0.3-0.3,0.6-0.7,0.9c-0.8,0.6-2,0.9-3.7,0.9c0.2,0.9,0.6,1.4,1.3,1.7
			c0.3,0.1,0.5,0.1,0.8,0.1c0.3,0,0.6,0,0.8-0.1c0.2,0,0.4-0.1,0.5-0.2c0.3-0.1,0.5-0.3,0.6-0.4l0.4,1.2c-0.1,0.1-0.3,0.2-0.6,0.4
			c-1.1,0.5-2.2,0.5-3.3,0.1c-1-0.3-1.6-1-2-2c-0.2-0.5-0.3-1.1-0.3-1.8c0-0.7,0.1-1.3,0.3-1.8c0.2-0.5,0.5-0.9,0.8-1.3
			c0.7-0.7,1.5-1.1,2.5-1.1c0.7,0,1.3,0.2,1.8,0.6C58.5,176.8,58.7,177.4,58.7,178z M57.2,178.2c0-0.3-0.1-0.6-0.2-0.8
			c-0.2-0.2-0.4-0.3-0.7-0.3c-0.3,0-0.6,0-0.8,0.1c-0.2,0.1-0.4,0.2-0.6,0.4c-0.4,0.5-0.6,1.1-0.7,1.9c0.8,0,1.4-0.1,1.8-0.2
			c0.4-0.1,0.7-0.3,0.9-0.5C57.1,178.7,57.2,178.5,57.2,178.2z"/>
		<path class="st5" d="M62.8,175.9c0.4,0,0.7,0,1,0.1c0.3,0.1,0.6,0.2,0.8,0.4c0.4,0.3,0.7,0.7,1,1.1l-1.7,0.6l-0.4-0.8
			c-0.2-0.1-0.5-0.2-0.7-0.2c-0.3,0-0.5,0.1-0.7,0.2c-0.2,0.1-0.3,0.4-0.3,0.7c0,0.3,0.1,0.5,0.4,0.7c0.3,0.2,0.7,0.4,1.1,0.6
			c0.5,0.2,0.9,0.4,1.1,0.6c0.3,0.2,0.5,0.4,0.6,0.6c0.3,0.4,0.4,0.8,0.4,1.2c0,0.4-0.1,0.8-0.2,1.1c-0.2,0.3-0.4,0.5-0.6,0.7
			c-0.5,0.4-1.2,0.5-1.9,0.5c-0.6,0-1.2-0.2-1.8-0.5c-0.5-0.3-0.9-0.7-1.1-1.2l1.7-0.6l0.4,1c0.3,0.1,0.5,0.2,0.7,0.2
			c0.2,0,0.4,0,0.5,0c0.1,0,0.3-0.1,0.4-0.1c0.3-0.2,0.4-0.4,0.4-0.7c0-0.4-0.3-0.7-0.8-0.9c-0.5-0.2-0.9-0.4-1.3-0.6
			c-0.4-0.2-0.7-0.4-0.9-0.6c-0.5-0.4-0.7-1-0.7-1.7c0-0.7,0.3-1.2,0.8-1.6C61.4,176,62,175.9,62.8,175.9z"/>
		<path class="st5" d="M69.1,182.8l1,0.3v0.9h-3.3l-0.2-0.9l1-0.2v-5.6l-0.9,0.1l-0.2-1l2-0.4l0.5,0.5V182.8z M67.1,172.9
			c0-0.3,0.1-0.5,0.3-0.7s0.4-0.3,0.7-0.3c0.3,0,0.5,0.1,0.7,0.3c0.2,0.2,0.3,0.5,0.3,0.7c0,0.3-0.1,0.5-0.3,0.7
			c-0.2,0.2-0.4,0.3-0.7,0.3c-0.3,0-0.5-0.1-0.7-0.3C67.2,173.4,67.1,173.2,67.1,172.9z"/>
		<path class="st5" d="M72.3,181.4c-0.9-0.6-1.3-1.4-1.3-2.4c0-0.9,0.3-1.6,0.9-2.2c0.6-0.6,1.3-0.9,2.1-0.9s1.6,0.2,2.2,0.7
			l1.6-0.8l0.3,0l0.2,1.4l-1.5,0.2c0.3,0.5,0.4,1,0.4,1.5c0,0.5-0.1,1-0.3,1.3c-0.2,0.4-0.4,0.7-0.7,0.9c-0.6,0.5-1.3,0.7-2.2,0.7
			c-0.3,0-0.5,0-0.7-0.1l-0.4,0.6l0.1,0.3c0.1,0,0.3,0.1,0.7,0.1c0.4,0,0.8,0.1,1.3,0.2c0.5,0.1,0.9,0.3,1.2,0.4
			c0.3,0.2,0.6,0.4,0.8,0.6c0.3,0.4,0.5,0.8,0.5,1.4c0,0.6-0.1,1-0.3,1.4c-0.2,0.4-0.5,0.7-0.8,0.9c-0.7,0.5-1.4,0.7-2.4,0.7
			c-1,0-1.8-0.2-2.4-0.6c-0.7-0.5-1-1.1-1-1.8c0-1,0.5-1.8,1.4-2.2c-0.3-0.2-0.4-0.6-0.4-1.1C71.7,182.2,71.9,181.8,72.3,181.4z
			 M76.4,185.7c0-0.3-0.2-0.6-0.5-0.7c-0.3-0.1-0.7-0.3-1.3-0.4c-0.5-0.1-1-0.2-1.3-0.3c-0.8,0.3-1.2,0.8-1.2,1.5
			c0,0.4,0.2,0.7,0.6,0.9c0.4,0.2,0.9,0.3,1.5,0.3c0.6,0,1.1-0.1,1.5-0.4C76.1,186.4,76.4,186.1,76.4,185.7z M74.1,177.1
			c-0.5,0-0.8,0.2-1.1,0.5c-0.3,0.3-0.4,0.7-0.4,1.1c0,0.4,0,0.7,0.1,0.9c0.1,0.2,0.2,0.4,0.3,0.5c0.3,0.3,0.6,0.4,1.1,0.4
			c0.4,0,0.8-0.1,1.1-0.4c0.3-0.3,0.4-0.7,0.4-1.3c0-0.6-0.2-1-0.5-1.3C75,177.3,74.6,177.1,74.1,177.1L74.1,177.1z"/>
		<path class="st5" d="M81.5,176.5c0.5-0.4,1.2-0.6,2-0.6c1.2,0,1.9,0.4,2.3,1.3c0.1,0.3,0.2,0.6,0.2,1.1v4.6l1,0.3v0.9h-3.3
			l-0.2-0.9l1-0.2v-4.4c0-0.5-0.1-0.8-0.3-1c-0.2-0.2-0.5-0.3-0.9-0.3c-0.3,0-0.7,0.1-1,0.2c-0.3,0.1-0.6,0.3-0.7,0.4v5l1,0.3v0.9
			h-3.3L79,183l1-0.2v-5.6l-0.9,0.1l-0.2-1c0.1,0,0.3-0.1,0.5-0.1c0.2,0,0.4-0.1,0.6-0.1c0.2,0,0.4-0.1,0.5-0.1
			c0.2,0,0.3-0.1,0.4-0.1L81.5,176.5z"/>
		<path class="st5" d="M94,178c0,0.3-0.1,0.7-0.2,1c-0.1,0.3-0.3,0.6-0.7,0.9c-0.8,0.6-2,0.9-3.7,0.9c0.2,0.9,0.6,1.4,1.3,1.7
			c0.3,0.1,0.5,0.1,0.8,0.1c0.3,0,0.6,0,0.8-0.1c0.2,0,0.4-0.1,0.5-0.2c0.3-0.1,0.5-0.3,0.6-0.4l0.4,1.2c-0.1,0.1-0.3,0.2-0.6,0.4
			c-1.1,0.5-2.2,0.5-3.3,0.1c-1-0.3-1.6-1-2-2c-0.2-0.5-0.3-1.1-0.3-1.8c0-0.7,0.1-1.3,0.3-1.8c0.2-0.5,0.5-0.9,0.8-1.3
			c0.7-0.7,1.5-1.1,2.5-1.1c0.7,0,1.3,0.2,1.8,0.6C93.8,176.8,94,177.4,94,178z M92.4,178.2c0-0.3-0.1-0.6-0.2-0.8
			c-0.2-0.2-0.4-0.3-0.7-0.3c-0.3,0-0.6,0-0.8,0.1c-0.2,0.1-0.4,0.2-0.6,0.4c-0.4,0.5-0.6,1.1-0.7,1.9c0.8,0,1.4-0.1,1.8-0.2
			c0.4-0.1,0.7-0.3,0.9-0.5C92.3,178.7,92.4,178.5,92.4,178.2z"/>
		<path class="st5" d="M97.6,176.6c0.4-0.5,1-0.8,1.7-0.8c0.5,0,0.9,0.1,1.2,0.4c0.3,0.2,0.6,0.5,0.8,0.9l-1.6,0.8l-0.5-0.8
			c-0.4,0-0.7,0.2-1,0.5c-0.3,0.3-0.5,0.7-0.5,1.3v3.6c0,0,0.1,0.1,0.3,0.1l1.9,0.4v0.9h-4.5l-0.2-0.9l1-0.2v-5.6h-0.9l-0.1-1
			c0.6-0.1,1.3-0.2,2-0.3L97.6,176.6z"/>
		<path class="st5" d="M120.9,182.5l0-2.4l-1.9-0.2l0.3-1.2h3.2v5c-0.8,0.2-1.7,0.3-2.6,0.3c-0.9,0-1.8-0.1-2.5-0.4
			c-0.7-0.3-1.4-0.6-1.9-1.1c-1.2-1-1.7-2.4-1.7-4.2c0-1.8,0.5-3.2,1.6-4.3c1.1-1.1,2.5-1.6,4.2-1.6c0.8,0,1.7,0.1,2.6,0.3l0.2,3
			h-1.2l-0.6-1.8c-0.3-0.1-0.7-0.1-1.2-0.1c-0.5,0-1,0.1-1.5,0.3c-0.5,0.2-0.9,0.5-1.2,0.9c-0.8,0.9-1.1,1.9-1.1,3.2
			c0,1.3,0.4,2.3,1.2,3.1c0.8,0.8,1.9,1.2,3.2,1.2C120.4,182.6,120.7,182.5,120.9,182.5z"/>
		<path class="st5" d="M126.4,176.6c0.4-0.5,1-0.8,1.7-0.8c0.5,0,0.9,0.1,1.2,0.4c0.3,0.2,0.6,0.5,0.8,0.9l-1.6,0.8l-0.5-0.8
			c-0.4,0-0.7,0.2-1,0.5c-0.3,0.3-0.5,0.7-0.5,1.3v3.6c0,0,0.1,0.1,0.3,0.1l1.9,0.4v0.9h-4.5L124,183l1-0.2v-5.6h-0.9l-0.1-1
			c0.6-0.1,1.3-0.2,2-0.3L126.4,176.6z"/>
		<path class="st5" d="M135.2,183.2c-0.5,0.5-1.1,0.8-1.9,0.8c-0.8,0-1.4-0.2-1.8-0.6c-0.5-0.4-0.7-0.9-0.7-1.5
			c0-0.6,0.1-1.1,0.4-1.4c0.2-0.3,0.6-0.6,0.9-0.8c0.7-0.3,1.7-0.5,3-0.5v-1.2c0-0.2-0.1-0.4-0.3-0.6c-0.2-0.2-0.5-0.3-1-0.3
			c-0.4,0-0.7,0.1-0.9,0.3l-0.3,1.1l-1.7-0.5c0.3-0.9,0.9-1.5,1.9-1.9c0.4-0.1,0.8-0.2,1.2-0.2c0.9,0,1.5,0.2,2,0.6
			c0.5,0.4,0.7,1,0.7,1.7v4.2c0,0.2,0.1,0.3,0.2,0.3c0.1,0,0.2,0,0.3-0.1l0.4,0.9c-0.3,0.3-0.7,0.4-1.1,0.4
			C135.7,184,135.3,183.7,135.2,183.2z M132.8,182.6c0.1,0.1,0.2,0.1,0.4,0.2c0.1,0,0.3,0,0.4,0c0.2,0,0.3,0,0.5-0.1
			c0.2-0.1,0.3-0.2,0.4-0.3c0.2-0.2,0.4-0.4,0.5-0.7v-1.4c-0.7,0-1.3,0.1-1.6,0.2c-0.3,0.1-0.6,0.3-0.8,0.4
			c-0.2,0.2-0.3,0.4-0.3,0.7c0,0.3,0,0.5,0.1,0.6C132.6,182.4,132.7,182.5,132.8,182.6z M134.3,171.9l0.5-0.1l1,1.3l-2.8,2l-0.7-0.7
			L134.3,171.9z"/>
		<path class="st5" d="M138.1,176l0.1-0.2h1.2v-1.5c0-0.8,0.2-1.5,0.7-1.9c0.4-0.4,0.9-0.6,1.6-0.6c0.8,0,1.5,0.2,2.1,0.7
			c0.1,0.1,0.2,0.1,0.2,0.2l-1.2,1.4l-1.1-1c-0.1,0-0.1,0-0.2,0c-0.4,0-0.7,0.4-0.7,1.1v1.7h1.9c0.1,0,0.1,0,0.1,0.1v1.1h-2v5.6
			l1.9,0.3v0.9h-4.1l-0.2-0.9l0.9-0.2v-5.7h-1.1L138.1,176z"/>
		<path class="st5" d="M146.5,182.8l1,0.3v0.9h-3.3L144,183l1-0.2v-5.6l-0.9,0.1l-0.2-1l2-0.4l0.5,0.5V182.8z M144.5,172.9
			c0-0.3,0.1-0.5,0.3-0.7s0.4-0.3,0.7-0.3c0.3,0,0.5,0.1,0.7,0.3c0.2,0.2,0.3,0.5,0.3,0.7c0,0.3-0.1,0.5-0.3,0.7
			c-0.2,0.2-0.4,0.3-0.7,0.3c-0.3,0-0.5-0.1-0.7-0.3C144.6,173.4,144.5,173.2,144.5,172.9z"/>
		<path class="st5" d="M154.4,183.2c-0.7,0.5-1.5,0.8-2.4,0.8c-1,0-1.8-0.3-2.5-1c-0.7-0.7-1.1-1.7-1.1-3c0-1.4,0.4-2.5,1.2-3.3
			c0.6-0.6,1.4-0.9,2.4-0.9c0.7,0,1.3,0.2,1.9,0.6c0.4,0.3,0.7,0.6,0.9,0.9l-1.6,0.8l-0.5-1c-0.2-0.1-0.4-0.1-0.5-0.1
			c-1.3,0-2,1-2,2.9c0,0.8,0.2,1.5,0.6,2c0.4,0.5,0.9,0.7,1.6,0.7c0.3,0,0.6-0.1,1-0.2c0.3-0.1,0.6-0.3,0.8-0.5L154.4,183.2z"/>
		<path class="st5" d="M155.5,179.9c0-0.6,0.1-1.2,0.3-1.7c0.2-0.5,0.4-0.9,0.8-1.3c0.6-0.7,1.5-1,2.5-1c1,0,1.9,0.4,2.5,1.1
			c0.7,0.7,1,1.7,1,2.9c0,1.3-0.4,2.3-1.1,3c-0.7,0.7-1.5,1.1-2.5,1.1c-1,0-1.9-0.4-2.5-1.1C155.8,182.1,155.5,181.1,155.5,179.9z
			 M157,180c0,0.9,0.2,1.6,0.5,2c0.4,0.5,0.8,0.7,1.4,0.7c0.6,0,1-0.2,1.4-0.7c0.4-0.4,0.5-1.1,0.5-2c0-0.9-0.2-1.6-0.5-2.1
			c-0.3-0.5-0.8-0.8-1.4-0.8c-0.6,0-1.1,0.3-1.5,0.8C157.2,178.4,157,179.1,157,180z"/>
	</g>
</g>
</svg>
