<?xml version="1.0" encoding="utf-8"?>
<!-- Generator: Adobe Illustrator 20.0.0, SVG Export Plug-In . SVG Version: 6.00 Build 0)  -->
<svg version="1.1" id="Layer_1" xmlns="http://www.w3.org/2000/svg" xmlns:xlink="http://www.w3.org/1999/xlink" x="0px" y="0px"
	 viewBox="0 0 23.7 23.7" style="enable-background:new 0 0 23.7 23.7;" xml:space="preserve">
<style type="text/css">
	.st0{fill:#1E323F;}
	.st1{fill:#A1FFFE;}
	.st2{fill:#9FFF82;}
	.st3{fill:#3A0922;}
	.st4{fill:#EFDE43;}
	.st5{fill:#F7EA92;}
	.st6{fill:#FFFFC8;}
	.st7{fill:#780A46;}
	.st8{fill:#500532;}
</style>
<g>
	<rect x="-1406.3" y="-738.9" class="st0" width="640" height="480"/>
</g>
<g>
	<g>
		<g>
			<rect x="-1377" y="-672.7" class="st1" width="27.4" height="6"/>
		</g>
		<g>
			<rect x="-1377" y="-661.7" class="st1" width="27.4" height="6"/>
		</g>
		<g>
			<rect x="-1377" y="-650.7" class="st1" width="27.4" height="6"/>
		</g>
	</g>
</g>
<g>
	<g>
		<g>
			<rect x="-1541.8" y="-672.7" class="st2" width="28" height="6"/>
		</g>
		<g>
			<rect x="-1541.8" y="-661.7" class="st2" width="28" height="6"/>
		</g>
		<g>
			<rect x="-1541.8" y="-650.7" class="st2" width="28" height="6"/>
		</g>
	</g>
</g>
<g>
	<text transform="matrix(1 0 0 1 -1377.9805 -693.5203)" class="st1" style="font-family:'Kreon-Bold'; font-size:22px;">bOTÕES</text>
</g>
<g>
	<text transform="matrix(1 0 0 1 -1094.9805 -693.5203)" style="fill:#0FDB66; font-family:'Kreon-Bold'; font-size:22px;">bOTÕES</text>
</g>
<g>
	<rect x="-704.3" y="-738.9" class="st3" width="640" height="480"/>
</g>
<g>
	<g>
		<g>
			<rect x="-675" y="-672.7" class="st1" width="27.4" height="6"/>
		</g>
		<g>
			<rect x="-675" y="-661.7" class="st1" width="27.4" height="6"/>
		</g>
		<g>
			<rect x="-675" y="-650.7" class="st1" width="27.4" height="6"/>
		</g>
	</g>
</g>
<g>
	<text transform="matrix(1 0 0 1 -675.9805 -693.5203)" class="st1" style="font-family:'Kreon-Bold'; font-size:22px;">bOTÕES</text>
</g>
<g>
	<text transform="matrix(1 0 0 1 -392.9805 -693.5203)" class="st4" style="font-family:'Kreon-Bold'; font-size:22px;">bOTÕES</text>
</g>
<g>
	<g>
		<path class="st4" d="M-464-444.4l-11.1,0.5l18.4,14.9l9.3,1v12.4c-7.3,6.3-26.4,9.1-34.9-2.1c-1.6-2-2.9-4.2-4.1-6.4
			c-3.1-5.8-6.1-11.7-9.1-17.5c-0.7-1.3-1.4-1.8-3.1-1.1v20.3l4.8,1.6v9.6h-41.4v-13.6l9.7-1l-0.1-43.5l-8.8-0.6v-14.3h72.1v38
			C-462.3-445.2-463-444.4-464-444.4z M-486.1-467.6c-4.2,0-8.2,0-12.2,0c0,5.2,0,10.4,0,15.7c4.2-0.3,8.2-0.7,12.2-1
			C-486.1-457.9-486.1-462.6-486.1-467.6z"/>
		<g>
			<path class="st4" d="M-441.5-476.8v-2.4l11.1-10h3c0,0,10.7,9.7,10.7,9.9c0,0.2,0,2.5,0,2.5l-10.5,10.1h-3.1L-441.5-476.8z"/>
			<path class="st4" d="M-440.7-420.2c0,4.7,2.2,8,6.2,9c7.7,1.9,15.3,1.4,22.6-1.9c0.5-0.2,1.2-0.8,1.2-1.3
				c0.1-3.4,0.1-6.8,0.1-10.5l-6.3-0.4v-36c-10.7,0-21.5,0-32,0c0,4.1,0,8,0,12l8.2,0.8V-420.2z"/>
		</g>
		<g>
			<path class="st4" d="M-310.7-476.8v-2.4l11.1-10h3c0,0,10.7,9.7,10.7,9.9c0,0.2,0,2.5,0,2.5l-10.5,10.2h-3.1L-310.7-476.8z"/>
			<path class="st4" d="M-310-420.2c0,4.7,2.2,8,6.2,9c7.7,1.9,15.3,1.4,22.6-1.9c0.5-0.2,1.2-0.8,1.2-1.3c0.1-3.4,0.1-6.8,0.1-10.5
				l-6.3-0.4v-36c-10.7,0-21.5,0-32,0c0,4.1,0,8,0,12l8.2,0.8V-420.2z"/>
		</g>
		<path class="st4" d="M-348.1-420.1c0,4.7,2.2,8,6.2,9c7.7,1.9,15.3,1.4,22.6-1.9c0.5-0.2,1.2-0.8,1.2-1.3
			c0.1-3.4,0.1-6.8,0.1-10.5l-6.3-0.4v-61.2c-10.7,0-21.5,0-32,0c0,4.1,0,8,0,12l8.2,0.8V-420.1z"/>
		<path class="st4" d="M-355.8-428.8c0,4.5,0,8.6-0.1,12.6c0,0.5-0.8,1.1-1.3,1.5c-3.9,2.6-8.4,3.8-13.1,4.2
			c-6.5,0.7-13.1,0.7-19.3-1.6c-10.4-3.8-15.8-11.5-16.5-22.4c-0.8-12.7,5.3-23.6,18.2-27.1c7.1-1.9,14.2-2,21.1,0.8
			c6.9,2.8,10.5,8.2,11.3,15.4c0,0,0.7,5.8-0.6,11.8c0,0-20.5,0-21,0c0,0-3.5,0.2-5.3-1.5c-0.4-0.4-0.9-0.1-0.9-0.1
			c0.1,2.8,1.7,4.9,3.8,6.1c4.4,2.5,9.2,2.5,14,1.9c2.3-0.4,4.1-1,5.9-1.7L-355.8-428.8z M-375.7-447.6c-3.4-1.1-6.8,0.8-6.8,4.6
			c0,0.6,0,1.5,0,1.5h9.4C-373.1-441.6-372.6-446.6-375.7-447.6z"/>
	</g>
</g>
<g>
	<rect x="-704.3" y="-150.9" class="st3" width="640" height="480"/>
</g>
<g>
	<rect x="41.1" y="-75.1" class="st5" width="27.6" height="6"/>
	<rect x="41.1" y="-64.1" class="st5" width="27.6" height="6"/>
	<rect x="41.1" y="-53" class="st5" width="27.6" height="6"/>
</g>
<polygon class="st5" points="23.7,4.3 19.5,0 11.9,7.6 4.3,0 0,4.3 7.6,11.9 0,19.5 4.3,23.7 11.9,16.1 19.5,23.7 23.7,19.5 
	16.1,11.9 "/>
<g>
	<text transform="matrix(1 0 0 1 -675.9805 -105.5203)" class="st1" style="font-family:'Kreon-Bold'; font-size:22px;">bOTÕES</text>
</g>
<g>
	<text transform="matrix(1 0 0 1 -392.9805 -105.5203)" class="st4" style="font-family:'Kreon-Bold'; font-size:22px;">bOTÕES</text>
</g>
<g>
	<g>
		<path class="st4" d="M-60.3-278.7l-11.1,0.5l18.4,14.9l9.3,1v12.4c-7.3,6.3-26.4,9.1-34.9-2.1c-1.6-2-2.9-4.2-4.1-6.4
			c-3.1-5.8-6.1-11.7-9.1-17.5c-0.7-1.3-1.4-1.8-3.1-1.1v20.3l4.8,1.6v9.6h-41.4v-13.6l9.7-1l-0.1-43.5l-8.8-0.6v-14.3h72.1v38
			C-58.6-279.5-59.3-278.7-60.3-278.7z M-82.4-301.9c-4.2,0-8.2,0-12.2,0c0,5.2,0,10.4,0,15.7c4.2-0.3,8.2-0.7,12.2-1
			C-82.4-292.2-82.4-296.9-82.4-301.9z"/>
		<g>
			<path class="st4" d="M-37.8-311.1v-2.4l11.1-10h3c0,0,10.7,9.7,10.7,9.9c0,0.2,0,2.5,0,2.5L-23.5-301h-3.1L-37.8-311.1z"/>
			<path class="st4" d="M-37-254.5c0,4.7,2.2,8,6.2,9c7.7,1.9,15.3,1.4,22.6-1.9c0.5-0.2,1.2-0.8,1.2-1.3c0.1-3.4,0.1-6.8,0.1-10.5
				l-6.3-0.4v-36c-10.7,0-21.5,0-32,0c0,4.1,0,8,0,12l8.2,0.8L-37-254.5z"/>
		</g>
		<g>
			<path class="st4" d="M93-311.1v-2.4l11.1-10h3c0,0,10.7,9.7,10.7,9.9c0,0.2,0,2.5,0,2.5l-10.5,10.2h-3.1L93-311.1z"/>
			<path class="st4" d="M93.7-254.5c0,4.7,2.2,8,6.2,9c7.7,1.9,15.3,1.4,22.6-1.9c0.5-0.2,1.2-0.8,1.2-1.3c0.1-3.4,0.1-6.8,0.1-10.5
				l-6.3-0.4v-36c-10.7,0-21.5,0-32,0c0,4.1,0,8,0,12l8.2,0.8V-254.5z"/>
		</g>
		<path class="st4" d="M55.6-254.4c0,4.7,2.2,8,6.2,9c7.7,1.9,15.3,1.4,22.6-1.9c0.5-0.2,1.2-0.8,1.2-1.3c0.1-3.4,0.1-6.8,0.1-10.5
			l-6.3-0.4v-61.2c-10.7,0-21.5,0-32,0c0,4.1,0,8,0,12l8.2,0.8V-254.4z"/>
		<path class="st4" d="M47.9-263.1c0,4.5,0,8.6-0.1,12.6c0,0.5-0.8,1.1-1.3,1.5c-3.9,2.6-8.4,3.8-13.1,4.2
			c-6.5,0.7-13.1,0.7-19.3-1.6c-10.4-3.8-15.8-11.5-16.5-22.4c-0.8-12.7,5.3-23.6,18.2-27.1c7.1-1.9,14.2-2,21.1,0.8
			c6.9,2.8,10.5,8.2,11.3,15.4c0,0,0.7,5.8-0.6,11.8c0,0-20.5,0-21,0c0,0-3.5,0.2-5.3-1.5c-0.4-0.4-0.9-0.1-0.9-0.1
			c0.1,2.8,1.7,4.9,3.8,6.1c4.4,2.5,9.2,2.5,14,1.9c2.3-0.4,4.1-1,5.9-1.7L47.9-263.1z M28-281.9c-3.4-1.1-6.8,0.8-6.8,4.6
			c0,0.6,0,1.5,0,1.5h9.4C30.6-275.9,31.1-280.9,28-281.9z"/>
	</g>
</g>
<rect x="199.1" y="-908" class="st6" width="1220.8" height="944.7"/>
<g>
	<g>
		<path class="st7" d="M621.1-479.8l-36.9,1.7l61.3,49.6l31,3.3l0.1,41.4c-24.2,20.8-87.8,30.2-116.1-7.1
			c-5.3-6.6-9.7-13.9-13.7-21.3c-10.4-19.3-20.3-38.8-30.2-58.4c-2.2-4.3-4.7-6-10.2-3.8l0.1,67.5l15.9,5.2l0.1,31.9l-138.3,0.3
			l-0.1-45.2l32.3-3.4l-0.3-144.9l-29.4-2.1l-0.1-47.7h240l0.3,126.9C626.9-482.6,624.3-480,621.1-479.8z M547.5-557.1
			c-14,0-27.2,0.1-40.7,0.1c0,17.5,0.1,34.5,0.1,52.3c13.9-1.1,27.2-2.2,40.7-3.2C547.5-524.7,547.5-540.6,547.5-557.1z"/>
		<g>
			<path class="st7" d="M696.2-587.7v-8.1l36.9-33.3h9.9c0,0,35.7,32.3,35.7,32.8c0,0.5,0,8.2,0,8.2l-35,33.9h-10.4L696.2-587.7z"/>
			<path class="st7" d="M698.6-399.3c0.1,15.5,7.3,26.6,20.8,29.9c25.7,6.3,51,4.7,75.4-6.3c1.7-0.8,4.1-2.7,4.1-4.2
				c0.3-11.3,0.2-22.7,0.2-35l-21.1-1.2l0-119.8c-35.5,0-71.6,0-106.5,0c0,13.6,0,26.6,0,39.9l27.2,2.6L698.6-399.3z"/>
		</g>
		<g>
			<path class="st7" d="M1131.6-587.7v-8.1l36.9-33.3h9.9c0,0,35.7,32.3,35.7,32.8c0,0.5,0,8.2,0,8.2l-35,33.9h-10.4L1131.6-587.7z"
				/>
			<path class="st7" d="M1134-399.3c0.1,15.5,7.3,26.6,20.8,29.9c25.7,6.3,51,4.7,75.4-6.3c1.7-0.8,4.1-2.7,4.1-4.2
				c0.3-11.3,0.2-22.7,0.2-35l-21.1-1.2l0-119.8c-35.5,0-71.6,0-106.5,0c0,13.6,0,26.6,0,39.9l27.2,2.6L1134-399.3z"/>
		</g>
		<path class="st7" d="M1007-399.1c0.1,15.5,7.3,26.6,20.8,29.9c25.7,6.3,51,4.7,75.4-6.3c1.7-0.8,4.1-2.7,4.1-4.2
			c0.3-11.3,0.2-22.7,0.2-35l-21.1-1.2l0-203.8c-35.5,0-71.6,0-106.5,0c0,13.6,0,26.6,0,39.9l27.2,2.6L1007-399.1z"/>
		<path class="st7" d="M981.2-428.1c0,15,0.2,28.5-0.2,42.1c0,1.7-2.5,3.8-4.4,5c-13.1,8.8-28.1,12.5-43.5,14.1
			c-21.7,2.3-43.5,2.2-64.4-5.4c-34.8-12.8-52.5-38.3-54.8-74.4c-2.7-42.2,17.7-78.7,60.7-90.3c23.5-6.4,47.3-6.7,70.3,2.7
			c22.9,9.4,35,27.4,37.5,51.2c0,0,2.2,19.2-2.1,39.2c0,0-68.1,0-69.8,0c0,0-11.8,0.5-17.5-4.9c-1.3-1.3-3.1-0.2-3.1-0.2
			c0.3,9.2,5.6,16.3,12.6,20.3c14.6,8.4,30.5,8.2,46.5,6.3c7.7-1.2,13.7-3.4,19.6-5.6L981.2-428.1z M915.3-490.8
			c-11.2-3.7-22.8,2.7-22.8,15.2c0,2.1,0,5.1,0,5.1h31.3C923.7-470.5,925.3-487.2,915.3-490.8z"/>
	</g>
	<g>
		<path class="st7" d="M830.5-283.5v-1.7l8-7.2h2.1c0,0,7.7,7,7.7,7.1c0,0.1,0,1.8,0,1.8l-7.5,7.3h-2.2L830.5-283.5z"/>
	</g>
	<g>
		<path class="st8" d="M527.5-271.3v-42.4l-4.8-0.5v-6h15.2c8.8,0,15.7,2.3,20.9,7c5.3,4.8,8,11.6,8,20.5s-2.6,15.8-7.7,20.8
			c-5.1,4.9-12,7.4-20.9,7.4h-14.8l-0.8-5.7L527.5-271.3z M536.1-271.3c14.8,0,22.2-7.1,22.2-21.4c0-6.5-1.9-11.5-5.8-15.2
			c-3.8-3.5-8.8-5.3-15.1-5.3l-1.9,0.1v41.8L536.1-271.3z"/>
		<path class="st8" d="M602.5-293c0,1.7-0.3,3.3-0.8,4.9c-0.6,1.6-1.7,3-3.3,4.3c-3.7,2.9-9.6,4.4-17.9,4.5c0.9,4.2,3,7,6.5,8.4
			c1.2,0.5,2.6,0.7,4,0.7c1.5,0,2.7-0.1,3.7-0.4c1-0.2,1.9-0.5,2.7-0.8c1.5-0.7,2.5-1.3,3.1-1.9l1.8,5.6c-0.6,0.6-1.6,1.2-3,1.8
			c-5.4,2.2-10.6,2.4-15.8,0.6c-4.7-1.7-7.9-4.9-9.7-9.8c-0.9-2.4-1.4-5.3-1.4-8.5c0-3.3,0.5-6.1,1.5-8.6c1-2.5,2.3-4.6,3.9-6.2
			c3.2-3.4,7.3-5.2,12.1-5.2c3.5,0,6.5,0.9,9,2.8C601.3-298.8,602.5-296.2,602.5-293z M594.9-292.4c0-1.5-0.4-2.7-1.2-3.7
			c-0.8-1-2-1.5-3.5-1.5c-1.5,0-2.8,0.2-3.9,0.7c-1,0.5-2,1.2-2.9,2.2c-1.9,2.2-3,5.3-3.3,9.4c3.9,0,6.9-0.3,8.8-0.9
			c1.9-0.6,3.4-1.4,4.4-2.4C594.4-289.6,594.9-290.9,594.9-292.4z"/>
		<path class="st8" d="M622-303.6c1.7,0,3.3,0.2,4.8,0.7c1.5,0.5,2.7,1.1,3.8,1.9c2,1.4,3.6,3.2,4.8,5.4l-8.2,3.1l-1.9-4.1
			c-1.1-0.5-2.2-0.8-3.5-0.8s-2.4,0.4-3.4,1.1c-1,0.7-1.5,1.8-1.5,3.2c0,1.4,0.7,2.5,2,3.4c1.3,0.9,3.2,1.8,5.6,2.8
			c2.4,1,4.2,1.9,5.4,2.7c1.3,0.9,2.2,1.8,2.9,2.7c1.3,1.8,2,3.7,2,5.9s-0.4,4-1.2,5.4c-0.8,1.4-1.9,2.6-3.1,3.5
			c-2.5,1.7-5.6,2.6-9.2,2.6c-3,0-5.9-0.8-8.8-2.5c-2.6-1.6-4.4-3.6-5.2-6l8.3-3.1l1.9,4.7c1.2,0.5,2.4,0.8,3.4,0.8
			c1,0,1.9-0.1,2.5-0.2c0.6-0.2,1.2-0.4,1.8-0.7c1.2-0.8,1.9-2,1.9-3.5c0-2-1.2-3.5-3.7-4.6c-2.4-1-4.5-2-6.3-2.9
			c-1.7-0.9-3.2-1.8-4.4-2.7c-2.4-2-3.6-4.7-3.6-8.1c0-3.3,1.3-5.9,4-7.9C615.6-302.7,618.6-303.6,622-303.6z"/>
		<path class="st8" d="M652.8-270.1l4.8,1.3v4.4h-16.1l-0.9-4.4l5-1.1v-27.4l-4.4,0.3l-0.8-4.8l9.9-1.8l2.6,2.6V-270.1z M643-318.2
			c0-1.4,0.5-2.6,1.5-3.5s2.1-1.5,3.5-1.5c1.4,0,2.6,0.5,3.5,1.5c1,1,1.5,2.2,1.5,3.5c0,1.3-0.5,2.5-1.5,3.5c-1,1-2.2,1.5-3.5,1.5
			c-1.4,0-2.6-0.5-3.5-1.5C643.5-315.6,643-316.8,643-318.2z"/>
		<path class="st8" d="M668.6-277c-4.1-2.7-6.2-6.7-6.2-11.9c0-4.3,1.5-7.8,4.4-10.6c2.8-2.8,6.3-4.2,10.4-4.2
			c4.1,0,7.6,1.2,10.5,3.5l8-4l1.7,0.2l0.8,6.7l-7.3,0.9c1.3,2.4,1.9,4.8,1.9,7.3c0,2.5-0.4,4.6-1.3,6.4c-0.9,1.8-2.1,3.3-3.5,4.4
			c-2.8,2.4-6.3,3.5-10.5,3.5c-1.3,0-2.5-0.1-3.5-0.3l-2,3.1l0.3,1.4c0.5,0.1,1.7,0.3,3.5,0.5c1.8,0.2,3.8,0.6,6.1,1.2
			c2.3,0.5,4.3,1.2,5.9,2.1c1.6,0.8,2.9,1.7,3.9,2.7c1.6,1.8,2.4,4,2.4,6.7c0,2.7-0.5,4.9-1.5,6.8c-1,1.8-2.2,3.4-3.8,4.6
			c-3.2,2.4-7,3.6-11.6,3.6c-4.8,0-8.8-1-11.8-3.1c-3.3-2.2-4.9-5.2-4.9-9c0-5.1,2.2-8.7,6.7-10.9c-1.3-1.1-1.9-2.8-1.9-5.1
			S666.5-274.9,668.6-277z M688.2-255.6c0-1.7-0.7-2.9-2.2-3.5c-1.5-0.7-3.5-1.3-6.2-1.9c-2.7-0.6-4.7-1.1-6.2-1.5
			c-3.8,1.6-5.7,3.9-5.7,7.1c0,1.8,1,3.3,3,4.4c1.8,1.1,4.2,1.6,7.1,1.6c2.8,0,5.2-0.6,7.2-1.9C687.1-252.5,688.2-253.9,688.2-255.6
			z M677.4-297.6c-2.2,0.1-4,0.9-5.3,2.5c-1.3,1.6-2,3.3-2,5.3c0,2,0.2,3.5,0.6,4.6c0.4,1.1,1,1.9,1.7,2.6c1.3,1.3,3.1,2,5.3,2
			c2.2,0,4-0.7,5.4-2.2c1.5-1.5,2.2-3.5,2.2-6.3s-0.8-4.8-2.3-6.3c-1.5-1.5-3.3-2.2-5.4-2.2H677.4z"/>
		<path class="st8" d="M713.2-300.7c2.6-2,5.8-3,9.7-3c5.6,0,9.3,2,11,6.1c0.6,1.4,0.9,3.1,0.9,5.2v22.2l4.8,1.4v4.4h-16l-1-4.4
			l4.9-1.1v-21.2c0-2.4-0.6-4.1-1.7-5c-1.1-0.9-2.5-1.3-4.2-1.3c-1.7,0-3.3,0.3-4.8,1c-1.6,0.7-2.7,1.4-3.4,2.1v24.2l4.7,1.3v4.4
			h-16l-1-4.4l5.1-1.1v-27.4l-4.4,0.3l-0.8-4.8c0.7-0.1,1.5-0.3,2.4-0.4c0.9-0.2,1.8-0.4,2.7-0.5c0.9-0.2,1.8-0.3,2.7-0.4
			c0.9-0.1,1.6-0.3,2.1-0.4L713.2-300.7z"/>
		<path class="st8" d="M774-293c0,1.7-0.3,3.3-0.8,4.9c-0.6,1.6-1.7,3-3.3,4.3c-3.7,2.9-9.6,4.4-17.9,4.5c0.9,4.2,3,7,6.5,8.4
			c1.2,0.5,2.6,0.7,4,0.7c1.5,0,2.7-0.1,3.7-0.4c1-0.2,1.9-0.5,2.7-0.8c1.5-0.7,2.5-1.3,3.1-1.9l1.8,5.6c-0.6,0.6-1.6,1.2-3,1.8
			c-5.4,2.2-10.6,2.4-15.8,0.6c-4.7-1.7-7.9-4.9-9.7-9.8c-0.9-2.4-1.4-5.3-1.4-8.5c0-3.3,0.5-6.1,1.5-8.6c1-2.5,2.3-4.6,3.9-6.2
			c3.2-3.4,7.3-5.2,12.1-5.2c3.5,0,6.5,0.9,9,2.8C772.7-298.8,774-296.2,774-293z M766.3-292.4c0-1.5-0.4-2.7-1.2-3.7
			c-0.8-1-2-1.5-3.5-1.5c-1.5,0-2.8,0.2-3.9,0.7c-1,0.5-2,1.2-2.9,2.2c-1.9,2.2-3,5.3-3.3,9.4c3.9,0,6.9-0.3,8.8-0.9
			c1.9-0.6,3.4-1.4,4.4-2.4C765.8-289.6,766.3-290.9,766.3-292.4z"/>
		<path class="st8" d="M791.2-299.9c2.2-2.5,4.9-3.7,8.4-3.7c2.4,0,4.4,0.6,6,1.8c1.6,1.2,2.9,2.6,3.7,4.4l-8,4l-2.5-3.9
			c-1.8,0-3.5,0.8-4.9,2.3c-1.5,1.6-2.3,3.6-2.3,6.2v17.4c0,0.2,0.5,0.4,1.4,0.6l9.1,1.9v4.4h-21.8l-1-4.4l5-1.1v-27.2h-4.4
			l-0.7-4.8c3-0.5,6.2-1,9.5-1.7L791.2-299.9z"/>
		<path class="st8" d="M904.6-271.4l0.1-11.9l-9.2-1.1l1.5-5.7h15.7v24.5c-3.9,1-8.1,1.5-12.7,1.5c-4.6,0-8.6-0.6-12.1-1.9
			c-3.5-1.2-6.6-3-9.2-5.4c-5.6-5-8.4-11.7-8.4-20.2c0-8.6,2.6-15.5,7.8-20.7c5.2-5.2,12-7.8,20.2-7.8c4,0,8.2,0.6,12.6,1.7
			l1.2,14.6h-5.9l-2.9-9c-1.6-0.3-3.6-0.4-6-0.4c-2.4,0-4.7,0.5-7.1,1.6c-2.4,1.1-4.4,2.6-6,4.4c-3.7,4.1-5.5,9.2-5.5,15.3
			c0,6.3,1.9,11.3,5.8,15.1c3.9,3.8,9.2,5.7,15.7,5.7C902-271.1,903.5-271.2,904.6-271.4z"/>
		<path class="st8" d="M931.5-299.9c2.2-2.5,4.9-3.7,8.4-3.7c2.4,0,4.4,0.6,6,1.8c1.6,1.2,2.9,2.6,3.7,4.4l-8,4l-2.5-3.9
			c-1.8,0-3.5,0.8-4.9,2.3c-1.5,1.6-2.3,3.6-2.3,6.2v17.4c0,0.2,0.5,0.4,1.4,0.6l9.1,1.9v4.4h-21.8l-1-4.4l5-1.1v-27.2h-4.4
			l-0.7-4.8c3-0.5,6.2-1,9.5-1.7L931.5-299.9z"/>
		<path class="st8" d="M973.9-267.8c-2.4,2.5-5.4,3.7-9,3.7c-3.7,0-6.6-1-8.8-3.1c-2.2-2-3.3-4.5-3.3-7.3c0-2.8,0.6-5.1,1.7-6.8
			c1.2-1.7,2.7-3,4.6-4c3.3-1.7,8.1-2.6,14.4-2.7v-5.7c0-1.1-0.5-2.1-1.5-2.9c-1-0.9-2.5-1.3-4.6-1.3c-2,0-3.5,0.4-4.4,1.3l-1.6,5.2
			l-8.5-2.5c1.2-4.5,4.3-7.5,9.1-9c1.7-0.5,3.7-0.8,5.8-0.8c4.2,0,7.4,1,9.6,3.1c2.2,2.1,3.3,4.8,3.3,8.2v20.6
			c0,1.1,0.4,1.7,1.1,1.7c0.4,0,0.9-0.2,1.7-0.6l1.8,4.3c-1.7,1.4-3.5,2.1-5.6,2.1C976.7-264.1,974.7-265.3,973.9-267.8z M962.5-271
			c0.6,0.4,1.2,0.7,1.9,0.8c0.6,0.1,1.4,0.2,2.2,0.2s1.6-0.2,2.5-0.5c0.8-0.3,1.5-0.8,2.1-1.3c1.1-0.9,1.9-1.9,2.3-3.2v-6.9
			c-3.5,0-6.2,0.3-7.8,0.8c-1.7,0.6-3,1.3-3.9,2.2c-0.9,0.9-1.4,2-1.4,3.3c0,1.3,0.2,2.3,0.6,3C961.4-272,961.9-271.4,962.5-271z
			 M969.7-322.7l2.6-0.6l4.8,6.5l-13.4,9.8l-3.3-3.5L969.7-322.7z"/>
		<path class="st8" d="M988.3-302.8l0.6-0.8h6v-7.3c0-4.1,1.1-7.2,3.3-9.4c1.9-1.9,4.5-2.9,7.7-2.9c3.7,0,7.1,1.1,10.3,3.4
			c0.6,0.4,1,0.7,1.2,0.9l-5.7,6.7l-5.2-4.8c-0.3-0.1-0.7-0.2-1.1-0.2c-2.2,0-3.2,1.8-3.2,5.3v8.3h9.1c0.3,0,0.4,0.2,0.4,0.5v5.6
			h-9.5v27.4l9.2,1.4v4.4h-20.2l-1-4.4l4.6-1v-27.8h-5.5L988.3-302.8z"/>
		<path class="st8" d="M1028.9-270.1l4.8,1.3v4.4h-16.1l-0.9-4.4l5-1.1v-27.4l-4.4,0.3l-0.8-4.8l9.9-1.8l2.6,2.6V-270.1z
			 M1019.1-318.2c0-1.4,0.5-2.6,1.5-3.5c1-1,2.1-1.5,3.5-1.5c1.4,0,2.6,0.5,3.5,1.5c1,1,1.5,2.2,1.5,3.5c0,1.3-0.5,2.5-1.5,3.5
			c-1,1-2.2,1.5-3.5,1.5c-1.4,0-2.6-0.5-3.5-1.5C1019.6-315.6,1019.1-316.8,1019.1-318.2z"/>
		<path class="st8" d="M1067.2-267.8c-3.2,2.5-7.1,3.7-11.8,3.7c-4.8,0-8.8-1.6-11.9-4.7c-3.5-3.4-5.3-8.3-5.3-14.4
			c0-7,1.9-12.4,5.6-16c3-2.9,6.9-4.4,11.7-4.4c3.5,0,6.5,0.9,9.1,2.7c2.1,1.5,3.5,3,4.2,4.6l-8,3.8l-2.6-4.7
			c-1.1-0.3-2-0.4-2.7-0.4c-6.5,0-9.8,4.7-9.8,14.2c0,4,1,7.2,2.9,9.6c2,2.4,4.6,3.6,7.8,3.6c1.5,0,3.1-0.3,4.8-0.8
			c1.7-0.6,3-1.4,4.1-2.5L1067.2-267.8z"/>
		<path class="st8" d="M1072.6-284.2c0-3.1,0.5-5.9,1.4-8.3c0.9-2.4,2.2-4.5,3.8-6.1c3.1-3.3,7.1-5,11.9-5c4.9,0,9,1.8,12.3,5.3
			s4.8,8.3,4.8,14.3c0,6.2-1.7,11.2-5.2,14.8c-3.2,3.4-7.2,5.2-11.9,5.2c-5,0-9.1-1.8-12.3-5.5
			C1074.2-273.2,1072.6-278.1,1072.6-284.2z M1080.3-283.4c0,4.3,0.9,7.6,2.6,9.8c1.7,2.2,4,3.3,6.8,3.3c2.8,0,5.1-1.1,6.9-3.3
			c1.8-2.2,2.7-5.5,2.7-10c0-4.5-0.8-7.9-2.5-10.4c-1.7-2.5-4-3.7-6.9-3.7c-3.1,0-5.4,1.3-7.1,4
			C1081.1-291.1,1080.3-287.7,1080.3-283.4z"/>
	</g>
</g>
<g>
	<g>
		<g>
			<path class="st4" d="M-440.3,126.6l-9.3,0.4l15.4,12.5l7.8,0.8l0,10.4c-6.1,5.2-22,7.6-29.2-1.8c-1.3-1.6-2.4-3.5-3.4-5.4
				c-2.6-4.9-5.1-9.8-7.6-14.7c-0.5-1.1-1.2-1.5-2.6-0.9l0,17l4,1.3l0,8l-34.8,0.1l0-11.4l8.1-0.8l-0.1-36.4l-7.4-0.5l0-12h60.3
				l0.1,31.9C-438.8,125.9-439.4,126.6-440.3,126.6z M-458.8,107.2c-3.5,0-6.8,0-10.2,0c0,4.4,0,8.7,0,13.1
				c3.5-0.3,6.8-0.5,10.2-0.8C-458.7,115.4-458.7,111.4-458.8,107.2z"/>
			<g>
				<path class="st4" d="M-421.4,99.5v-2l9.3-8.4h2.5c0,0,9,8.1,9,8.3c0,0.1,0,2.1,0,2.1l-8.8,8.5h-2.6L-421.4,99.5z"/>
				<path class="st4" d="M-420.8,146.9c0,3.9,1.8,6.7,5.2,7.5c6.5,1.6,12.8,1.2,18.9-1.6c0.4-0.2,1-0.7,1-1.1c0.1-2.8,0-5.7,0-8.8
					l-5.3-0.3l0-30.1c-8.9,0-18,0-26.8,0c0,3.4,0,6.7,0,10l6.8,0.7L-420.8,146.9z"/>
			</g>
			<g>
				<path class="st4" d="M-312,99.5v-2l9.3-8.4h2.5c0,0,9,8.1,9,8.3c0,0.1,0,2.1,0,2.1l-8.8,8.5h-2.6L-312,99.5z"/>
				<path class="st4" d="M-311.4,146.9c0,3.9,1.8,6.7,5.2,7.5c6.5,1.6,12.8,1.2,18.9-1.6c0.4-0.2,1-0.7,1-1.1c0.1-2.8,0-5.7,0-8.8
					l-5.3-0.3l0-30.1c-8.9,0-18,0-26.8,0c0,3.4,0,6.7,0,10l6.8,0.7L-311.4,146.9z"/>
			</g>
			<path class="st4" d="M-343.3,146.9c0,3.9,1.8,6.7,5.2,7.5c6.5,1.6,12.8,1.2,18.9-1.6c0.4-0.2,1-0.7,1-1.1c0.1-2.8,0-5.7,0-8.8
				l-5.3-0.3l0-51.2c-8.9,0-18,0-26.8,0c0,3.4,0,6.7,0,10l6.8,0.7L-343.3,146.9z"/>
			<path class="st4" d="M-349.8,139.6c0,3.8,0,7.2-0.1,10.6c0,0.4-0.6,0.9-1.1,1.3c-3.3,2.2-7.1,3.1-10.9,3.6
				c-5.5,0.6-10.9,0.6-16.2-1.4c-8.7-3.2-13.2-9.6-13.8-18.7c-0.7-10.6,4.5-19.8,15.2-22.7c5.9-1.6,11.9-1.7,17.7,0.7
				c5.8,2.4,8.8,6.9,9.4,12.9c0,0,0.5,4.8-0.5,9.9c0,0-17.1,0-17.5,0c0,0-3,0.1-4.4-1.2c-0.3-0.3-0.8-0.1-0.8-0.1
				c0.1,2.3,1.4,4.1,3.2,5.1c3.7,2.1,7.7,2.1,11.7,1.6c1.9-0.3,3.4-0.8,4.9-1.4L-349.8,139.6z M-366.3,123.9
				c-2.8-0.9-5.7,0.7-5.7,3.8c0,0.5,0,1.3,0,1.3h7.9C-364.2,129-363.8,124.8-366.3,123.9z"/>
		</g>
	</g>
	<g>
		<path class="st4" d="M-387.6,176v-0.4l2-1.8h0.5c0,0,1.9,1.8,1.9,1.8c0,0,0,0.4,0,0.4l-1.9,1.8h-0.6L-387.6,176z"/>
	</g>
	<g>
		<path class="st5" d="M-463.8,179v-10.7l-1.2-0.1v-1.5h3.8c2.2,0,4,0.6,5.2,1.8c1.3,1.2,2,2.9,2,5.1c0,2.2-0.6,4-1.9,5.2
			c-1.3,1.2-3,1.9-5.2,1.9h-3.7l-0.2-1.4L-463.8,179z M-461.6,179c3.7,0,5.6-1.8,5.6-5.4c0-1.6-0.5-2.9-1.5-3.8
			c-0.9-0.9-2.2-1.3-3.8-1.3l-0.5,0V179L-461.6,179z"/>
		<path class="st5" d="M-444.9,173.6c0,0.4-0.1,0.8-0.2,1.2c-0.1,0.4-0.4,0.8-0.8,1.1c-0.9,0.7-2.4,1.1-4.5,1.1
			c0.2,1.1,0.8,1.8,1.6,2.1c0.3,0.1,0.6,0.2,1,0.2c0.4,0,0.7,0,0.9-0.1c0.3-0.1,0.5-0.1,0.7-0.2c0.4-0.2,0.6-0.3,0.8-0.5l0.4,1.4
			c-0.1,0.1-0.4,0.3-0.7,0.4c-1.4,0.6-2.7,0.6-4,0.1c-1.2-0.4-2-1.2-2.4-2.5c-0.2-0.6-0.3-1.3-0.3-2.1c0-0.8,0.1-1.5,0.4-2.2
			c0.2-0.6,0.6-1.2,1-1.6c0.8-0.9,1.8-1.3,3-1.3c0.9,0,1.6,0.2,2.2,0.7C-445.2,172.1-444.9,172.8-444.9,173.6z M-446.8,173.7
			c0-0.4-0.1-0.7-0.3-0.9c-0.2-0.2-0.5-0.4-0.9-0.4c-0.4,0-0.7,0.1-1,0.2c-0.3,0.1-0.5,0.3-0.7,0.5c-0.5,0.6-0.7,1.3-0.8,2.4
			c1,0,1.7-0.1,2.2-0.2c0.5-0.2,0.9-0.4,1.1-0.6C-447,174.4-446.8,174.1-446.8,173.7z"/>
		<path class="st5" d="M-440,170.9c0.4,0,0.8,0.1,1.2,0.2c0.4,0.1,0.7,0.3,1,0.5c0.5,0.4,0.9,0.8,1.2,1.4l-2.1,0.8l-0.5-1
			c-0.3-0.1-0.6-0.2-0.9-0.2c-0.3,0-0.6,0.1-0.9,0.3c-0.3,0.2-0.4,0.4-0.4,0.8c0,0.4,0.2,0.6,0.5,0.9c0.3,0.2,0.8,0.5,1.4,0.7
			c0.6,0.2,1,0.5,1.4,0.7c0.3,0.2,0.6,0.4,0.7,0.7c0.3,0.4,0.5,0.9,0.5,1.5s-0.1,1-0.3,1.3c-0.2,0.4-0.5,0.6-0.8,0.9
			c-0.6,0.4-1.4,0.6-2.3,0.6c-0.8,0-1.5-0.2-2.2-0.6c-0.7-0.4-1.1-0.9-1.3-1.5l2.1-0.8l0.5,1.2c0.3,0.1,0.6,0.2,0.9,0.2
			c0.3,0,0.5,0,0.6-0.1c0.2,0,0.3-0.1,0.4-0.2c0.3-0.2,0.5-0.5,0.5-0.9c0-0.5-0.3-0.9-0.9-1.1c-0.6-0.3-1.1-0.5-1.6-0.7
			c-0.4-0.2-0.8-0.4-1.1-0.7c-0.6-0.5-0.9-1.2-0.9-2c0-0.8,0.3-1.5,1-2C-441.6,171.1-440.9,170.9-440,170.9z"/>
		<path class="st5" d="M-432.3,179.3l1.2,0.3v1.1h-4.1l-0.2-1.1l1.3-0.3v-6.9l-1.1,0.1l-0.2-1.2l2.5-0.4l0.6,0.6V179.3z
			 M-434.8,167.3c0-0.4,0.1-0.6,0.4-0.9c0.2-0.2,0.5-0.4,0.9-0.4c0.4,0,0.6,0.1,0.9,0.4c0.2,0.3,0.4,0.6,0.4,0.9
			c0,0.3-0.1,0.6-0.4,0.9c-0.2,0.2-0.5,0.4-0.9,0.4c-0.4,0-0.6-0.1-0.9-0.4C-434.6,167.9-434.8,167.6-434.8,167.3z"/>
		<path class="st5" d="M-428.3,177.6c-1-0.7-1.6-1.7-1.6-3c0-1.1,0.4-2,1.1-2.7c0.7-0.7,1.6-1.1,2.6-1.1c1,0,1.9,0.3,2.6,0.9l2-1
			l0.4,0.1l0.2,1.7l-1.8,0.2c0.3,0.6,0.5,1.2,0.5,1.8c0,0.6-0.1,1.2-0.3,1.6c-0.2,0.4-0.5,0.8-0.9,1.1c-0.7,0.6-1.6,0.9-2.6,0.9
			c-0.3,0-0.6,0-0.9-0.1l-0.5,0.8l0.1,0.3c0.1,0,0.4,0.1,0.9,0.1c0.4,0.1,1,0.2,1.5,0.3c0.6,0.1,1.1,0.3,1.5,0.5
			c0.4,0.2,0.7,0.4,1,0.7c0.4,0.4,0.6,1,0.6,1.7c0,0.7-0.1,1.2-0.4,1.7c-0.2,0.5-0.6,0.8-1,1.2c-0.8,0.6-1.8,0.9-2.9,0.9
			c-1.2,0-2.2-0.3-3-0.8c-0.8-0.6-1.2-1.3-1.2-2.2c0-1.3,0.6-2.2,1.7-2.7c-0.3-0.3-0.5-0.7-0.5-1.3S-428.8,178.1-428.3,177.6z
			 M-423.4,183c0-0.4-0.2-0.7-0.6-0.9c-0.4-0.2-0.9-0.3-1.6-0.5c-0.7-0.1-1.2-0.3-1.5-0.4c-1,0.4-1.4,1-1.4,1.8
			c0,0.4,0.2,0.8,0.7,1.1c0.5,0.3,1.1,0.4,1.8,0.4c0.7,0,1.3-0.2,1.8-0.5C-423.7,183.8-423.4,183.4-423.4,183z M-426.1,172.4
			c-0.6,0-1,0.2-1.3,0.6c-0.3,0.4-0.5,0.8-0.5,1.3c0,0.5,0.1,0.9,0.2,1.1c0.1,0.3,0.2,0.5,0.4,0.6c0.3,0.3,0.8,0.5,1.3,0.5
			c0.5,0,1-0.2,1.4-0.5c0.4-0.4,0.5-0.9,0.5-1.6s-0.2-1.2-0.6-1.6C-425.1,172.6-425.5,172.4-426.1,172.4L-426.1,172.4z"/>
		<path class="st5" d="M-417.1,171.7c0.6-0.5,1.5-0.7,2.4-0.7c1.4,0,2.3,0.5,2.8,1.5c0.1,0.4,0.2,0.8,0.2,1.3v5.6l1.2,0.3v1.1h-4
			l-0.2-1.1l1.2-0.3V174c0-0.6-0.1-1-0.4-1.2c-0.3-0.2-0.6-0.3-1.1-0.3c-0.4,0-0.8,0.1-1.2,0.3c-0.4,0.2-0.7,0.4-0.9,0.5v6.1
			l1.2,0.3v1.1h-4l-0.2-1.1l1.3-0.3v-6.9l-1.1,0.1l-0.2-1.2c0.2,0,0.4-0.1,0.6-0.1c0.2,0,0.5-0.1,0.7-0.1c0.2,0,0.5-0.1,0.7-0.1
			c0.2,0,0.4-0.1,0.5-0.1L-417.1,171.7z"/>
		<path class="st5" d="M-401.8,173.6c0,0.4-0.1,0.8-0.2,1.2c-0.1,0.4-0.4,0.8-0.8,1.1c-0.9,0.7-2.4,1.1-4.5,1.1
			c0.2,1.1,0.8,1.8,1.6,2.1c0.3,0.1,0.6,0.2,1,0.2c0.4,0,0.7,0,0.9-0.1c0.3-0.1,0.5-0.1,0.7-0.2c0.4-0.2,0.6-0.3,0.8-0.5l0.4,1.4
			c-0.1,0.1-0.4,0.3-0.7,0.4c-1.4,0.6-2.7,0.6-4,0.1c-1.2-0.4-2-1.2-2.4-2.5c-0.2-0.6-0.3-1.3-0.3-2.1c0-0.8,0.1-1.5,0.4-2.2
			c0.2-0.6,0.6-1.2,1-1.6c0.8-0.9,1.8-1.3,3-1.3c0.9,0,1.6,0.2,2.2,0.7C-402.2,172.1-401.8,172.8-401.8,173.6z M-403.8,173.7
			c0-0.4-0.1-0.7-0.3-0.9c-0.2-0.2-0.5-0.4-0.9-0.4c-0.4,0-0.7,0.1-1,0.2c-0.3,0.1-0.5,0.3-0.7,0.5c-0.5,0.6-0.7,1.3-0.8,2.4
			c1,0,1.7-0.1,2.2-0.2c0.5-0.2,0.9-0.4,1.1-0.6C-403.9,174.4-403.8,174.1-403.8,173.7z"/>
		<path class="st5" d="M-397.5,171.9c0.5-0.6,1.2-0.9,2.1-0.9c0.6,0,1.1,0.1,1.5,0.4c0.4,0.3,0.7,0.7,0.9,1.1l-2,1l-0.6-1
			c-0.5,0-0.9,0.2-1.2,0.6c-0.4,0.4-0.6,0.9-0.6,1.6v4.4c0,0.1,0.1,0.1,0.3,0.1l2.3,0.5v1.1h-5.5l-0.2-1.1l1.3-0.3v-6.8h-1.1
			l-0.2-1.2c0.8-0.1,1.6-0.3,2.4-0.4L-397.5,171.9z"/>
		<path class="st5" d="M-369,179l0-3l-2.3-0.3l0.4-1.4h4v6.2c-1,0.2-2,0.4-3.2,0.4c-1.1,0-2.2-0.2-3-0.5c-0.9-0.3-1.7-0.8-2.3-1.4
			c-1.4-1.3-2.1-3-2.1-5.1c0-2.2,0.7-3.9,2-5.2c1.3-1.3,3-2,5.1-2c1,0,2.1,0.1,3.2,0.4l0.3,3.7h-1.5l-0.7-2.2
			c-0.4-0.1-0.9-0.1-1.5-0.1c-0.6,0-1.2,0.1-1.8,0.4c-0.6,0.3-1.1,0.6-1.5,1.1c-0.9,1-1.4,2.3-1.4,3.8c0,1.6,0.5,2.8,1.5,3.8
			c1,1,2.3,1.4,4,1.4C-369.7,179.1-369.3,179.1-369,179z"/>
		<path class="st5" d="M-362.3,171.9c0.5-0.6,1.2-0.9,2.1-0.9c0.6,0,1.1,0.1,1.5,0.4c0.4,0.3,0.7,0.7,0.9,1.1l-2,1l-0.6-1
			c-0.5,0-0.9,0.2-1.2,0.6c-0.4,0.4-0.6,0.9-0.6,1.6v4.4c0,0.1,0.1,0.1,0.3,0.1l2.3,0.5v1.1h-5.5l-0.2-1.1l1.3-0.3v-6.8h-1.1
			l-0.2-1.2c0.8-0.1,1.6-0.3,2.4-0.4L-362.3,171.9z"/>
		<path class="st5" d="M-351.6,179.9c-0.6,0.6-1.4,0.9-2.3,0.9c-0.9,0-1.7-0.3-2.2-0.8c-0.6-0.5-0.8-1.1-0.8-1.8
			c0-0.7,0.1-1.3,0.4-1.7c0.3-0.4,0.7-0.7,1.1-1c0.8-0.4,2-0.6,3.6-0.7v-1.4c0-0.3-0.1-0.5-0.4-0.7c-0.3-0.2-0.6-0.3-1.2-0.3
			c-0.5,0-0.9,0.1-1.1,0.3l-0.4,1.3l-2.1-0.6c0.3-1.1,1.1-1.9,2.3-2.3c0.4-0.1,0.9-0.2,1.5-0.2c1.1,0,1.9,0.3,2.4,0.8
			c0.6,0.5,0.8,1.2,0.8,2.1v5.2c0,0.3,0.1,0.4,0.3,0.4c0.1,0,0.2,0,0.4-0.1l0.4,1.1c-0.4,0.4-0.9,0.5-1.4,0.5
			C-350.9,180.8-351.4,180.5-351.6,179.9z M-354.5,179.1c0.1,0.1,0.3,0.2,0.5,0.2c0.2,0,0.3,0.1,0.5,0.1s0.4,0,0.6-0.1
			c0.2-0.1,0.4-0.2,0.5-0.3c0.3-0.2,0.5-0.5,0.6-0.8v-1.7c-0.9,0-1.5,0.1-2,0.2c-0.4,0.1-0.7,0.3-1,0.5c-0.2,0.2-0.3,0.5-0.3,0.8
			c0,0.3,0.1,0.6,0.2,0.7C-354.8,178.9-354.6,179-354.5,179.1z M-352.7,166.1l0.6-0.2l1.2,1.6l-3.4,2.5l-0.8-0.9L-352.7,166.1z"/>
		<path class="st5" d="M-348,171.1l0.1-0.2h1.5v-1.8c0-1,0.3-1.8,0.8-2.4c0.5-0.5,1.1-0.7,1.9-0.7c0.9,0,1.8,0.3,2.6,0.9
			c0.2,0.1,0.3,0.2,0.3,0.2l-1.4,1.7l-1.3-1.2c-0.1,0-0.2,0-0.3,0c-0.5,0-0.8,0.4-0.8,1.3v2.1h2.3c0.1,0,0.1,0,0.1,0.1v1.4h-2.4v6.9
			l2.3,0.3v1.1h-5.1l-0.2-1.1l1.2-0.2v-7h-1.4L-348,171.1z"/>
		<path class="st5" d="M-337.8,179.3l1.2,0.3v1.1h-4.1l-0.2-1.1l1.3-0.3v-6.9l-1.1,0.1l-0.2-1.2l2.5-0.4l0.6,0.6V179.3z
			 M-340.3,167.3c0-0.4,0.1-0.6,0.4-0.9c0.2-0.2,0.5-0.4,0.9-0.4c0.4,0,0.6,0.1,0.9,0.4c0.2,0.3,0.4,0.6,0.4,0.9
			c0,0.3-0.1,0.6-0.4,0.9c-0.2,0.2-0.5,0.4-0.9,0.4c-0.4,0-0.6-0.1-0.9-0.4C-340.1,167.9-340.3,167.6-340.3,167.3z"/>
		<path class="st5" d="M-328.2,179.9c-0.8,0.6-1.8,0.9-3,0.9c-1.2,0-2.2-0.4-3-1.2c-0.9-0.9-1.3-2.1-1.3-3.6c0-1.8,0.5-3.1,1.4-4
			c0.8-0.7,1.7-1.1,2.9-1.1c0.9,0,1.6,0.2,2.3,0.7c0.5,0.4,0.9,0.7,1.1,1.2l-2,1l-0.6-1.2c-0.3-0.1-0.5-0.1-0.7-0.1
			c-1.6,0-2.5,1.2-2.5,3.6c0,1,0.2,1.8,0.7,2.4c0.5,0.6,1.1,0.9,2,0.9c0.4,0,0.8-0.1,1.2-0.2c0.4-0.1,0.8-0.3,1-0.6L-328.2,179.9z"
			/>
		<path class="st5" d="M-326.8,175.8c0-0.8,0.1-1.5,0.3-2.1c0.2-0.6,0.5-1.1,1-1.5c0.8-0.8,1.8-1.3,3-1.3c1.2,0,2.3,0.4,3.1,1.3
			s1.2,2.1,1.2,3.6c0,1.6-0.4,2.8-1.3,3.7c-0.8,0.9-1.8,1.3-3,1.3c-1.3,0-2.3-0.5-3.1-1.4C-326.4,178.5-326.8,177.3-326.8,175.8z
			 M-324.9,176c0,1.1,0.2,1.9,0.6,2.5c0.4,0.6,1,0.8,1.7,0.8c0.7,0,1.3-0.3,1.7-0.8c0.4-0.5,0.7-1.4,0.7-2.5c0-1.1-0.2-2-0.6-2.6
			c-0.4-0.6-1-0.9-1.7-0.9c-0.8,0-1.4,0.3-1.8,1C-324.7,174.1-324.9,174.9-324.9,176z"/>
	</g>
</g>
<g>
	<g>
		<g>
			<path class="st4" d="M60.3,137.4l-7.6,0.3L65.3,148l6.4,0.7l0,8.5c-5,4.3-18.1,6.2-23.9-1.5c-1.1-1.3-2-2.9-2.8-4.4
				c-2.1-4-4.2-8-6.2-12c-0.4-0.9-1-1.2-2.1-0.8l0,13.9l3.3,1.1l0,6.6l-28.5,0.1l0-9.3l6.7-0.7l-0.1-29.8l-6.1-0.4l0-9.8h49.4
				l0.1,26.1C61.5,136.9,61,137.4,60.3,137.4z M45.1,121.5c-2.9,0-5.6,0-8.4,0c0,3.6,0,7.1,0,10.8c2.9-0.2,5.6-0.4,8.4-0.7
				C45.2,128.2,45.2,124.9,45.1,121.5z"/>
			<g>
				<path class="st4" d="M75.7,115.2v-1.7l7.6-6.8h2c0,0,7.3,6.6,7.3,6.8s0,1.7,0,1.7l-7.2,7h-2.1L75.7,115.2z"/>
				<path class="st4" d="M76.2,154c0,3.2,1.5,5.5,4.3,6.2c5.3,1.3,10.5,1,15.5-1.3c0.4-0.2,0.8-0.6,0.9-0.9c0.1-2.3,0-4.7,0-7.2
					l-4.3-0.3l0-24.7c-7.3,0-14.7,0-21.9,0c0,2.8,0,5.5,0,8.2l5.6,0.5L76.2,154z"/>
			</g>
			<g>
				<path class="st4" d="M165.3,115.2v-1.7l7.6-6.8h2c0,0,7.3,6.6,7.3,6.8s0,1.7,0,1.7l-7.2,7H173L165.3,115.2z"/>
				<path class="st4" d="M165.8,154c0,3.2,1.5,5.5,4.3,6.2c5.3,1.3,10.5,1,15.5-1.3c0.4-0.2,0.8-0.6,0.9-0.9c0.1-2.3,0-4.7,0-7.2
					l-4.3-0.3l0-24.7c-7.3,0-14.7,0-21.9,0c0,2.8,0,5.5,0,8.2l5.6,0.5L165.8,154z"/>
			</g>
			<path class="st4" d="M139.7,154.1c0,3.2,1.5,5.5,4.3,6.2c5.3,1.3,10.5,1,15.5-1.3c0.4-0.2,0.8-0.6,0.9-0.9c0.1-2.3,0-4.7,0-7.2
				l-4.3-0.3l0-41.9c-7.3,0-14.7,0-21.9,0c0,2.8,0,5.5,0,8.2l5.6,0.5L139.7,154.1z"/>
			<path class="st4" d="M134.4,148.1c0,3.1,0,5.9,0,8.7c0,0.4-0.5,0.8-0.9,1c-2.7,1.8-5.8,2.6-9,2.9c-4.5,0.5-9,0.5-13.2-1.1
				c-7.2-2.6-10.8-7.9-11.3-15.3c-0.5-8.7,3.7-16.2,12.5-18.6c4.8-1.3,9.7-1.4,14.5,0.6c4.7,1.9,7.2,5.6,7.7,10.5
				c0,0,0.5,3.9-0.4,8.1c0,0-14,0-14.4,0c0,0-2.4,0.1-3.6-1c-0.3-0.3-0.6,0-0.6,0c0.1,1.9,1.2,3.3,2.6,4.2c3,1.7,6.3,1.7,9.6,1.3
				c1.6-0.2,2.8-0.7,4-1.2L134.4,148.1z M120.8,135.2c-2.3-0.8-4.7,0.6-4.7,3.1c0,0.4,0,1,0,1h6.4
				C122.6,139.3,122.9,135.9,120.8,135.2z"/>
		</g>
	</g>
	<g>
		<path class="st4" d="M103.4,177.8v-0.4l1.6-1.5h0.4c0,0,1.6,1.4,1.6,1.5s0,0.4,0,0.4l-1.6,1.5H105L103.4,177.8z"/>
	</g>
	<g>
		<path class="st5" d="M41,180.3v-8.7l-1-0.1v-1.2h3.1c1.8,0,3.2,0.5,4.3,1.4c1.1,1,1.6,2.4,1.6,4.2c0,1.8-0.5,3.3-1.6,4.3
			c-1,1-2.5,1.5-4.3,1.5h-3.1l-0.2-1.2L41,180.3z M42.8,180.3c3,0,4.6-1.5,4.6-4.4c0-1.3-0.4-2.4-1.2-3.1c-0.8-0.7-1.8-1.1-3.1-1.1
			l-0.4,0v8.6L42.8,180.3z"/>
		<path class="st5" d="M56.5,175.9c0,0.3-0.1,0.7-0.2,1c-0.1,0.3-0.3,0.6-0.7,0.9c-0.8,0.6-2,0.9-3.7,0.9c0.2,0.9,0.6,1.4,1.3,1.7
			c0.3,0.1,0.5,0.1,0.8,0.1c0.3,0,0.6,0,0.8-0.1c0.2,0,0.4-0.1,0.5-0.2c0.3-0.1,0.5-0.3,0.6-0.4l0.4,1.2c-0.1,0.1-0.3,0.2-0.6,0.4
			c-1.1,0.5-2.2,0.5-3.3,0.1c-1-0.3-1.6-1-2-2c-0.2-0.5-0.3-1.1-0.3-1.8c0-0.7,0.1-1.3,0.3-1.8c0.2-0.5,0.5-0.9,0.8-1.3
			c0.7-0.7,1.5-1.1,2.5-1.1c0.7,0,1.3,0.2,1.8,0.6C56.2,174.7,56.5,175.2,56.5,175.9z M54.9,176c0-0.3-0.1-0.6-0.2-0.8
			c-0.2-0.2-0.4-0.3-0.7-0.3c-0.3,0-0.6,0-0.8,0.1c-0.2,0.1-0.4,0.2-0.6,0.4c-0.4,0.5-0.6,1.1-0.7,1.9c0.8,0,1.4-0.1,1.8-0.2
			c0.4-0.1,0.7-0.3,0.9-0.5C54.8,176.6,54.9,176.3,54.9,176z"/>
		<path class="st5" d="M60.5,173.7c0.4,0,0.7,0,1,0.1c0.3,0.1,0.6,0.2,0.8,0.4c0.4,0.3,0.7,0.7,1,1.1l-1.7,0.6l-0.4-0.8
			c-0.2-0.1-0.5-0.2-0.7-0.2c-0.3,0-0.5,0.1-0.7,0.2c-0.2,0.1-0.3,0.4-0.3,0.7c0,0.3,0.1,0.5,0.4,0.7c0.3,0.2,0.7,0.4,1.1,0.6
			c0.5,0.2,0.9,0.4,1.1,0.6c0.3,0.2,0.5,0.4,0.6,0.6c0.3,0.4,0.4,0.8,0.4,1.2s-0.1,0.8-0.2,1.1c-0.2,0.3-0.4,0.5-0.6,0.7
			c-0.5,0.4-1.2,0.5-1.9,0.5c-0.6,0-1.2-0.2-1.8-0.5c-0.5-0.3-0.9-0.7-1.1-1.2l1.7-0.6l0.4,1c0.3,0.1,0.5,0.2,0.7,0.2
			c0.2,0,0.4,0,0.5,0c0.1,0,0.3-0.1,0.4-0.1c0.3-0.2,0.4-0.4,0.4-0.7c0-0.4-0.3-0.7-0.8-0.9c-0.5-0.2-0.9-0.4-1.3-0.6
			c-0.4-0.2-0.7-0.4-0.9-0.6c-0.5-0.4-0.7-1-0.7-1.7c0-0.7,0.3-1.2,0.8-1.6C59.2,173.9,59.8,173.7,60.5,173.7z"/>
		<path class="st5" d="M66.8,180.6l1,0.3v0.9h-3.3l-0.2-0.9l1-0.2V175l-0.9,0.1l-0.2-1l2-0.4l0.5,0.5V180.6z M64.8,170.7
			c0-0.3,0.1-0.5,0.3-0.7c0.2-0.2,0.4-0.3,0.7-0.3c0.3,0,0.5,0.1,0.7,0.3c0.2,0.2,0.3,0.5,0.3,0.7c0,0.3-0.1,0.5-0.3,0.7
			c-0.2,0.2-0.4,0.3-0.7,0.3c-0.3,0-0.5-0.1-0.7-0.3C64.9,171.2,64.8,171,64.8,170.7z"/>
		<path class="st5" d="M70.1,179.2c-0.9-0.6-1.3-1.4-1.3-2.4c0-0.9,0.3-1.6,0.9-2.2c0.6-0.6,1.3-0.9,2.1-0.9c0.8,0,1.6,0.2,2.2,0.7
			l1.6-0.8l0.3,0l0.2,1.4l-1.5,0.2c0.3,0.5,0.4,1,0.4,1.5c0,0.5-0.1,1-0.3,1.3c-0.2,0.4-0.4,0.7-0.7,0.9c-0.6,0.5-1.3,0.7-2.2,0.7
			c-0.3,0-0.5,0-0.7-0.1l-0.4,0.6l0.1,0.3c0.1,0,0.3,0.1,0.7,0.1c0.4,0,0.8,0.1,1.3,0.2c0.5,0.1,0.9,0.3,1.2,0.4
			c0.3,0.2,0.6,0.4,0.8,0.6c0.3,0.4,0.5,0.8,0.5,1.4c0,0.6-0.1,1-0.3,1.4c-0.2,0.4-0.5,0.7-0.8,0.9c-0.7,0.5-1.4,0.7-2.4,0.7
			c-1,0-1.8-0.2-2.4-0.6c-0.7-0.5-1-1.1-1-1.8c0-1,0.5-1.8,1.4-2.2c-0.3-0.2-0.4-0.6-0.4-1.1S69.7,179.6,70.1,179.2z M74.1,183.6
			c0-0.3-0.2-0.6-0.5-0.7c-0.3-0.1-0.7-0.3-1.3-0.4c-0.5-0.1-1-0.2-1.3-0.3c-0.8,0.3-1.2,0.8-1.2,1.5c0,0.4,0.2,0.7,0.6,0.9
			c0.4,0.2,0.9,0.3,1.5,0.3c0.6,0,1.1-0.1,1.5-0.4C73.9,184.2,74.1,183.9,74.1,183.6z M71.9,174.9c-0.5,0-0.8,0.2-1.1,0.5
			c-0.3,0.3-0.4,0.7-0.4,1.1c0,0.4,0,0.7,0.1,0.9c0.1,0.2,0.2,0.4,0.3,0.5c0.3,0.3,0.6,0.4,1.1,0.4c0.4,0,0.8-0.1,1.1-0.4
			c0.3-0.3,0.4-0.7,0.4-1.3s-0.2-1-0.5-1.3C72.7,175.1,72.4,174.9,71.9,174.9L71.9,174.9z"/>
		<path class="st5" d="M79.3,174.3c0.5-0.4,1.2-0.6,2-0.6c1.2,0,1.9,0.4,2.3,1.3c0.1,0.3,0.2,0.6,0.2,1.1v4.6l1,0.3v0.9h-3.3
			l-0.2-0.9l1-0.2v-4.4c0-0.5-0.1-0.8-0.3-1c-0.2-0.2-0.5-0.3-0.9-0.3c-0.3,0-0.7,0.1-1,0.2c-0.3,0.1-0.6,0.3-0.7,0.4v5l1,0.3v0.9
			H77l-0.2-0.9l1-0.2V175l-0.9,0.1l-0.2-1c0.1,0,0.3-0.1,0.5-0.1c0.2,0,0.4-0.1,0.6-0.1c0.2,0,0.4-0.1,0.5-0.1
			c0.2,0,0.3-0.1,0.4-0.1L79.3,174.3z"/>
		<path class="st5" d="M91.8,175.9c0,0.3-0.1,0.7-0.2,1c-0.1,0.3-0.3,0.6-0.7,0.9c-0.8,0.6-2,0.9-3.7,0.9c0.2,0.9,0.6,1.4,1.3,1.7
			c0.3,0.1,0.5,0.1,0.8,0.1c0.3,0,0.6,0,0.8-0.1c0.2,0,0.4-0.1,0.5-0.2c0.3-0.1,0.5-0.3,0.6-0.4l0.4,1.2c-0.1,0.1-0.3,0.2-0.6,0.4
			c-1.1,0.5-2.2,0.5-3.3,0.1c-1-0.3-1.6-1-2-2c-0.2-0.5-0.3-1.1-0.3-1.8c0-0.7,0.1-1.3,0.3-1.8c0.2-0.5,0.5-0.9,0.8-1.3
			c0.7-0.7,1.5-1.1,2.5-1.1c0.7,0,1.3,0.2,1.8,0.6C91.5,174.7,91.8,175.2,91.8,175.9z M90.2,176c0-0.3-0.1-0.6-0.2-0.8
			c-0.2-0.2-0.4-0.3-0.7-0.3c-0.3,0-0.6,0-0.8,0.1c-0.2,0.1-0.4,0.2-0.6,0.4c-0.4,0.5-0.6,1.1-0.7,1.9c0.8,0,1.4-0.1,1.8-0.2
			c0.4-0.1,0.7-0.3,0.9-0.5C90.1,176.6,90.2,176.3,90.2,176z"/>
		<path class="st5" d="M95.3,174.5c0.4-0.5,1-0.8,1.7-0.8c0.5,0,0.9,0.1,1.2,0.4c0.3,0.2,0.6,0.5,0.8,0.9l-1.6,0.8l-0.5-0.8
			c-0.4,0-0.7,0.2-1,0.5c-0.3,0.3-0.5,0.7-0.5,1.3v3.6c0,0,0.1,0.1,0.3,0.1l1.9,0.4v0.9h-4.5l-0.2-0.9l1-0.2V175H93l-0.1-1
			c0.6-0.1,1.3-0.2,2-0.3L95.3,174.5z"/>
		<path class="st5" d="M118.6,180.3l0-2.4l-1.9-0.2l0.3-1.2h3.2v5c-0.8,0.2-1.7,0.3-2.6,0.3c-0.9,0-1.8-0.1-2.5-0.4
			c-0.7-0.3-1.4-0.6-1.9-1.1c-1.2-1-1.7-2.4-1.7-4.2c0-1.8,0.5-3.2,1.6-4.3c1.1-1.1,2.5-1.6,4.2-1.6c0.8,0,1.7,0.1,2.6,0.3l0.2,3
			H119l-0.6-1.8c-0.3-0.1-0.7-0.1-1.2-0.1c-0.5,0-1,0.1-1.5,0.3c-0.5,0.2-0.9,0.5-1.2,0.9c-0.8,0.9-1.1,1.9-1.1,3.2
			c0,1.3,0.4,2.3,1.2,3.1c0.8,0.8,1.9,1.2,3.2,1.2C118.1,180.4,118.4,180.4,118.6,180.3z"/>
		<path class="st5" d="M124.2,174.5c0.4-0.5,1-0.8,1.7-0.8c0.5,0,0.9,0.1,1.2,0.4c0.3,0.2,0.6,0.5,0.8,0.9l-1.6,0.8l-0.5-0.8
			c-0.4,0-0.7,0.2-1,0.5c-0.3,0.3-0.5,0.7-0.5,1.3v3.6c0,0,0.1,0.1,0.3,0.1l1.9,0.4v0.9h-4.5l-0.2-0.9l1-0.2V175h-0.9l-0.1-1
			c0.6-0.1,1.3-0.2,2-0.3L124.2,174.5z"/>
		<path class="st5" d="M132.9,181.1c-0.5,0.5-1.1,0.8-1.9,0.8c-0.8,0-1.4-0.2-1.8-0.6c-0.5-0.4-0.7-0.9-0.7-1.5
			c0-0.6,0.1-1.1,0.4-1.4c0.2-0.3,0.6-0.6,0.9-0.8c0.7-0.3,1.7-0.5,3-0.5v-1.2c0-0.2-0.1-0.4-0.3-0.6c-0.2-0.2-0.5-0.3-1-0.3
			c-0.4,0-0.7,0.1-0.9,0.3l-0.3,1.1l-1.7-0.5c0.3-0.9,0.9-1.5,1.9-1.9c0.4-0.1,0.8-0.2,1.2-0.2c0.9,0,1.5,0.2,2,0.6
			c0.5,0.4,0.7,1,0.7,1.7v4.2c0,0.2,0.1,0.3,0.2,0.3c0.1,0,0.2,0,0.3-0.1l0.4,0.9c-0.3,0.3-0.7,0.4-1.1,0.4
			C133.5,181.8,133.1,181.6,132.9,181.1z M130.6,180.4c0.1,0.1,0.2,0.1,0.4,0.2c0.1,0,0.3,0,0.4,0s0.3,0,0.5-0.1
			c0.2-0.1,0.3-0.2,0.4-0.3c0.2-0.2,0.4-0.4,0.5-0.7v-1.4c-0.7,0-1.3,0.1-1.6,0.2c-0.3,0.1-0.6,0.3-0.8,0.4
			c-0.2,0.2-0.3,0.4-0.3,0.7c0,0.3,0,0.5,0.1,0.6C130.3,180.2,130.4,180.3,130.6,180.4z M132,169.8l0.5-0.1l1,1.3l-2.8,2l-0.7-0.7
			L132,169.8z"/>
		<path class="st5" d="M135.9,173.9l0.1-0.2h1.2v-1.5c0-0.8,0.2-1.5,0.7-1.9c0.4-0.4,0.9-0.6,1.6-0.6c0.8,0,1.5,0.2,2.1,0.7
			c0.1,0.1,0.2,0.1,0.2,0.2l-1.2,1.4l-1.1-1c-0.1,0-0.1,0-0.2,0c-0.4,0-0.7,0.4-0.7,1.1v1.7h1.9c0.1,0,0.1,0,0.1,0.1v1.1h-2v5.6
			l1.9,0.3v0.9h-4.1l-0.2-0.9l0.9-0.2v-5.7h-1.1L135.9,173.9z"/>
		<path class="st5" d="M144.2,180.6l1,0.3v0.9h-3.3l-0.2-0.9l1-0.2V175l-0.9,0.1l-0.2-1l2-0.4l0.5,0.5V180.6z M142.2,170.7
			c0-0.3,0.1-0.5,0.3-0.7c0.2-0.2,0.4-0.3,0.7-0.3c0.3,0,0.5,0.1,0.7,0.3c0.2,0.2,0.3,0.5,0.3,0.7c0,0.3-0.1,0.5-0.3,0.7
			c-0.2,0.2-0.4,0.3-0.7,0.3c-0.3,0-0.5-0.1-0.7-0.3C142.3,171.2,142.2,171,142.2,170.7z"/>
		<path class="st5" d="M152.1,181.1c-0.7,0.5-1.5,0.8-2.4,0.8c-1,0-1.8-0.3-2.5-1c-0.7-0.7-1.1-1.7-1.1-3c0-1.4,0.4-2.5,1.2-3.3
			c0.6-0.6,1.4-0.9,2.4-0.9c0.7,0,1.3,0.2,1.9,0.6c0.4,0.3,0.7,0.6,0.9,0.9l-1.6,0.8l-0.5-1c-0.2-0.1-0.4-0.1-0.5-0.1
			c-1.3,0-2,1-2,2.9c0,0.8,0.2,1.5,0.6,2c0.4,0.5,0.9,0.7,1.6,0.7c0.3,0,0.6-0.1,1-0.2c0.3-0.1,0.6-0.3,0.8-0.5L152.1,181.1z"/>
		<path class="st5" d="M153.2,177.7c0-0.6,0.1-1.2,0.3-1.7c0.2-0.5,0.4-0.9,0.8-1.3c0.6-0.7,1.5-1,2.5-1c1,0,1.9,0.4,2.5,1.1
			c0.7,0.7,1,1.7,1,2.9c0,1.3-0.4,2.3-1.1,3c-0.7,0.7-1.5,1.1-2.5,1.1c-1,0-1.9-0.4-2.5-1.1C153.6,180,153.2,179,153.2,177.7z
			 M154.8,177.9c0,0.9,0.2,1.6,0.5,2c0.4,0.5,0.8,0.7,1.4,0.7c0.6,0,1-0.2,1.4-0.7c0.4-0.4,0.5-1.1,0.5-2c0-0.9-0.2-1.6-0.5-2.1
			c-0.3-0.5-0.8-0.8-1.4-0.8c-0.6,0-1.1,0.3-1.5,0.8C155,176.3,154.8,177,154.8,177.9z"/>
	</g>
</g>
</svg>
