<svg id="Layer_1" data-name="Layer 1" xmlns="http://www.w3.org/2000/svg" viewBox="0 0 174 54"><defs><style>.cls-1{fill:#780a46;}</style></defs><title>logo_rieli</title><path class="cls-1" d="M48.5,30.58,41,30.92,53.51,41.08l6.34.68,0,8.47c-5,4.27-18,6.18-23.77-1.45a28,28,0,0,1-2.8-4.36c-2.12-4-4.16-7.94-6.18-11.95A1.38,1.38,0,0,0,25,31.7l0,13.82,3.24,1.07v6.53L0,53.17l0-9.26,6.62-.69L6.56,13.59l-6-.43,0-9.77H49.62l.06,26A1.23,1.23,0,0,1,48.5,30.58ZM33.43,14.76l-8.33,0,0,10.71,8.33-.66Z"/><path class="cls-1" d="M63.86,8.49V6.83L71.41,0h2s7.3,6.61,7.3,6.72V8.44l-7.16,6.94H71.44Z"/><path class="cls-1" d="M64.35,47c0,3.18,1.48,5.44,4.25,6.12A23.25,23.25,0,0,0,84,51.88c.35-.16.84-.56.85-.86.07-2.32,0-4.64,0-7.15l-4.32-.25V19.11H58.79v8.16l5.57.53Z"/><path class="cls-1" d="M152.95,8.49V6.83L160.5,0h2s7.3,6.61,7.3,6.72V8.44l-7.16,6.94h-2.13Z"/><path class="cls-1" d="M153.44,47c0,3.18,1.48,5.44,4.25,6.12a23.25,23.25,0,0,0,15.42-1.28c.35-.16.84-.56.85-.86.07-2.32,0-4.64,0-7.15l-4.32-.25V19.11H147.88v8.16l5.57.53Z"/><path class="cls-1" d="M127.47,47.1c0,3.18,1.48,5.44,4.25,6.12a23.25,23.25,0,0,0,15.42-1.28c.35-.16.84-.56.85-.86.07-2.32,0-4.64,0-7.15l-4.32-.25V2H121.91v8.16l5.57.53Z"/><path class="cls-1" d="M122.19,41.15c0,3.06,0,5.84,0,8.61,0,.35-.52.77-.89,1a19.45,19.45,0,0,1-8.9,2.9c-4.45.48-8.9.46-13.17-1.11C92.07,49.95,88.44,44.72,88,37.33c-.55-8.64,3.63-16.11,12.41-18.48a22,22,0,0,1,14.38.55,11.94,11.94,0,0,1,7.67,10.47,28,28,0,0,1-.43,8H107.73s-2.41.11-3.58-1a.52.52,0,0,0-.63,0A4.92,4.92,0,0,0,106.1,41c3,1.71,6.24,1.68,9.51,1.29a18.23,18.23,0,0,0,4-1.15Zm-13.5-12.81c-2.29-.77-4.66.56-4.66,3.1v1h6.4S110.75,29.08,108.69,28.34Z"/></svg>