<?xml version="1.0" encoding="utf-8"?>
<!-- Generator: Adobe Illustrator 20.0.0, SVG Export Plug-In . SVG Version: 6.00 Build 0)  -->
<svg version="1.1" id="Layer_1" xmlns="http://www.w3.org/2000/svg" xmlns:xlink="http://www.w3.org/1999/xlink" x="0px" y="0px"
	 viewBox="0 0 213.7 97.2" style="enable-background:new 0 0 213.7 97.2;" xml:space="preserve">
<style type="text/css">
	.st0{fill:#1E323F;}
	.st1{fill:#A1FFFE;}
	.st2{fill:#9FFF82;}
	.st3{fill:#3A0922;}
	.st4{fill:#EFDE43;}
	.st5{fill:#F7EA92;}
	.st6{fill:#FFFFC8;}
	.st7{fill:#780A46;}
	.st8{fill:#500532;}
</style>
<g>
	<rect x="-1417.8" y="-828" class="st0" width="640" height="480"/>
</g>
<g>
	<g>
		<g>
			<rect x="-1388.5" y="-761.8" class="st1" width="27.4" height="6"/>
		</g>
		<g>
			<rect x="-1388.5" y="-750.8" class="st1" width="27.4" height="6"/>
		</g>
		<g>
			<rect x="-1388.5" y="-739.8" class="st1" width="27.4" height="6"/>
		</g>
	</g>
</g>
<g>
	<g>
		<g>
			<rect x="-1553.3" y="-761.8" class="st2" width="28" height="6"/>
		</g>
		<g>
			<rect x="-1553.3" y="-750.8" class="st2" width="28" height="6"/>
		</g>
		<g>
			<rect x="-1553.3" y="-739.8" class="st2" width="28" height="6"/>
		</g>
	</g>
</g>
<g>
	<text transform="matrix(1 0 0 1 -1389.5026 -782.6536)" class="st1" style="font-family:'Kreon-Bold'; font-size:22px;">bOTÕES</text>
</g>
<g>
	<text transform="matrix(1 0 0 1 -1106.5026 -782.6536)" style="fill:#0FDB66; font-family:'Kreon-Bold'; font-size:22px;">bOTÕES</text>
</g>
<g>
	<rect x="-715.8" y="-828" class="st3" width="640" height="480"/>
</g>
<g>
	<g>
		<g>
			<rect x="-686.5" y="-761.8" class="st1" width="27.4" height="6"/>
		</g>
		<g>
			<rect x="-686.5" y="-750.8" class="st1" width="27.4" height="6"/>
		</g>
		<g>
			<rect x="-686.5" y="-739.8" class="st1" width="27.4" height="6"/>
		</g>
	</g>
</g>
<g>
	<text transform="matrix(1 0 0 1 -687.5026 -782.6536)" class="st1" style="font-family:'Kreon-Bold'; font-size:22px;">bOTÕES</text>
</g>
<g>
	<text transform="matrix(1 0 0 1 -404.5026 -782.6536)" class="st4" style="font-family:'Kreon-Bold'; font-size:22px;">bOTÕES</text>
</g>
<g>
	<g>
		<path class="st4" d="M-475.5-533.5l-11.1,0.5l18.4,14.9l9.3,1v12.4c-7.3,6.3-26.4,9.1-34.9-2.1c-1.6-2-2.9-4.2-4.1-6.4
			c-3.1-5.8-6.1-11.7-9.1-17.5c-0.7-1.3-1.4-1.8-3.1-1.1v20.3l4.8,1.6v9.6h-41.4v-13.6l9.7-1l-0.1-43.5l-8.8-0.6v-14.3h72.1v38
			C-473.8-534.3-474.5-533.5-475.5-533.5z M-497.6-556.7c-4.2,0-8.2,0-12.2,0c0,5.2,0,10.4,0,15.7c4.2-0.3,8.2-0.7,12.2-1
			C-497.6-547-497.6-551.7-497.6-556.7z"/>
		<g>
			<path class="st4" d="M-453-565.9v-2.4l11.1-10h3c0,0,10.7,9.7,10.7,9.9s0,2.5,0,2.5l-10.5,10.1h-3.1L-453-565.9z"/>
			<path class="st4" d="M-452.2-509.3c0,4.7,2.2,8,6.2,9c7.7,1.9,15.3,1.4,22.6-1.9c0.5-0.2,1.2-0.8,1.2-1.3
				c0.1-3.4,0.1-6.8,0.1-10.5l-6.3-0.4v-36c-10.7,0-21.5,0-32,0c0,4.1,0,8,0,12l8.2,0.8V-509.3z"/>
		</g>
		<g>
			<path class="st4" d="M-322.2-565.9v-2.4l11.1-10h3c0,0,10.7,9.7,10.7,9.9s0,2.5,0,2.5l-10.5,10.2h-3.1L-322.2-565.9z"/>
			<path class="st4" d="M-321.5-509.3c0,4.7,2.2,8,6.2,9c7.7,1.9,15.3,1.4,22.6-1.9c0.5-0.2,1.2-0.8,1.2-1.3
				c0.1-3.4,0.1-6.8,0.1-10.5l-6.3-0.4v-36c-10.7,0-21.5,0-32,0c0,4.1,0,8,0,12l8.2,0.8V-509.3z"/>
		</g>
		<path class="st4" d="M-359.6-509.2c0,4.7,2.2,8,6.2,9c7.7,1.9,15.3,1.4,22.6-1.9c0.5-0.2,1.2-0.8,1.2-1.3
			c0.1-3.4,0.1-6.8,0.1-10.5l-6.3-0.4v-61.2c-10.7,0-21.5,0-32,0c0,4.1,0,8,0,12l8.2,0.8V-509.2z"/>
		<path class="st4" d="M-367.3-517.9c0,4.5,0,8.6-0.1,12.6c0,0.5-0.8,1.1-1.3,1.5c-3.9,2.6-8.4,3.8-13.1,4.2
			c-6.5,0.7-13.1,0.7-19.3-1.6c-10.4-3.8-15.8-11.5-16.5-22.4c-0.8-12.7,5.3-23.6,18.2-27.1c7.1-1.9,14.2-2,21.1,0.8
			c6.9,2.8,10.5,8.2,11.3,15.4c0,0,0.7,5.8-0.6,11.8c0,0-20.5,0-21,0c0,0-3.5,0.2-5.3-1.5c-0.4-0.4-0.9-0.1-0.9-0.1
			c0.1,2.8,1.7,4.9,3.8,6.1c4.4,2.5,9.2,2.5,14,1.9c2.3-0.4,4.1-1,5.9-1.7L-367.3-517.9z M-387.2-536.7c-3.4-1.1-6.8,0.8-6.8,4.6
			c0,0.6,0,1.5,0,1.5h9.4C-384.6-530.7-384.1-535.7-387.2-536.7z"/>
	</g>
</g>
<g>
	<rect x="-715.8" y="-240" class="st3" width="640" height="480"/>
</g>
<g>
	<rect x="-213.1" y="20.2" class="st5" width="27.6" height="6"/>
	<rect x="-213.1" y="31.3" class="st5" width="27.6" height="6"/>
	<rect x="-213.1" y="42.3" class="st5" width="27.6" height="6"/>
</g>
<g>
	
		<rect x="-223.2" y="-66.2" transform="matrix(0.7071 -0.7071 0.7071 0.7071 -16.6764 -166.5977)" class="st5" width="27.6" height="6"/>
	
		<rect x="-223.2" y="-66.2" transform="matrix(-0.7071 -0.7071 0.7071 -0.7071 -312.8685 -255.9318)" class="st5" width="27.6" height="6"/>
</g>
<g>
	<text transform="matrix(1 0 0 1 -687.5026 -194.6536)" class="st1" style="font-family:'Kreon-Bold'; font-size:22px;">bOTÕES</text>
</g>
<g>
	<text transform="matrix(1 0 0 1 -404.5026 -194.6536)" class="st4" style="font-family:'Kreon-Bold'; font-size:22px;">bOTÕES</text>
</g>
<g>
	<g>
		<path class="st4" d="M-71.8-367.8l-11.1,0.5l18.4,14.9l9.3,1v12.4c-7.3,6.3-26.4,9.1-34.9-2.1c-1.6-2-2.9-4.2-4.1-6.4
			c-3.1-5.8-6.1-11.7-9.1-17.5c-0.7-1.3-1.4-1.8-3.1-1.1v20.3l4.8,1.6v9.6H-143v-13.6l9.7-1l-0.1-43.5l-8.8-0.6v-14.3h72.1v38
			C-70.1-368.6-70.8-367.8-71.8-367.8z M-93.9-391c-4.2,0-8.2,0-12.2,0c0,5.2,0,10.4,0,15.7c4.2-0.3,8.2-0.7,12.2-1
			C-93.9-381.3-93.9-386-93.9-391z"/>
		<g>
			<path class="st4" d="M-49.3-400.2v-2.4l11.1-10h3c0,0,10.7,9.7,10.7,9.9c0,0.2,0,2.5,0,2.5L-35-390.1h-3.1L-49.3-400.2z"/>
			<path class="st4" d="M-48.5-343.6c0,4.7,2.2,8,6.2,9c7.7,1.9,15.3,1.4,22.6-1.9c0.5-0.2,1.2-0.8,1.2-1.3
				c0.1-3.4,0.1-6.8,0.1-10.5l-6.3-0.4v-36c-10.7,0-21.5,0-32,0c0,4.1,0,8,0,12l8.2,0.8L-48.5-343.6z"/>
		</g>
		<g>
			<path class="st4" d="M81.5-400.2v-2.4l11.1-10h3c0,0,10.7,9.7,10.7,9.9c0,0.2,0,2.5,0,2.5L95.8-390h-3.1L81.5-400.2z"/>
			<path class="st4" d="M82.2-343.6c0,4.7,2.2,8,6.2,9c7.7,1.9,15.3,1.4,22.6-1.9c0.5-0.2,1.2-0.8,1.2-1.3c0.1-3.4,0.1-6.8,0.1-10.5
				l-6.3-0.4v-36c-10.7,0-21.5,0-32,0c0,4.1,0,8,0,12l8.2,0.8V-343.6z"/>
		</g>
		<path class="st4" d="M44.1-343.5c0,4.7,2.2,8,6.2,9c7.7,1.9,15.3,1.4,22.6-1.9c0.5-0.2,1.2-0.8,1.2-1.3c0.1-3.4,0.1-6.8,0.1-10.5
			l-6.3-0.4v-61.2c-10.7,0-21.5,0-32,0c0,4.1,0,8,0,12l8.2,0.8V-343.5z"/>
		<path class="st4" d="M36.4-352.2c0,4.5,0,8.6-0.1,12.6c0,0.5-0.8,1.1-1.3,1.5c-3.9,2.6-8.4,3.8-13.1,4.2
			c-6.5,0.7-13.1,0.7-19.3-1.6c-10.4-3.8-15.8-11.5-16.5-22.4c-0.8-12.7,5.3-23.6,18.2-27.1c7.1-1.9,14.2-2,21.1,0.8
			c6.9,2.8,10.5,8.2,11.3,15.4c0,0,0.7,5.8-0.6,11.8c0,0-20.5,0-21,0c0,0-3.5,0.2-5.3-1.5c-0.4-0.4-0.9-0.1-0.9-0.1
			c0.1,2.8,1.7,4.9,3.8,6.1c4.4,2.5,9.2,2.5,14,1.9c2.3-0.4,4.1-1,5.9-1.7L36.4-352.2z M16.5-371c-3.4-1.1-6.8,0.8-6.8,4.6
			c0,0.6,0,1.5,0,1.5h9.4C19.1-365,19.6-370,16.5-371z"/>
	</g>
</g>
<rect x="187.6" y="-997.2" class="st6" width="1220.8" height="944.7"/>
<g>
	<g>
		<path class="st7" d="M609.6-568.9l-36.9,1.7l61.3,49.6l31,3.3l0.1,41.4C640.9-452,577.4-442.7,549-480
			c-5.3-6.6-9.7-13.9-13.7-21.3c-10.4-19.3-20.3-38.8-30.2-58.4c-2.2-4.3-4.7-6-10.2-3.8l0.1,67.5l15.9,5.2l0.1,31.9l-138.3,0.3
			l-0.1-45.2l32.3-3.4L404.6-652l-29.4-2.1l-0.1-47.7h240l0.3,126.9C615.4-571.7,612.8-569.1,609.6-568.9z M535.9-646.3
			c-14,0-27.2,0.1-40.7,0.1c0,17.5,0.1,34.5,0.1,52.3c13.9-1.1,27.2-2.2,40.7-3.2C536-613.9,536-629.7,535.9-646.3z"/>
		<g>
			<path class="st7" d="M684.6-676.9v-8.1l36.9-33.3h9.9c0,0,35.7,32.3,35.7,32.8c0,0.5,0,8.2,0,8.2l-35,33.9h-10.4L684.6-676.9z"/>
			<path class="st7" d="M687-488.5c0.1,15.5,7.3,26.6,20.8,29.9c25.7,6.3,51,4.7,75.4-6.3c1.7-0.8,4.1-2.7,4.1-4.2
				c0.3-11.3,0.2-22.7,0.2-35l-21.1-1.2l0-119.8c-35.5,0-71.6,0-106.5,0c0,13.6,0,26.6,0,39.9l27.2,2.6L687-488.5z"/>
		</g>
		<g>
			<path class="st7" d="M1120-676.9v-8.1l36.9-33.3h9.9c0,0,35.7,32.3,35.7,32.8c0,0.5,0,8.2,0,8.2l-35,33.9h-10.4L1120-676.9z"/>
			<path class="st7" d="M1122.4-488.5c0.1,15.5,7.3,26.6,20.8,29.9c25.7,6.3,51,4.7,75.4-6.3c1.7-0.8,4.1-2.7,4.1-4.2
				c0.3-11.3,0.2-22.7,0.2-35l-21.1-1.2l0-119.8c-35.5,0-71.6,0-106.5,0c0,13.6,0,26.6,0,39.9l27.2,2.6L1122.4-488.5z"/>
		</g>
		<path class="st7" d="M995.5-488.2c0.1,15.5,7.3,26.6,20.8,29.9c25.7,6.3,51,4.7,75.4-6.3c1.7-0.8,4.1-2.7,4.1-4.2
			c0.3-11.3,0.2-22.7,0.2-35l-21.1-1.2l0-203.8c-35.5,0-71.6,0-106.5,0c0,13.6,0,26.6,0,39.9l27.2,2.6L995.5-488.2z"/>
		<path class="st7" d="M969.7-517.3c0,15,0.2,28.5-0.2,42.1c0,1.7-2.5,3.8-4.4,5c-13.1,8.8-28.1,12.5-43.5,14.1
			c-21.7,2.3-43.5,2.2-64.4-5.4c-34.8-12.8-52.5-38.3-54.8-74.4c-2.7-42.2,17.7-78.7,60.7-90.3c23.5-6.4,47.3-6.7,70.3,2.7
			c22.9,9.4,35,27.4,37.5,51.2c0,0,2.2,19.2-2.1,39.2c0,0-68.1,0-69.8,0c0,0-11.8,0.5-17.5-4.9c-1.3-1.3-3.1-0.2-3.1-0.2
			c0.3,9.2,5.6,16.3,12.6,20.3c14.6,8.4,30.5,8.2,46.5,6.3c7.7-1.2,13.7-3.4,19.6-5.6L969.7-517.3z M903.7-579.9
			c-11.2-3.7-22.8,2.7-22.8,15.2c0,2.1,0,5.1,0,5.1h31.3C912.2-559.7,913.8-576.3,903.7-579.9z"/>
	</g>
	<g>
		<path class="st7" d="M819-372.6v-1.7l8-7.2h2.1c0,0,7.7,7,7.7,7.1c0,0.1,0,1.8,0,1.8l-7.5,7.3H827L819-372.6z"/>
	</g>
	<g>
		<path class="st8" d="M515.9-360.4v-42.4l-4.8-0.5v-6h15.2c8.8,0,15.7,2.3,20.9,7c5.3,4.8,8,11.6,8,20.5s-2.6,15.8-7.7,20.8
			c-5.1,4.9-12,7.4-20.9,7.4h-14.8l-0.8-5.7L515.9-360.4z M524.6-360.4c14.8,0,22.2-7.1,22.2-21.4c0-6.5-1.9-11.5-5.8-15.2
			c-3.8-3.5-8.8-5.3-15.1-5.3l-1.9,0.1v41.8L524.6-360.4z"/>
		<path class="st8" d="M591-382.1c0,1.7-0.3,3.3-0.8,4.9c-0.6,1.6-1.7,3-3.3,4.3c-3.7,2.9-9.6,4.4-17.9,4.5c0.9,4.2,3,7,6.5,8.4
			c1.2,0.5,2.6,0.7,4,0.7c1.5,0,2.7-0.1,3.7-0.4c1-0.2,1.9-0.5,2.7-0.8c1.5-0.7,2.5-1.3,3.1-1.9l1.8,5.6c-0.6,0.6-1.6,1.2-3,1.8
			c-5.4,2.2-10.6,2.4-15.8,0.6c-4.7-1.7-7.9-4.9-9.7-9.8c-0.9-2.4-1.4-5.3-1.4-8.5c0-3.3,0.5-6.1,1.5-8.6c1-2.5,2.3-4.6,3.9-6.2
			c3.2-3.4,7.3-5.2,12.1-5.2c3.5,0,6.5,0.9,9,2.8C589.8-388,591-385.4,591-382.1z M583.3-381.5c0-1.5-0.4-2.7-1.2-3.7
			c-0.8-1-2-1.5-3.5-1.5c-1.5,0-2.8,0.2-3.9,0.7c-1,0.5-2,1.2-2.9,2.2c-1.9,2.2-3,5.3-3.3,9.4c3.9,0,6.9-0.3,8.8-0.9
			c1.9-0.6,3.4-1.4,4.4-2.4C582.8-378.7,583.3-380,583.3-381.5z"/>
		<path class="st8" d="M610.5-392.8c1.7,0,3.3,0.2,4.8,0.7c1.5,0.5,2.7,1.1,3.8,1.9c2,1.4,3.6,3.2,4.8,5.4l-8.2,3.1l-1.9-4.1
			c-1.1-0.5-2.2-0.8-3.5-0.8c-1.2,0-2.4,0.4-3.4,1.1c-1,0.7-1.5,1.8-1.5,3.2c0,1.4,0.7,2.5,2,3.4c1.3,0.9,3.2,1.8,5.6,2.8
			c2.4,1,4.2,1.9,5.4,2.7c1.3,0.9,2.2,1.8,2.9,2.7c1.3,1.8,2,3.7,2,5.9s-0.4,4-1.2,5.4c-0.8,1.4-1.9,2.6-3.1,3.5
			c-2.5,1.7-5.6,2.6-9.2,2.6c-3,0-5.9-0.8-8.8-2.5c-2.6-1.6-4.4-3.6-5.2-6l8.3-3.1l1.9,4.7c1.2,0.5,2.4,0.8,3.4,0.8
			c1,0,1.9-0.1,2.5-0.2c0.6-0.2,1.2-0.4,1.8-0.7c1.2-0.8,1.9-2,1.9-3.5c0-2-1.2-3.5-3.7-4.6c-2.4-1-4.5-2-6.3-2.9
			c-1.7-0.9-3.2-1.8-4.4-2.7c-2.4-2-3.6-4.7-3.6-8.1c0-3.3,1.3-5.9,4-7.9C604.1-391.9,607.1-392.8,610.5-392.8z"/>
		<path class="st8" d="M641.3-359.2l4.8,1.3v4.4H630l-0.9-4.4l5-1.1v-27.4l-4.4,0.3l-0.8-4.8l9.9-1.8l2.6,2.6V-359.2z M631.5-407.3
			c0-1.4,0.5-2.6,1.5-3.5s2.1-1.5,3.5-1.5c1.4,0,2.6,0.5,3.5,1.5c1,1,1.5,2.2,1.5,3.5c0,1.3-0.5,2.5-1.5,3.5c-1,1-2.2,1.5-3.5,1.5
			c-1.4,0-2.6-0.5-3.5-1.5C632-404.7,631.5-405.9,631.5-407.3z"/>
		<path class="st8" d="M657.1-366.1c-4.1-2.7-6.2-6.7-6.2-11.9c0-4.3,1.5-7.8,4.4-10.6c2.8-2.8,6.3-4.2,10.4-4.2
			c4.1,0,7.6,1.2,10.5,3.5l8-4l1.7,0.2l0.8,6.7l-7.3,0.9c1.3,2.4,1.9,4.8,1.9,7.3c0,2.5-0.4,4.6-1.3,6.4c-0.9,1.8-2.1,3.3-3.5,4.4
			c-2.8,2.4-6.3,3.5-10.5,3.5c-1.3,0-2.5-0.1-3.5-0.3l-2,3.1l0.3,1.4c0.5,0.1,1.7,0.3,3.5,0.5c1.8,0.2,3.8,0.6,6.1,1.2
			c2.3,0.5,4.3,1.2,5.9,2.1c1.6,0.8,2.9,1.7,3.9,2.7c1.6,1.8,2.4,4,2.4,6.7c0,2.7-0.5,4.9-1.5,6.8c-1,1.8-2.2,3.4-3.8,4.6
			c-3.2,2.4-7,3.6-11.6,3.6c-4.8,0-8.8-1-11.8-3.1c-3.3-2.2-4.9-5.2-4.9-9c0-5.1,2.2-8.7,6.7-10.9c-1.3-1.1-1.9-2.8-1.9-5.1
			S655-364,657.1-366.1z M676.6-344.8c0-1.7-0.7-2.9-2.2-3.5s-3.5-1.3-6.2-1.9c-2.7-0.6-4.7-1.1-6.2-1.5c-3.8,1.6-5.7,3.9-5.7,7.1
			c0,1.8,1,3.3,3,4.4c1.8,1.1,4.2,1.6,7.1,1.6c2.8,0,5.2-0.6,7.2-1.9C675.6-341.6,676.6-343.1,676.6-344.8z M665.8-386.7
			c-2.2,0.1-4,0.9-5.3,2.5c-1.3,1.6-2,3.3-2,5.3c0,2,0.2,3.5,0.6,4.6c0.4,1.1,1,1.9,1.7,2.6c1.3,1.3,3.1,2,5.3,2
			c2.2,0,4-0.7,5.4-2.2c1.5-1.5,2.2-3.5,2.2-6.3s-0.8-4.8-2.3-6.3c-1.5-1.5-3.3-2.2-5.4-2.2H665.8z"/>
		<path class="st8" d="M701.7-389.8c2.6-2,5.8-3,9.7-3c5.6,0,9.3,2,11,6.1c0.6,1.4,0.9,3.1,0.9,5.2v22.2l4.8,1.4v4.4h-16l-1-4.4
			l4.9-1.1v-21.2c0-2.4-0.6-4.1-1.7-5c-1.1-0.9-2.5-1.3-4.2-1.3c-1.7,0-3.3,0.3-4.8,1c-1.6,0.7-2.7,1.4-3.4,2.1v24.2l4.7,1.3v4.4
			h-16l-1-4.4l5.1-1.1v-27.4l-4.4,0.3l-0.8-4.8c0.7-0.1,1.5-0.3,2.4-0.4c0.9-0.2,1.8-0.4,2.7-0.5c0.9-0.2,1.8-0.3,2.7-0.4
			c0.9-0.1,1.6-0.3,2.1-0.4L701.7-389.8z"/>
		<path class="st8" d="M762.4-382.1c0,1.7-0.3,3.3-0.8,4.9c-0.6,1.6-1.7,3-3.3,4.3c-3.7,2.9-9.6,4.4-17.9,4.5c0.9,4.2,3,7,6.5,8.4
			c1.2,0.5,2.6,0.7,4,0.7c1.5,0,2.7-0.1,3.7-0.4c1-0.2,1.9-0.5,2.7-0.8c1.5-0.7,2.5-1.3,3.1-1.9l1.8,5.6c-0.6,0.6-1.6,1.2-3,1.8
			c-5.4,2.2-10.6,2.4-15.8,0.6c-4.7-1.7-7.9-4.9-9.7-9.8c-0.9-2.4-1.4-5.3-1.4-8.5c0-3.3,0.5-6.1,1.5-8.6c1-2.5,2.3-4.6,3.9-6.2
			c3.2-3.4,7.3-5.2,12.1-5.2c3.5,0,6.5,0.9,9,2.8C761.2-388,762.4-385.4,762.4-382.1z M754.8-381.5c0-1.5-0.4-2.7-1.2-3.7
			c-0.8-1-2-1.5-3.5-1.5c-1.5,0-2.8,0.2-3.9,0.7c-1,0.5-2,1.2-2.9,2.2c-1.9,2.2-3,5.3-3.3,9.4c3.9,0,6.9-0.3,8.8-0.9
			c1.9-0.6,3.4-1.4,4.4-2.4C754.3-378.7,754.8-380,754.8-381.5z"/>
		<path class="st8" d="M779.7-389c2.2-2.5,4.9-3.7,8.4-3.7c2.4,0,4.4,0.6,6,1.8c1.6,1.2,2.9,2.6,3.7,4.4l-8,4l-2.5-3.9
			c-1.8,0-3.5,0.8-4.9,2.3c-1.5,1.6-2.3,3.6-2.3,6.2v17.4c0,0.2,0.5,0.4,1.4,0.6l9.1,1.9v4.4h-21.8l-1-4.4l5-1.1v-27.2h-4.4
			l-0.7-4.8c3-0.5,6.2-1,9.5-1.7L779.7-389z"/>
		<path class="st8" d="M893.1-360.5l0.1-11.9l-9.2-1.1l1.5-5.7h15.7v24.5c-3.9,1-8.1,1.5-12.7,1.5c-4.6,0-8.6-0.6-12.1-1.9
			c-3.5-1.2-6.6-3-9.2-5.4c-5.6-5-8.4-11.7-8.4-20.2c0-8.6,2.6-15.5,7.8-20.7c5.2-5.2,12-7.8,20.2-7.8c4,0,8.2,0.6,12.6,1.7
			l1.2,14.6h-5.9l-2.9-9c-1.6-0.3-3.6-0.4-6-0.4c-2.4,0-4.7,0.5-7.1,1.6c-2.4,1.1-4.4,2.6-6,4.4c-3.7,4.1-5.5,9.2-5.5,15.3
			c0,6.3,1.9,11.3,5.8,15.1c3.9,3.8,9.2,5.7,15.7,5.7C890.5-360.2,892-360.3,893.1-360.5z"/>
		<path class="st8" d="M920-389c2.2-2.5,4.9-3.7,8.4-3.7c2.4,0,4.4,0.6,6,1.8c1.6,1.2,2.9,2.6,3.7,4.4l-8,4l-2.5-3.9
			c-1.8,0-3.5,0.8-4.9,2.3c-1.5,1.6-2.3,3.6-2.3,6.2v17.4c0,0.2,0.5,0.4,1.4,0.6l9.1,1.9v4.4h-21.8l-1-4.4l5-1.1v-27.2h-4.4L908-391
			c3-0.5,6.2-1,9.5-1.7L920-389z"/>
		<path class="st8" d="M962.4-356.9c-2.4,2.5-5.4,3.7-9,3.7c-3.7,0-6.6-1-8.8-3.1c-2.2-2-3.3-4.5-3.3-7.3c0-2.8,0.6-5.1,1.7-6.8
			c1.2-1.7,2.7-3,4.6-4c3.3-1.7,8.1-2.6,14.4-2.7v-5.7c0-1.1-0.5-2.1-1.5-2.9c-1-0.9-2.5-1.3-4.6-1.3c-2,0-3.5,0.4-4.4,1.3l-1.6,5.2
			l-8.5-2.5c1.2-4.5,4.3-7.5,9.1-9c1.7-0.5,3.7-0.8,5.8-0.8c4.2,0,7.4,1,9.6,3.1c2.2,2.1,3.3,4.8,3.3,8.2v20.6
			c0,1.1,0.4,1.7,1.1,1.7c0.4,0,0.9-0.2,1.7-0.6l1.8,4.3c-1.7,1.4-3.5,2.1-5.6,2.1C965.1-353.3,963.2-354.5,962.4-356.9z
			 M950.9-360.2c0.6,0.4,1.2,0.7,1.9,0.8c0.6,0.1,1.4,0.2,2.2,0.2s1.6-0.2,2.5-0.5c0.8-0.3,1.5-0.8,2.1-1.3c1.1-0.9,1.9-1.9,2.3-3.2
			v-6.9c-3.5,0-6.2,0.3-7.8,0.8c-1.7,0.6-3,1.3-3.9,2.2c-0.9,0.9-1.4,2-1.4,3.3c0,1.3,0.2,2.3,0.6,3
			C949.9-361.1,950.4-360.6,950.9-360.2z M958.2-411.8l2.6-0.6l4.8,6.5l-13.4,9.8l-3.3-3.5L958.2-411.8z"/>
		<path class="st8" d="M976.7-392l0.6-0.8h6v-7.3c0-4.1,1.1-7.2,3.3-9.4c1.9-1.9,4.5-2.9,7.7-2.9c3.7,0,7.1,1.1,10.3,3.4
			c0.6,0.4,1,0.7,1.2,0.9l-5.7,6.7l-5.2-4.8c-0.3-0.1-0.7-0.2-1.1-0.2c-2.2,0-3.2,1.8-3.2,5.3v8.3h9.1c0.3,0,0.4,0.2,0.4,0.5v5.6
			h-9.5v27.4l9.2,1.4v4.4h-20.2l-1-4.4l4.6-1v-27.8h-5.5L976.7-392z"/>
		<path class="st8" d="M1017.4-359.2l4.8,1.3v4.4H1006l-0.9-4.4l5-1.1v-27.4l-4.4,0.3l-0.8-4.8l9.9-1.8l2.6,2.6V-359.2z
			 M1007.6-407.3c0-1.4,0.5-2.6,1.5-3.5s2.1-1.5,3.5-1.5c1.4,0,2.6,0.5,3.5,1.5c1,1,1.5,2.2,1.5,3.5c0,1.3-0.5,2.5-1.5,3.5
			c-1,1-2.2,1.5-3.5,1.5c-1.4,0-2.6-0.5-3.5-1.5C1008-404.7,1007.6-405.9,1007.6-407.3z"/>
		<path class="st8" d="M1055.7-357c-3.2,2.5-7.1,3.7-11.8,3.7c-4.8,0-8.8-1.6-11.9-4.7c-3.5-3.4-5.3-8.3-5.3-14.4
			c0-7,1.9-12.4,5.6-16c3-2.9,6.9-4.4,11.7-4.4c3.5,0,6.5,0.9,9.1,2.7c2.1,1.5,3.5,3,4.2,4.6l-8,3.8l-2.6-4.7
			c-1.1-0.3-2-0.4-2.7-0.4c-6.5,0-9.8,4.7-9.8,14.2c0,4,1,7.2,2.9,9.6c2,2.4,4.6,3.6,7.8,3.6c1.5,0,3.1-0.3,4.8-0.8
			c1.7-0.6,3-1.4,4.1-2.5L1055.7-357z"/>
		<path class="st8" d="M1061.1-373.3c0-3.1,0.5-5.9,1.4-8.3c0.9-2.4,2.2-4.5,3.8-6.1c3.1-3.3,7.1-5,11.9-5c4.9,0,9,1.8,12.3,5.3
			s4.8,8.3,4.8,14.3c0,6.2-1.7,11.2-5.2,14.8c-3.2,3.4-7.1,5.2-11.9,5.2c-5,0-9.1-1.8-12.3-5.5
			C1062.7-362.4,1061.1-367.2,1061.1-373.3z M1068.8-372.5c0,4.3,0.9,7.6,2.6,9.8c1.7,2.2,4,3.3,6.8,3.3c2.8,0,5.1-1.1,6.9-3.3
			c1.8-2.2,2.7-5.5,2.7-10c0-4.5-0.8-7.9-2.5-10.4c-1.7-2.5-4-3.7-6.9-3.7c-3.1,0-5.4,1.3-7.1,4
			C1069.5-380.3,1068.8-376.8,1068.8-372.5z"/>
	</g>
</g>
<g>
	<g>
		<g>
			<path class="st4" d="M-451.8,37.5l-9.3,0.4l15.4,12.5l7.8,0.8l0,10.4c-6.1,5.2-22,7.6-29.2-1.8c-1.3-1.6-2.4-3.5-3.4-5.4
				c-2.6-4.9-5.1-9.8-7.6-14.7c-0.5-1.1-1.2-1.5-2.6-0.9l0,17l4,1.3l0,8l-34.8,0.1l0-11.4l8.1-0.8l-0.1-36.4l-7.4-0.5l0-12h60.3
				l0.1,31.9C-450.3,36.8-451,37.5-451.8,37.5z M-470.3,18.1c-3.5,0-6.8,0-10.2,0c0,4.4,0,8.7,0,13.1c3.5-0.3,6.8-0.5,10.2-0.8
				C-470.3,26.2-470.3,22.2-470.3,18.1z"/>
			<g>
				<path class="st4" d="M-432.9,10.4v-2l9.3-8.4h2.5c0,0,9,8.1,9,8.3c0,0.1,0,2.1,0,2.1l-8.8,8.5h-2.6L-432.9,10.4z"/>
				<path class="st4" d="M-432.3,57.7c0,3.9,1.8,6.7,5.2,7.5c6.5,1.6,12.8,1.2,18.9-1.6c0.4-0.2,1-0.7,1-1.1c0.1-2.8,0-5.7,0-8.8
					l-5.3-0.3l0-30.1c-8.9,0-18,0-26.8,0c0,3.4,0,6.7,0,10l6.8,0.7L-432.3,57.7z"/>
			</g>
			<g>
				<path class="st4" d="M-323.5,10.4v-2l9.3-8.4h2.5c0,0,9,8.1,9,8.3c0,0.1,0,2.1,0,2.1l-8.8,8.5h-2.6L-323.5,10.4z"/>
				<path class="st4" d="M-322.9,57.7c0,3.9,1.8,6.7,5.2,7.5c6.5,1.6,12.8,1.2,18.9-1.6c0.4-0.2,1-0.7,1-1.1c0.1-2.8,0-5.7,0-8.8
					l-5.3-0.3l0-30.1c-8.9,0-18,0-26.8,0c0,3.4,0,6.7,0,10l6.8,0.7L-322.9,57.7z"/>
			</g>
			<path class="st4" d="M-354.8,57.8c0,3.9,1.8,6.7,5.2,7.5c6.5,1.6,12.8,1.2,18.9-1.6c0.4-0.2,1-0.7,1-1.1c0.1-2.8,0-5.7,0-8.8
				l-5.3-0.3l0-51.2c-8.9,0-18,0-26.8,0c0,3.4,0,6.7,0,10l6.8,0.7L-354.8,57.8z"/>
			<path class="st4" d="M-361.3,50.5c0,3.8,0,7.2-0.1,10.6c0,0.4-0.6,0.9-1.1,1.3c-3.3,2.2-7.1,3.1-10.9,3.6
				c-5.5,0.6-10.9,0.6-16.2-1.4c-8.7-3.2-13.2-9.6-13.8-18.7c-0.7-10.6,4.5-19.8,15.2-22.7c5.9-1.6,11.9-1.7,17.7,0.7
				c5.8,2.4,8.8,6.9,9.4,12.9c0,0,0.5,4.8-0.5,9.9c0,0-17.1,0-17.5,0c0,0-3,0.1-4.4-1.2c-0.3-0.3-0.8-0.1-0.8-0.1
				c0.1,2.3,1.4,4.1,3.2,5.1c3.7,2.1,7.7,2.1,11.7,1.6c1.9-0.3,3.4-0.8,4.9-1.4L-361.3,50.5z M-377.9,34.8c-2.8-0.9-5.7,0.7-5.7,3.8
				c0,0.5,0,1.3,0,1.3h7.9C-375.7,39.8-375.3,35.7-377.9,34.8z"/>
		</g>
	</g>
	<g>
		<path class="st4" d="M-399.2,86.8v-0.4l2-1.8h0.5c0,0,1.9,1.8,1.9,1.8s0,0.4,0,0.4l-1.9,1.8h-0.6L-399.2,86.8z"/>
	</g>
	<g>
		<path class="st5" d="M-475.3,89.9V79.2l-1.2-0.1v-1.5h3.8c2.2,0,4,0.6,5.2,1.8c1.3,1.2,2,2.9,2,5.1c0,2.2-0.6,4-1.9,5.2
			c-1.3,1.2-3,1.9-5.2,1.9h-3.7l-0.2-1.4L-475.3,89.9z M-473.1,89.9c3.7,0,5.6-1.8,5.6-5.4c0-1.6-0.5-2.9-1.5-3.8
			c-0.9-0.9-2.2-1.3-3.8-1.3l-0.5,0v10.5L-473.1,89.9z"/>
		<path class="st5" d="M-456.4,84.4c0,0.4-0.1,0.8-0.2,1.2c-0.1,0.4-0.4,0.8-0.8,1.1c-0.9,0.7-2.4,1.1-4.5,1.1
			c0.2,1.1,0.8,1.8,1.6,2.1c0.3,0.1,0.6,0.2,1,0.2c0.4,0,0.7,0,0.9-0.1c0.3-0.1,0.5-0.1,0.7-0.2c0.4-0.2,0.6-0.3,0.8-0.5l0.4,1.4
			c-0.1,0.1-0.4,0.3-0.7,0.4c-1.4,0.6-2.7,0.6-4,0.1c-1.2-0.4-2-1.2-2.4-2.5c-0.2-0.6-0.3-1.3-0.3-2.1c0-0.8,0.1-1.5,0.4-2.2
			c0.2-0.6,0.6-1.2,1-1.6c0.8-0.9,1.8-1.3,3-1.3c0.9,0,1.6,0.2,2.2,0.7C-456.8,83-456.4,83.6-456.4,84.4z M-458.4,84.6
			c0-0.4-0.1-0.7-0.3-0.9c-0.2-0.2-0.5-0.4-0.9-0.4c-0.4,0-0.7,0.1-1,0.2c-0.3,0.1-0.5,0.3-0.7,0.5c-0.5,0.6-0.7,1.3-0.8,2.4
			c1,0,1.7-0.1,2.2-0.2c0.5-0.2,0.9-0.4,1.1-0.6C-458.5,85.3-458.4,85-458.4,84.6z"/>
		<path class="st5" d="M-451.5,81.8c0.4,0,0.8,0.1,1.2,0.2c0.4,0.1,0.7,0.3,1,0.5c0.5,0.4,0.9,0.8,1.2,1.4l-2.1,0.8l-0.5-1
			c-0.3-0.1-0.6-0.2-0.9-0.2c-0.3,0-0.6,0.1-0.9,0.3c-0.3,0.2-0.4,0.4-0.4,0.8c0,0.4,0.2,0.6,0.5,0.9c0.3,0.2,0.8,0.5,1.4,0.7
			c0.6,0.2,1,0.5,1.4,0.7c0.3,0.2,0.6,0.4,0.7,0.7c0.3,0.4,0.5,0.9,0.5,1.5s-0.1,1-0.3,1.3c-0.2,0.4-0.5,0.6-0.8,0.9
			c-0.6,0.4-1.4,0.6-2.3,0.6c-0.8,0-1.5-0.2-2.2-0.6c-0.7-0.4-1.1-0.9-1.3-1.5l2.1-0.8l0.5,1.2c0.3,0.1,0.6,0.2,0.9,0.2
			c0.3,0,0.5,0,0.6-0.1c0.2,0,0.3-0.1,0.4-0.2c0.3-0.2,0.5-0.5,0.5-0.9c0-0.5-0.3-0.9-0.9-1.1c-0.6-0.3-1.1-0.5-1.6-0.7
			c-0.4-0.2-0.8-0.4-1.1-0.7c-0.6-0.5-0.9-1.2-0.9-2c0-0.8,0.3-1.5,1-2C-453.1,82-452.4,81.8-451.5,81.8z"/>
		<path class="st5" d="M-443.8,90.2l1.2,0.3v1.1h-4.1l-0.2-1.1l1.3-0.3v-6.9l-1.1,0.1l-0.2-1.2l2.5-0.4l0.6,0.6V90.2z M-446.3,78.1
			c0-0.4,0.1-0.6,0.4-0.9c0.2-0.2,0.5-0.4,0.9-0.4c0.4,0,0.6,0.1,0.9,0.4c0.2,0.3,0.4,0.6,0.4,0.9c0,0.3-0.1,0.6-0.4,0.9
			c-0.2,0.2-0.5,0.4-0.9,0.4c-0.4,0-0.6-0.1-0.9-0.4C-446.2,78.8-446.3,78.5-446.3,78.1z"/>
		<path class="st5" d="M-439.8,88.5c-1-0.7-1.6-1.7-1.6-3c0-1.1,0.4-2,1.1-2.7c0.7-0.7,1.6-1.1,2.6-1.1c1,0,1.9,0.3,2.6,0.9l2-1
			l0.4,0.1l0.2,1.7l-1.8,0.2c0.3,0.6,0.5,1.2,0.5,1.8c0,0.6-0.1,1.2-0.3,1.6s-0.5,0.8-0.9,1.1c-0.7,0.6-1.6,0.9-2.6,0.9
			c-0.3,0-0.6,0-0.9-0.1l-0.5,0.8l0.1,0.3c0.1,0,0.4,0.1,0.9,0.1c0.4,0.1,1,0.2,1.5,0.3c0.6,0.1,1.1,0.3,1.5,0.5
			c0.4,0.2,0.7,0.4,1,0.7c0.4,0.4,0.6,1,0.6,1.7c0,0.7-0.1,1.2-0.4,1.7c-0.2,0.5-0.6,0.8-1,1.2c-0.8,0.6-1.8,0.9-2.9,0.9
			c-1.2,0-2.2-0.3-3-0.8c-0.8-0.6-1.2-1.3-1.2-2.2c0-1.3,0.6-2.2,1.7-2.7c-0.3-0.3-0.5-0.7-0.5-1.3S-440.4,89-439.8,88.5z
			 M-434.9,93.8c0-0.4-0.2-0.7-0.6-0.9c-0.4-0.2-0.9-0.3-1.6-0.5c-0.7-0.1-1.2-0.3-1.5-0.4c-1,0.4-1.4,1-1.4,1.8
			c0,0.4,0.2,0.8,0.7,1.1c0.5,0.3,1.1,0.4,1.8,0.4c0.7,0,1.3-0.2,1.8-0.5C-435.2,94.6-434.9,94.3-434.9,93.8z M-437.6,83.3
			c-0.6,0-1,0.2-1.3,0.6c-0.3,0.4-0.5,0.8-0.5,1.3c0,0.5,0.1,0.9,0.2,1.1c0.1,0.3,0.2,0.5,0.4,0.6c0.3,0.3,0.8,0.5,1.3,0.5
			c0.5,0,1-0.2,1.4-0.5c0.4-0.4,0.5-0.9,0.5-1.6s-0.2-1.2-0.6-1.6C-436.6,83.5-437,83.3-437.6,83.3L-437.6,83.3z"/>
		<path class="st5" d="M-428.6,82.5c0.6-0.5,1.5-0.7,2.4-0.7c1.4,0,2.3,0.5,2.8,1.5c0.1,0.4,0.2,0.8,0.2,1.3v5.6l1.2,0.3v1.1h-4
			l-0.2-1.1l1.2-0.3v-5.3c0-0.6-0.1-1-0.4-1.2c-0.3-0.2-0.6-0.3-1.1-0.3c-0.4,0-0.8,0.1-1.2,0.3c-0.4,0.2-0.7,0.4-0.9,0.5v6.1
			l1.2,0.3v1.1h-4l-0.2-1.1l1.3-0.3v-6.9l-1.1,0.1l-0.2-1.2c0.2,0,0.4-0.1,0.6-0.1c0.2,0,0.5-0.1,0.7-0.1c0.2,0,0.5-0.1,0.7-0.1
			c0.2,0,0.4-0.1,0.5-0.1L-428.6,82.5z"/>
		<path class="st5" d="M-413.4,84.4c0,0.4-0.1,0.8-0.2,1.2c-0.1,0.4-0.4,0.8-0.8,1.1c-0.9,0.7-2.4,1.1-4.5,1.1
			c0.2,1.1,0.8,1.8,1.6,2.1c0.3,0.1,0.6,0.2,1,0.2c0.4,0,0.7,0,0.9-0.1c0.3-0.1,0.5-0.1,0.7-0.2c0.4-0.2,0.6-0.3,0.8-0.5l0.4,1.4
			c-0.1,0.1-0.4,0.3-0.7,0.4c-1.4,0.6-2.7,0.6-4,0.1c-1.2-0.4-2-1.2-2.4-2.5c-0.2-0.6-0.3-1.3-0.3-2.1c0-0.8,0.1-1.5,0.4-2.2
			c0.2-0.6,0.6-1.2,1-1.6c0.8-0.9,1.8-1.3,3-1.3c0.9,0,1.6,0.2,2.2,0.7C-413.7,83-413.4,83.6-413.4,84.4z M-415.3,84.6
			c0-0.4-0.1-0.7-0.3-0.9c-0.2-0.2-0.5-0.4-0.9-0.4c-0.4,0-0.7,0.1-1,0.2c-0.3,0.1-0.5,0.3-0.7,0.5c-0.5,0.6-0.7,1.3-0.8,2.4
			c1,0,1.7-0.1,2.2-0.2c0.5-0.2,0.9-0.4,1.1-0.6C-415.4,85.3-415.3,85-415.3,84.6z"/>
		<path class="st5" d="M-409,82.7c0.5-0.6,1.2-0.9,2.1-0.9c0.6,0,1.1,0.1,1.5,0.4c0.4,0.3,0.7,0.7,0.9,1.1l-2,1l-0.6-1
			c-0.5,0-0.9,0.2-1.2,0.6c-0.4,0.4-0.6,0.9-0.6,1.6v4.4c0,0.1,0.1,0.1,0.3,0.1l2.3,0.5v1.1h-5.5l-0.2-1.1l1.3-0.3v-6.8h-1.1
			l-0.2-1.2c0.8-0.1,1.6-0.3,2.4-0.4L-409,82.7z"/>
		<path class="st5" d="M-380.6,89.9l0-3l-2.3-0.3l0.4-1.4h4v6.2c-1,0.2-2,0.4-3.2,0.4c-1.1,0-2.2-0.2-3-0.5
			c-0.9-0.3-1.7-0.8-2.3-1.4c-1.4-1.3-2.1-3-2.1-5.1c0-2.2,0.7-3.9,2-5.2c1.3-1.3,3-2,5.1-2c1,0,2.1,0.1,3.2,0.4l0.3,3.7h-1.5
			l-0.7-2.2c-0.4-0.1-0.9-0.1-1.5-0.1c-0.6,0-1.2,0.1-1.8,0.4c-0.6,0.3-1.1,0.6-1.5,1.1c-0.9,1-1.4,2.3-1.4,3.8
			c0,1.6,0.5,2.8,1.5,3.8c1,1,2.3,1.4,4,1.4C-381.2,90-380.8,89.9-380.6,89.9z"/>
		<path class="st5" d="M-373.8,82.7c0.5-0.6,1.2-0.9,2.1-0.9c0.6,0,1.1,0.1,1.5,0.4c0.4,0.3,0.7,0.7,0.9,1.1l-2,1l-0.6-1
			c-0.5,0-0.9,0.2-1.2,0.6c-0.4,0.4-0.6,0.9-0.6,1.6v4.4c0,0.1,0.1,0.1,0.3,0.1l2.3,0.5v1.1h-5.5l-0.2-1.1l1.3-0.3v-6.8h-1.1
			l-0.2-1.2c0.8-0.1,1.6-0.3,2.4-0.4L-373.8,82.7z"/>
		<path class="st5" d="M-363.1,90.8c-0.6,0.6-1.4,0.9-2.3,0.9c-0.9,0-1.7-0.3-2.2-0.8c-0.6-0.5-0.8-1.1-0.8-1.8
			c0-0.7,0.1-1.3,0.4-1.7c0.3-0.4,0.7-0.7,1.1-1c0.8-0.4,2-0.6,3.6-0.7v-1.4c0-0.3-0.1-0.5-0.4-0.7c-0.3-0.2-0.6-0.3-1.2-0.3
			c-0.5,0-0.9,0.1-1.1,0.3l-0.4,1.3l-2.1-0.6c0.3-1.1,1.1-1.9,2.3-2.3c0.4-0.1,0.9-0.2,1.5-0.2c1.1,0,1.9,0.3,2.4,0.8
			c0.6,0.5,0.8,1.2,0.8,2.1v5.2c0,0.3,0.1,0.4,0.3,0.4c0.1,0,0.2,0,0.4-0.1l0.4,1.1c-0.4,0.4-0.9,0.5-1.4,0.5
			C-362.4,91.7-362.9,91.4-363.1,90.8z M-366,90c0.1,0.1,0.3,0.2,0.5,0.2c0.2,0,0.3,0.1,0.5,0.1s0.4,0,0.6-0.1
			c0.2-0.1,0.4-0.2,0.5-0.3c0.3-0.2,0.5-0.5,0.6-0.8v-1.7c-0.9,0-1.5,0.1-2,0.2c-0.4,0.1-0.7,0.3-1,0.5c-0.2,0.2-0.3,0.5-0.3,0.8
			c0,0.3,0.1,0.6,0.2,0.7C-366.3,89.7-366.2,89.9-366,90z M-364.2,77l0.6-0.2l1.2,1.6l-3.4,2.5l-0.8-0.9L-364.2,77z"/>
		<path class="st5" d="M-359.5,82l0.1-0.2h1.5v-1.8c0-1,0.3-1.8,0.8-2.4c0.5-0.5,1.1-0.7,1.9-0.7c0.9,0,1.8,0.3,2.6,0.9
			c0.2,0.1,0.3,0.2,0.3,0.2l-1.4,1.7l-1.3-1.2c-0.1,0-0.2,0-0.3,0c-0.5,0-0.8,0.4-0.8,1.3v2.1h2.3c0.1,0,0.1,0,0.1,0.1v1.4h-2.4v6.9
			l2.3,0.3v1.1h-5.1l-0.2-1.1l1.2-0.2v-7h-1.4L-359.5,82z"/>
		<path class="st5" d="M-349.3,90.2l1.2,0.3v1.1h-4.1l-0.2-1.1l1.3-0.3v-6.9l-1.1,0.1l-0.2-1.2l2.5-0.4l0.6,0.6V90.2z M-351.8,78.1
			c0-0.4,0.1-0.6,0.4-0.9c0.2-0.2,0.5-0.4,0.9-0.4c0.4,0,0.6,0.1,0.9,0.4c0.2,0.3,0.4,0.6,0.4,0.9c0,0.3-0.1,0.6-0.4,0.9
			c-0.2,0.2-0.5,0.4-0.9,0.4c-0.4,0-0.6-0.1-0.9-0.4C-351.7,78.8-351.8,78.5-351.8,78.1z"/>
		<path class="st5" d="M-339.7,90.8c-0.8,0.6-1.8,0.9-3,0.9c-1.2,0-2.2-0.4-3-1.2c-0.9-0.9-1.3-2.1-1.3-3.6c0-1.8,0.5-3.1,1.4-4
			c0.8-0.7,1.7-1.1,2.9-1.1c0.9,0,1.6,0.2,2.3,0.7c0.5,0.4,0.9,0.7,1.1,1.2l-2,1l-0.6-1.2c-0.3-0.1-0.5-0.1-0.7-0.1
			c-1.6,0-2.5,1.2-2.5,3.6c0,1,0.2,1.8,0.7,2.4c0.5,0.6,1.1,0.9,2,0.9c0.4,0,0.8-0.1,1.2-0.2c0.4-0.1,0.8-0.3,1-0.6L-339.7,90.8z"/>
		<path class="st5" d="M-338.3,86.7c0-0.8,0.1-1.5,0.3-2.1c0.2-0.6,0.5-1.1,1-1.5c0.8-0.8,1.8-1.3,3-1.3c1.2,0,2.3,0.4,3.1,1.3
			s1.2,2.1,1.2,3.6c0,1.6-0.4,2.8-1.3,3.7c-0.8,0.9-1.8,1.3-3,1.3c-1.3,0-2.3-0.5-3.1-1.4C-337.9,89.4-338.3,88.2-338.3,86.7z
			 M-336.4,86.9c0,1.1,0.2,1.9,0.6,2.5c0.4,0.6,1,0.8,1.7,0.8c0.7,0,1.3-0.3,1.7-0.8c0.4-0.5,0.7-1.4,0.7-2.5c0-1.1-0.2-2-0.6-2.6
			c-0.4-0.6-1-0.9-1.7-0.9c-0.8,0-1.4,0.3-1.8,1C-336.2,84.9-336.4,85.8-336.4,86.9z"/>
	</g>
</g>
<g>
	<g>
		<g>
			<path class="st4" d="M59.6,37.5l-9.3,0.4l15.4,12.5l7.8,0.8l0,10.4c-6.1,5.2-22,7.6-29.2-1.8c-1.3-1.6-2.4-3.5-3.4-5.4
				c-2.6-4.9-5.1-9.8-7.6-14.7c-0.5-1.1-1.2-1.5-2.6-0.9l0,17l4,1.3l0,8L0,65.3l0-11.4L8.1,53L8,16.6l-7.4-0.5l0-12h60.3L61,36
				C61,36.8,60.4,37.5,59.6,37.5z M41.1,18.1c-3.5,0-6.8,0-10.2,0c0,4.4,0,8.7,0,13.1c3.5-0.3,6.8-0.5,10.2-0.8
				C41.1,26.2,41.1,22.2,41.1,18.1z"/>
			<g>
				<path class="st4" d="M78.4,10.4v-2L87.7,0h2.5c0,0,9,8.1,9,8.3c0,0.1,0,2.1,0,2.1l-8.8,8.5h-2.6L78.4,10.4z"/>
				<path class="st4" d="M79,57.7c0,3.9,1.8,6.7,5.2,7.5c6.5,1.6,12.8,1.2,18.9-1.6c0.4-0.2,1-0.7,1-1.1c0.1-2.8,0-5.7,0-8.8
					L99,53.5l0-30.1c-8.9,0-18,0-26.8,0c0,3.4,0,6.7,0,10l6.8,0.7L79,57.7z"/>
			</g>
			<g>
				<path class="st4" d="M187.8,10.4v-2l9.3-8.4h2.5c0,0,9,8.1,9,8.3c0,0.1,0,2.1,0,2.1l-8.8,8.5h-2.6L187.8,10.4z"/>
				<path class="st4" d="M188.4,57.7c0,3.9,1.8,6.7,5.2,7.5c6.5,1.6,12.8,1.2,18.9-1.6c0.4-0.2,1-0.7,1-1.1c0.1-2.8,0-5.7,0-8.8
					l-5.3-0.3l0-30.1c-8.9,0-18,0-26.8,0c0,3.4,0,6.7,0,10l6.8,0.7L188.4,57.7z"/>
			</g>
			<path class="st4" d="M156.5,57.8c0,3.9,1.8,6.7,5.2,7.5c6.5,1.6,12.8,1.2,18.9-1.6c0.4-0.2,1-0.7,1-1.1c0.1-2.8,0-5.7,0-8.8
				l-5.3-0.3l0-51.2c-8.9,0-18,0-26.8,0c0,3.4,0,6.7,0,10l6.8,0.7L156.5,57.8z"/>
			<path class="st4" d="M150,50.5c0,3.8,0,7.2-0.1,10.6c0,0.4-0.6,0.9-1.1,1.3c-3.3,2.2-7.1,3.1-10.9,3.6
				c-5.5,0.6-10.9,0.6-16.2-1.4c-8.7-3.2-13.2-9.6-13.8-18.7c-0.7-10.6,4.5-19.8,15.2-22.7c5.9-1.6,11.9-1.7,17.7,0.7
				c5.8,2.4,8.8,6.9,9.4,12.9c0,0,0.5,4.8-0.5,9.9c0,0-17.1,0-17.5,0c0,0-3,0.1-4.4-1.2c-0.3-0.3-0.8-0.1-0.8-0.1
				c0.1,2.3,1.4,4.1,3.2,5.1c3.7,2.1,7.7,2.1,11.7,1.6c1.9-0.3,3.4-0.8,4.9-1.4L150,50.5z M133.5,34.8c-2.8-0.9-5.7,0.7-5.7,3.8
				c0,0.5,0,1.3,0,1.3h7.9C135.6,39.8,136,35.7,133.5,34.8z"/>
		</g>
	</g>
	<g>
		<path class="st4" d="M112.2,86.8v-0.4l2-1.8h0.5c0,0,1.9,1.8,1.9,1.8s0,0.4,0,0.4l-1.9,1.8h-0.6L112.2,86.8z"/>
	</g>
	<g>
		<path class="st5" d="M36,89.9V79.2l-1.2-0.1v-1.5h3.8c2.2,0,4,0.6,5.2,1.8c1.3,1.2,2,2.9,2,5.1c0,2.2-0.6,4-1.9,5.2
			c-1.3,1.2-3,1.9-5.2,1.9H35l-0.2-1.4L36,89.9z M38.2,89.9c3.7,0,5.6-1.8,5.6-5.4c0-1.6-0.5-2.9-1.5-3.8c-0.9-0.9-2.2-1.3-3.8-1.3
			l-0.5,0v10.5L38.2,89.9z"/>
		<path class="st5" d="M54.9,84.4c0,0.4-0.1,0.8-0.2,1.2c-0.1,0.4-0.4,0.8-0.8,1.1c-0.9,0.7-2.4,1.1-4.5,1.1
			c0.2,1.1,0.8,1.8,1.6,2.1c0.3,0.1,0.6,0.2,1,0.2c0.4,0,0.7,0,0.9-0.1c0.3-0.1,0.5-0.1,0.7-0.2c0.4-0.2,0.6-0.3,0.8-0.5l0.4,1.4
			c-0.1,0.1-0.4,0.3-0.7,0.4c-1.4,0.6-2.7,0.6-4,0.1c-1.2-0.4-2-1.2-2.4-2.5c-0.2-0.6-0.3-1.3-0.3-2.1c0-0.8,0.1-1.5,0.4-2.2
			c0.2-0.6,0.6-1.2,1-1.6c0.8-0.9,1.8-1.3,3-1.3c0.9,0,1.6,0.2,2.2,0.7C54.6,83,54.9,83.6,54.9,84.4z M53,84.6
			c0-0.4-0.1-0.7-0.3-0.9c-0.2-0.2-0.5-0.4-0.9-0.4c-0.4,0-0.7,0.1-1,0.2c-0.3,0.1-0.5,0.3-0.7,0.5c-0.5,0.6-0.7,1.3-0.8,2.4
			c1,0,1.7-0.1,2.2-0.2c0.5-0.2,0.9-0.4,1.1-0.6C52.8,85.3,53,85,53,84.6z"/>
		<path class="st5" d="M59.8,81.8c0.4,0,0.8,0.1,1.2,0.2c0.4,0.1,0.7,0.3,1,0.5c0.5,0.4,0.9,0.8,1.2,1.4l-2.1,0.8l-0.5-1
			c-0.3-0.1-0.6-0.2-0.9-0.2s-0.6,0.1-0.9,0.3c-0.3,0.2-0.4,0.4-0.4,0.8c0,0.4,0.2,0.6,0.5,0.9c0.3,0.2,0.8,0.5,1.4,0.7
			c0.6,0.2,1,0.5,1.4,0.7c0.3,0.2,0.6,0.4,0.7,0.7c0.3,0.4,0.5,0.9,0.5,1.5s-0.1,1-0.3,1.3c-0.2,0.4-0.5,0.6-0.8,0.9
			c-0.6,0.4-1.4,0.6-2.3,0.6c-0.8,0-1.5-0.2-2.2-0.6c-0.7-0.4-1.1-0.9-1.3-1.5l2.1-0.8l0.5,1.2c0.3,0.1,0.6,0.2,0.9,0.2
			c0.3,0,0.5,0,0.6-0.1c0.2,0,0.3-0.1,0.4-0.2c0.3-0.2,0.5-0.5,0.5-0.9c0-0.5-0.3-0.9-0.9-1.1c-0.6-0.3-1.1-0.5-1.6-0.7
			c-0.4-0.2-0.8-0.4-1.1-0.7c-0.6-0.5-0.9-1.2-0.9-2c0-0.8,0.3-1.5,1-2C58.2,82,58.9,81.8,59.8,81.8z"/>
		<path class="st5" d="M67.5,90.2l1.2,0.3v1.1h-4.1l-0.2-1.1l1.3-0.3v-6.9l-1.1,0.1l-0.2-1.2l2.5-0.4l0.6,0.6V90.2z M65.1,78.1
			c0-0.4,0.1-0.6,0.4-0.9s0.5-0.4,0.9-0.4c0.4,0,0.6,0.1,0.9,0.4c0.2,0.3,0.4,0.6,0.4,0.9c0,0.3-0.1,0.6-0.4,0.9
			c-0.2,0.2-0.5,0.4-0.9,0.4c-0.4,0-0.6-0.1-0.9-0.4C65.2,78.8,65.1,78.5,65.1,78.1z"/>
		<path class="st5" d="M71.5,88.5c-1-0.7-1.6-1.7-1.6-3c0-1.1,0.4-2,1.1-2.7c0.7-0.7,1.6-1.1,2.6-1.1s1.9,0.3,2.6,0.9l2-1l0.4,0.1
			l0.2,1.7l-1.8,0.2c0.3,0.6,0.5,1.2,0.5,1.8c0,0.6-0.1,1.2-0.3,1.6c-0.2,0.4-0.5,0.8-0.9,1.1c-0.7,0.6-1.6,0.9-2.6,0.9
			c-0.3,0-0.6,0-0.9-0.1l-0.5,0.8l0.1,0.3c0.1,0,0.4,0.1,0.9,0.1c0.4,0.1,1,0.2,1.5,0.3c0.6,0.1,1.1,0.3,1.5,0.5
			c0.4,0.2,0.7,0.4,1,0.7c0.4,0.4,0.6,1,0.6,1.7c0,0.7-0.1,1.2-0.4,1.7c-0.2,0.5-0.6,0.8-1,1.2c-0.8,0.6-1.8,0.9-2.9,0.9
			c-1.2,0-2.2-0.3-3-0.8c-0.8-0.6-1.2-1.3-1.2-2.2c0-1.3,0.6-2.2,1.7-2.7c-0.3-0.3-0.5-0.7-0.5-1.3S71,89,71.5,88.5z M76.4,93.8
			c0-0.4-0.2-0.7-0.6-0.9c-0.4-0.2-0.9-0.3-1.6-0.5c-0.7-0.1-1.2-0.3-1.5-0.4c-1,0.4-1.4,1-1.4,1.8c0,0.4,0.2,0.8,0.7,1.1
			c0.5,0.3,1.1,0.4,1.8,0.4c0.7,0,1.3-0.2,1.8-0.5C76.1,94.6,76.4,94.3,76.4,93.8z M73.7,83.3c-0.6,0-1,0.2-1.3,0.6
			c-0.3,0.4-0.5,0.8-0.5,1.3c0,0.5,0.1,0.9,0.2,1.1c0.1,0.3,0.2,0.5,0.4,0.6c0.3,0.3,0.8,0.5,1.3,0.5c0.5,0,1-0.2,1.4-0.5
			c0.4-0.4,0.5-0.9,0.5-1.6s-0.2-1.2-0.6-1.6C74.7,83.5,74.3,83.3,73.7,83.3L73.7,83.3z"/>
		<path class="st5" d="M82.7,82.5c0.6-0.5,1.5-0.7,2.4-0.7c1.4,0,2.3,0.5,2.8,1.5c0.1,0.4,0.2,0.8,0.2,1.3v5.6l1.2,0.3v1.1h-4
			l-0.2-1.1l1.2-0.3v-5.3c0-0.6-0.1-1-0.4-1.2c-0.3-0.2-0.6-0.3-1.1-0.3c-0.4,0-0.8,0.1-1.2,0.3c-0.4,0.2-0.7,0.4-0.9,0.5v6.1
			l1.2,0.3v1.1h-4l-0.2-1.1l1.3-0.3v-6.9l-1.1,0.1l-0.2-1.2c0.2,0,0.4-0.1,0.6-0.1c0.2,0,0.5-0.1,0.7-0.1c0.2,0,0.5-0.1,0.7-0.1
			c0.2,0,0.4-0.1,0.5-0.1L82.7,82.5z"/>
		<path class="st5" d="M98,84.4c0,0.4-0.1,0.8-0.2,1.2c-0.1,0.4-0.4,0.8-0.8,1.1c-0.9,0.7-2.4,1.1-4.5,1.1c0.2,1.1,0.8,1.8,1.6,2.1
			c0.3,0.1,0.6,0.2,1,0.2c0.4,0,0.7,0,0.9-0.1c0.3-0.1,0.5-0.1,0.7-0.2c0.4-0.2,0.6-0.3,0.8-0.5l0.4,1.4c-0.1,0.1-0.4,0.3-0.7,0.4
			c-1.4,0.6-2.7,0.6-4,0.1c-1.2-0.4-2-1.2-2.4-2.5c-0.2-0.6-0.3-1.3-0.3-2.1c0-0.8,0.1-1.5,0.4-2.2c0.2-0.6,0.6-1.2,1-1.6
			c0.8-0.9,1.8-1.3,3-1.3c0.9,0,1.6,0.2,2.2,0.7C97.7,83,98,83.6,98,84.4z M96,84.6c0-0.4-0.1-0.7-0.3-0.9c-0.2-0.2-0.5-0.4-0.9-0.4
			c-0.4,0-0.7,0.1-1,0.2c-0.3,0.1-0.5,0.3-0.7,0.5c-0.5,0.6-0.7,1.3-0.8,2.4c1,0,1.7-0.1,2.2-0.2c0.5-0.2,0.9-0.4,1.1-0.6
			C95.9,85.3,96,85,96,84.6z"/>
		<path class="st5" d="M102.3,82.7c0.5-0.6,1.2-0.9,2.1-0.9c0.6,0,1.1,0.1,1.5,0.4c0.4,0.3,0.7,0.7,0.9,1.1l-2,1l-0.6-1
			c-0.5,0-0.9,0.2-1.2,0.6c-0.4,0.4-0.6,0.9-0.6,1.6v4.4c0,0.1,0.1,0.1,0.3,0.1l2.3,0.5v1.1h-5.5l-0.2-1.1l1.3-0.3v-6.8h-1.1
			l-0.2-1.2c0.8-0.1,1.6-0.3,2.4-0.4L102.3,82.7z"/>
		<path class="st5" d="M130.8,89.9l0-3l-2.3-0.3l0.4-1.4h4v6.2c-1,0.2-2,0.4-3.2,0.4c-1.1,0-2.2-0.2-3-0.5c-0.9-0.3-1.7-0.8-2.3-1.4
			c-1.4-1.3-2.1-3-2.1-5.1c0-2.2,0.7-3.9,2-5.2c1.3-1.3,3-2,5.1-2c1,0,2.1,0.1,3.2,0.4l0.3,3.7h-1.5l-0.7-2.2
			c-0.4-0.1-0.9-0.1-1.5-0.1c-0.6,0-1.2,0.1-1.8,0.4c-0.6,0.3-1.1,0.6-1.5,1.1c-0.9,1-1.4,2.3-1.4,3.8c0,1.6,0.5,2.8,1.5,3.8
			c1,1,2.3,1.4,4,1.4C130.1,90,130.5,89.9,130.8,89.9z"/>
		<path class="st5" d="M137.5,82.7c0.5-0.6,1.2-0.9,2.1-0.9c0.6,0,1.1,0.1,1.5,0.4c0.4,0.3,0.7,0.7,0.9,1.1l-2,1l-0.6-1
			c-0.5,0-0.9,0.2-1.2,0.6c-0.4,0.4-0.6,0.9-0.6,1.6v4.4c0,0.1,0.1,0.1,0.3,0.1l2.3,0.5v1.1h-5.5l-0.2-1.1l1.3-0.3v-6.8h-1.1
			l-0.2-1.2c0.8-0.1,1.6-0.3,2.4-0.4L137.5,82.7z"/>
		<path class="st5" d="M148.2,90.8c-0.6,0.6-1.4,0.9-2.3,0.9c-0.9,0-1.7-0.3-2.2-0.8c-0.6-0.5-0.8-1.1-0.8-1.8
			c0-0.7,0.1-1.3,0.4-1.7c0.3-0.4,0.7-0.7,1.1-1c0.8-0.4,2-0.6,3.6-0.7v-1.4c0-0.3-0.1-0.5-0.4-0.7c-0.3-0.2-0.6-0.3-1.2-0.3
			c-0.5,0-0.9,0.1-1.1,0.3l-0.4,1.3l-2.1-0.6c0.3-1.1,1.1-1.9,2.3-2.3c0.4-0.1,0.9-0.2,1.5-0.2c1.1,0,1.9,0.3,2.4,0.8
			c0.6,0.5,0.8,1.2,0.8,2.1v5.2c0,0.3,0.1,0.4,0.3,0.4c0.1,0,0.2,0,0.4-0.1l0.4,1.1c-0.4,0.4-0.9,0.5-1.4,0.5
			C148.9,91.7,148.4,91.4,148.2,90.8z M145.3,90c0.1,0.1,0.3,0.2,0.5,0.2c0.2,0,0.3,0.1,0.5,0.1s0.4,0,0.6-0.1
			c0.2-0.1,0.4-0.2,0.5-0.3c0.3-0.2,0.5-0.5,0.6-0.8v-1.7c-0.9,0-1.5,0.1-2,0.2c-0.4,0.1-0.7,0.3-1,0.5c-0.2,0.2-0.3,0.5-0.3,0.8
			c0,0.3,0.1,0.6,0.2,0.7C145.1,89.7,145.2,89.9,145.3,90z M147.1,77l0.6-0.2l1.2,1.6l-3.4,2.5l-0.8-0.9L147.1,77z"/>
		<path class="st5" d="M151.8,82l0.1-0.2h1.5v-1.8c0-1,0.3-1.8,0.8-2.4c0.5-0.5,1.1-0.7,1.9-0.7c0.9,0,1.8,0.3,2.6,0.9
			c0.2,0.1,0.3,0.2,0.3,0.2l-1.4,1.7l-1.3-1.2c-0.1,0-0.2,0-0.3,0c-0.5,0-0.8,0.4-0.8,1.3v2.1h2.3c0.1,0,0.1,0,0.1,0.1v1.4h-2.4v6.9
			l2.3,0.3v1.1h-5.1l-0.2-1.1l1.2-0.2v-7h-1.4L151.8,82z"/>
		<path class="st5" d="M162,90.2l1.2,0.3v1.1h-4.1l-0.2-1.1l1.3-0.3v-6.9l-1.1,0.1l-0.2-1.2l2.5-0.4l0.6,0.6V90.2z M159.5,78.1
			c0-0.4,0.1-0.6,0.4-0.9s0.5-0.4,0.9-0.4c0.4,0,0.6,0.1,0.9,0.4c0.2,0.3,0.4,0.6,0.4,0.9c0,0.3-0.1,0.6-0.4,0.9
			c-0.2,0.2-0.5,0.4-0.9,0.4c-0.4,0-0.6-0.1-0.9-0.4C159.7,78.8,159.5,78.5,159.5,78.1z"/>
		<path class="st5" d="M171.6,90.8c-0.8,0.6-1.8,0.9-3,0.9c-1.2,0-2.2-0.4-3-1.2c-0.9-0.9-1.3-2.1-1.3-3.6c0-1.8,0.5-3.1,1.4-4
			c0.8-0.7,1.7-1.1,2.9-1.1c0.9,0,1.6,0.2,2.3,0.7c0.5,0.4,0.9,0.7,1.1,1.2l-2,1l-0.6-1.2c-0.3-0.1-0.5-0.1-0.7-0.1
			c-1.6,0-2.5,1.2-2.5,3.6c0,1,0.2,1.8,0.7,2.4c0.5,0.6,1.1,0.9,2,0.9c0.4,0,0.8-0.1,1.2-0.2c0.4-0.1,0.8-0.3,1-0.6L171.6,90.8z"/>
		<path class="st5" d="M173,86.7c0-0.8,0.1-1.5,0.3-2.1c0.2-0.6,0.5-1.1,1-1.5c0.8-0.8,1.8-1.3,3-1.3c1.2,0,2.3,0.4,3.1,1.3
			c0.8,0.9,1.2,2.1,1.2,3.6c0,1.6-0.4,2.8-1.3,3.7c-0.8,0.9-1.8,1.3-3,1.3c-1.3,0-2.3-0.5-3.1-1.4C173.4,89.4,173,88.2,173,86.7z
			 M174.9,86.9c0,1.1,0.2,1.9,0.6,2.5c0.4,0.6,1,0.8,1.7,0.8c0.7,0,1.3-0.3,1.7-0.8c0.4-0.5,0.7-1.4,0.7-2.5c0-1.1-0.2-2-0.6-2.6
			c-0.4-0.6-1-0.9-1.7-0.9c-0.8,0-1.4,0.3-1.8,1C175.1,84.9,174.9,85.8,174.9,86.9z"/>
	</g>
</g>
</svg>
