<?xml version="1.0" encoding="utf-8"?>
<!-- Generator: Adobe Illustrator 20.0.0, SVG Export Plug-In . SVG Version: 6.00 Build 0)  -->
<svg version="1.1" id="Layer_1" xmlns="http://www.w3.org/2000/svg" xmlns:xlink="http://www.w3.org/1999/xlink" x="0px" y="0px"
	 viewBox="0 0 255.4 79.2" style="enable-background:new 0 0 255.4 79.2;" xml:space="preserve">
<style type="text/css">
	.st0{fill:#A5FFB4;}
	.st1{fill:#9FFF82;}
</style>
<g>
	<path class="st1" d="M71.2,44.8l-11.1,0.5l18.4,14.9l9.3,1l0,12.4c-7.3,6.3-26.4,9.1-34.9-2.1c-1.6-2-2.9-4.2-4.1-6.4
		c-3.1-5.8-6.1-11.7-9.1-17.5c-0.7-1.3-1.4-1.8-3.1-1.1l0,20.3l4.8,1.6l0,9.6L0,78l0-13.6l9.7-1L9.6,19.9l-8.8-0.6l0-14.3h72.1
		L72.9,43C72.9,44,72.2,44.8,71.2,44.8z M49.1,21.6c-4.2,0-8.2,0-12.2,0c0,5.2,0,10.4,0,15.7c4.2-0.3,8.2-0.7,12.2-1
		C49.1,31.3,49.1,26.6,49.1,21.6z"/>
	<g>
		<path class="st1" d="M93.7,12.4V10l11.1-10h3c0,0,10.7,9.7,10.7,9.9c0,0.2,0,2.5,0,2.5L108,22.5h-3.1L93.7,12.4z"/>
		<path class="st1" d="M94.5,69c0,4.7,2.2,8,6.2,9c7.7,1.9,15.3,1.4,22.6-1.9c0.5-0.2,1.2-0.8,1.2-1.3c0.1-3.4,0.1-6.8,0.1-10.5
			l-6.3-0.4l0-36c-10.7,0-21.5,0-32,0c0,4.1,0,8,0,12l8.2,0.8L94.5,69z"/>
	</g>
	<g>
		<path class="st1" d="M224.5,12.4V10l11.1-10h3c0,0,10.7,9.7,10.7,9.9c0,0.2,0,2.5,0,2.5l-10.5,10.2h-3.1L224.5,12.4z"/>
		<path class="st1" d="M225.2,69c0,4.7,2.2,8,6.2,9c7.7,1.9,15.3,1.4,22.6-1.9c0.5-0.2,1.2-0.8,1.2-1.3c0.1-3.4,0.1-6.8,0.1-10.5
			l-6.3-0.4l0-36c-10.7,0-21.5,0-32,0c0,4.1,0,8,0,12l8.2,0.8L225.2,69z"/>
	</g>
	<path class="st1" d="M187.1,69.1c0,4.7,2.2,8,6.2,9c7.7,1.9,15.3,1.4,22.6-1.9c0.5-0.2,1.2-0.8,1.2-1.3c0.1-3.4,0.1-6.8,0.1-10.5
		l-6.3-0.4l0-61.2c-10.7,0-21.5,0-32,0c0,4.1,0,8,0,12l8.2,0.8L187.1,69.1z"/>
	<path class="st1" d="M179.4,60.4c0,4.5,0,8.6-0.1,12.6c0,0.5-0.8,1.1-1.3,1.5c-3.9,2.6-8.4,3.8-13.1,4.2
		c-6.5,0.7-13.1,0.7-19.3-1.6c-10.4-3.8-15.8-11.5-16.5-22.4c-0.8-12.7,5.3-23.6,18.2-27.1c7.1-1.9,14.2-2,21.1,0.8
		c6.9,2.8,10.5,8.2,11.3,15.4c0,0,0.7,5.8-0.6,11.8c0,0-20.5,0-21,0c0,0-3.5,0.2-5.3-1.5c-0.4-0.4-0.9-0.1-0.9-0.1
		c0.1,2.8,1.7,4.9,3.8,6.1c4.4,2.5,9.2,2.5,14,1.9c2.3-0.4,4.1-1,5.9-1.7L179.4,60.4z M159.5,41.6c-3.4-1.1-6.8,0.8-6.8,4.6
		c0,0.6,0,1.5,0,1.5h9.4C162.1,47.6,162.6,42.6,159.5,41.6z"/>
</g>
</svg>
